<svg xmlns="http://www.w3.org/2000/svg" fill="none" viewBox="0 0 253 292"><defs/><path stroke="#000" stroke-miterlimit="10" stroke-width="2.4" d="M123 67.1L89.6 86.4M89.6 86.4V144M79.2 92.4V138M89.6 144l49.9 28.8M139.5 172.8l33.3-19.3M189.4 122.8V86.4M189.4 86.4L156 67.1M89.6 86.4L51.9 74.1M21 87.6L1 115.2M29.4 93.7l-16.5 22.7M1 115.2l19.3 26.6M51.9 156.3L89.6 144M28.4 181.7L17 216.6M134.3 169.8v39.1M144.7 169.8v39.1M205.9 153.5l33.3 19.3M189.4 92.4l34.7-20.1M184.2 83.4L219 63.3M139.5 36.4V0"/><path fill="#000" d="M146.8 65.1h.1V42.8h3.5v28.6h-3.8l-14.4-22.3h-.1v22.3h-3.6V42.8h3.9l14.4 22.3z"/><path stroke="#000" stroke-miterlimit="12" stroke-width="2.4" d="M141.2 171.8l-1.7 1-1.7-1"/><path fill="#000" d="M196.7 151.5h.1v-22.3h3.5v28.6h-3.9L182 135.5v22.3h-3.6v-28.6h3.9l14.4 22.3z"/><path stroke="#000" stroke-miterlimit="12" stroke-width="2.4" d="M187.6 85.4l1.8 1v2"/><path fill="#000" d="M42.1 76.1h.1V53.8h3.6v28.6h-3.9L27.5 60.1h-.1v22.3h-3.6V53.8h4l14.3 22.3zM42.1 169.3h.1V147h3.6v28.6h-3.9l-14.4-22.3h-.1v22.3h-3.6V147h4l14.3 22.3zM139.5 218.6s-2.9 0-5.1 1.4c0 0-2.2 1.4-3.5 4 0 0-1.2 2.6-1.2 6.2 0 0 0 3.5 1.2 6.1 0 0 1.2 2.6 3.5 4 0 0 2.2 1.4 5 1.4 0 0 2.8 0 5-1.4 0 0 2.2-1.4 3.5-4 0 0 1.2-2.6 1.2-6.2 0 0 0-3.6-1.2-6.2 0 0-1.2-2.6-3.5-4 .2.1-2-1.3-4.9-1.3zm-13.7 11.6s0-4.4 1.8-7.8c0 0 1.8-3.4 4.9-5.2 0 0 3.1-1.8 7-1.8 0 0 3.9 0 7 1.8 0 0 3.1 1.8 4.9 5.2 0 0 1.8 3.3 1.8 7.8 0 0 0 4.4-1.8 7.8 0 0-1.8 3.4-4.9 5.2 0 0-3.1 1.8-7 1.8 0 0-3.9 0-7.1-1.8 0 0-3.1-1.9-4.9-5.2.1-.1-1.7-3.5-1.7-7.8zM239.2 45.8s-2.9 0-5.1 1.4c0 0-2.2 1.4-3.4 4 0 0-1.2 2.6-1.2 6.2 0 0 0 3.5 1.2 6.1 0 0 1.2 2.6 3.5 4 0 0 2.2 1.4 5 1.4 0 0 2.8 0 5.1-1.4 0 0 2.2-1.4 3.4-4 0 0 1.3-2.6 1.3-6.2 0 0 0-3.6-1.2-6.2 0 0-1.2-2.6-3.4-4 0 .1-2.3-1.3-5.2-1.3zm-13.6 11.6s0-4.4 1.8-7.8c0 0 1.8-3.4 4.9-5.2 0 0 3.1-1.8 7-1.8 0 0 3.9 0 7 1.8 0 0 3.1 1.8 4.9 5.2 0 0 1.8 3.3 1.8 7.8 0 0 0 4.4-1.8 7.8 0 0-1.8 3.4-4.9 5.2 0 0-3.1 1.8-7 1.8 0 0-3.9 0-7-1.8 0 0-3.2-1.9-4.9-5.2-.1-.1-1.8-3.5-1.8-7.8zM100.035 280.445c-.1717 1.821-.8436 3.243-2.0155 4.266-1.1718 1.016-2.7304 1.523-4.6757 1.523-1.3594 0-2.5586-.32-3.5977-.961-1.0313-.648-1.8281-1.566-2.3906-2.753-.5625-1.188-.8555-2.567-.8789-4.137v-1.594c0-1.609.2851-3.027.8554-4.254.5703-1.226 1.3868-2.172 2.4492-2.836 1.0704-.664 2.3047-.996 3.7032-.996 1.8828 0 3.3984.512 4.5468 1.535 1.1485 1.024 1.8165 2.469 2.0038 4.336h-2.953c-.1406-1.226-.5-2.109-1.0781-2.648-.5703-.547-1.4101-.821-2.5195-.821-1.2891 0-2.2813.473-2.9766 1.418-.6875.938-1.039 2.317-1.0547 4.137v1.512c0 1.844.3281 3.25.9844 4.219.6641.968 1.6328 1.453 2.9063 1.453 1.164 0 2.039-.262 2.625-.785.5859-.524.957-1.395 1.1132-2.614h2.953zm12.211 1.582h-6.609L104.254 286h-3.082l6.445-17.062h2.66L116.734 286h-3.093l-1.395-3.973zm-5.777-2.39h4.945l-2.473-7.078-2.472 7.078zm22.043-.867h-6.867V286h-2.965v-17.062h10.84v2.39h-7.875v5.074h6.867v2.368zm13.336-.387h-7.008v5.25h8.191V286h-11.156v-17.062h11.074v2.39h-8.109v4.711h7.008v2.344zm6.726 7.617h-2.953v-17.062h2.953V286zm-.644-21.715h3.246l-3.246 3.551h-2.285l2.285-3.551zM165.754 286h-2.965l-7.605-12.105V286h-2.965v-17.062h2.965l7.628 12.152v-12.152h2.942V286zm13.266-3.973h-6.61L171.027 286h-3.082l6.446-17.062h2.66L183.508 286h-3.094l-1.394-3.973zm-5.778-2.39h4.946l-2.473-7.078-2.473 7.078z"/></svg>
