<svg width="876" height="203" fill="none" xmlns="http://www.w3.org/2000/svg"><path fill="#138EBF" fill-opacity=".5" d="M0 110h93v93H0z"/><path fill="#2947E8" fill-opacity=".5" d="M172 110h93v93h-93z"/><path fill="#DB3B17" fill-opacity=".5" d="M474 110h93v93h-93z"/><path fill="#2947E8" fill-opacity=".5" d="M587 110h93v93h-93z"/><path fill="#DB3B17" fill-opacity=".5" d="M278 110h93v93h-93zM746 110h93v93h-93z"/><path fill="#138EBF" fill-opacity=".5" d="M783 110h93v93h-93z"/><path fill="#FFC83D" fill-opacity=".5" d="M93 60h91v143H93zM670 60h91v143h-91z"/><path fill="#138EBF" fill-opacity=".5" d="M324 60h91v143h-91z"/><path fill="#DB3B17" fill-opacity=".5" d="M292 60h91v143h-91zM60 0h93v203H60z"/><path fill="#2947E8" fill-opacity=".5" d="M415 0h93v203h-93z"/></svg>