<svg xmlns="http://www.w3.org/2000/svg" fill="none" viewBox="0 0 71 72">
  <defs/>
  <path fill="#fff" d="M35.045.914001C15.69.914001 0 16.604 0 35.959c0 19.354 15.69 35.045 35.045 35.045 19.355 0 35.045-15.69 35.045-35.045C70.09 16.604 54.4.914001 35.045.914001zM51.761 47.452c-.27.2-.583.296-.895.296-.458 0-.91-.209-1.204-.605L35.715 28.392 21.64 46.353c-.512.652-1.454.767-2.105.255-.652-.511-.767-1.454-.256-2.106l15.287-19.508c.284-.363.72-.575 1.181-.575h.019c.468.006.906.229 1.185.605L52.07 45.352c.493.666.355 1.605-.309 2.1z"/>
</svg>
