<svg xmlns="http://www.w3.org/2000/svg" viewBox="0 0 100 125">
  <defs/>
  <path d="M50.045 14.914C30.69 14.914 15 30.604 15 49.959c0 19.354 15.69 35.045 35.045 35.045 19.355 0 35.045-15.69 35.045-35.045 0-19.355-15.69-35.045-35.045-35.045zm16.716 46.538c-.27.2-.583.296-.895.296-.458 0-.91-.209-1.204-.605L50.715 42.392 36.64 60.353c-.512.652-1.454.767-2.105.255-.652-.511-.767-1.454-.256-2.106l15.287-19.508c.284-.363.72-.575 1.181-.575h.019c.468.006.906.229 1.185.605L67.07 59.352c.493.666.355 1.605-.309 2.1z"/>
</svg>
