<svg data-name="blanco" viewBox="0 0 538.58 291">
  <g fill="#fff" data-name="logo-negro">
    <path d="M530.08 8.5v274H8.5V8.5h521.58m8.5-8.5H0v291h538.58V0z"/>
    <path d="M510 31v176.65H31.81V31H510m8.5-8.5H23.31v193.65h495.21V22.5z"/>
      <path d="M68.57 44.2L100 118.79V44.2h19.28v150.07H96.56l-32.27-80.64v80.64H45V44.2h23.57zM213.59 194.46h-74.3V44.38h72.8v19.3h-53.53v41.38h44.91v19.29h-44.91v50.82h55v19.3zM383.29 130.6h-36.11v63.67h-19.3V44.2h59.46a12.88 12.88 0 0 1 12.9 12.8v52.32c0 5.36-2.79 9.44-6.65 10.52 5.77 1.29 9 7.27 9 12.64v61.76h-19.3V130.6zm-36.11-19.29h33.77V63.48h-33.77v47.83zM288.57 89.22V63.48h-35.73V175h35.73v-34.54h-17.66v-19.3h36.94v60.46A12.85 12.85 0 0 1 295 194.27h-48.55c-6.87 0-12.9-5.79-12.9-12.64V57a13.2 13.2 0 0 1 12.9-12.83H295A12.88 12.88 0 0 1 307.86 57v32.22h-19.29zM422.58 57a13.18 13.18 0 0 1 12.88-12.8H484A12.87 12.87 0 0 1 496.82 57v124.63A12.87 12.87 0 0 1 484 194.27h-48.5a13 13 0 0 1-12.87-12.64V57zm54.95 6.45h-35.66V175h35.66V63.48z"/>
      <path d="M50.64 246.64c-.21-3.21-.21-3.37-1.81-4.45a14.42 14.42 0 0 0-7.66-2.07c-10.2 0-13 8.18-13 15 0 7.82 4 17.55 14.39 17.55 2.38 0 7.77-1.45 9.37-3.36l.62.57-1.19 2.64a26.13 26.13 0 0 1-9.73 2c-16.2 0-18.33-13.41-18.33-17.91 0-11.7 6.73-18.22 18.48-18.22a31.6 31.6 0 0 1 11.08 1.91 60.41 60.41 0 0 0-.83 6.42h-1.4zM74.34 274.44c-11.6 0-17.55-7.4-17.55-18.64 0-8.9 6.06-17.5 18.79-17.5 3.73 0 17.34 1 17.34 17 .01 8.43-4.81 19.14-18.58 19.14zm.88-1.81c11 0 12.84-10.56 12.84-16.1 0-8.49-3.21-16.41-13.3-16.41-7.87 0-13.1 5.23-13.1 14.7 0 14.18 7.77 17.81 13.56 17.81zM101.72 243.74c0-2.23-.47-3.62-3-3.62h-1.5l-.22-.21v-1l.21-.21c.88.05 2.64.21 4.5.21 1.55 0 3.05-.1 4.61-.21 1.19 3.62 8.9 18.43 13.36 27.64 3.58-7.34 11.32-21.2 13.32-27.62 1.6.1 3.21.21 4.81.21 1.24 0 2.54-.1 3.78-.21l.21.21v1l-.21.21c-4.5 0-4.5.52-4.5 9.21v18.22c0 4.3 0 4.81 4.5 5.07l.21.21v1l-.21.21c-2-.05-4.09-.21-6.16-.21s-4.35.15-6.37.21l-.21-.21v-1l.21-.21c4-.47 4-1.19 4-10.56v-17.5H133l-11.5 23.29a50.37 50.37 0 0 0-2.64 6.26h-.78a46.56 46.56 0 0 0-2.59-6.26L104 244.57h-.1v21.17c0 6.52 1.19 6.88 4.19 6.88l.21.21v1l-.21.21c-1.76-.05-3.57-.21-5.33-.21s-3.68.15-5.54.21l-.22-.22v-1l.21-.21c4.5 0 4.5-1 4.5-12.84v-16zM156.38 255.75l.36-.21a6.83 6.83 0 0 0 2.8.47c3.83 0 7.3-2.48 7.3-8.08 0-5.07-2.69-7.2-8.18-7.2-1.55 0-2.54.05-3.78.16a70.25 70.25 0 0 0-.31 7v19.41a30.37 30.37 0 0 0 .16 3.88 2.06 2.06 0 0 0 1 1.14 17.51 17.51 0 0 0 3.68.31l.21.21v1l-.21.21c-2.12-.05-4.81-.21-6.94-.21s-4.24.15-6.37.21l-.21-.21v-1l.21-.21a15.5 15.5 0 0 0 3.05-.31 2.06 2.06 0 0 0 1-1.14 30.43 30.43 0 0 0 .15-3.88v-21.85a30.43 30.43 0 0 0-.15-3.88 2.06 2.06 0 0 0-1-1.14 15.79 15.79 0 0 0-3.05-.31l-.21-.21v-1l.21-.21c2.12.05 4.24.21 6.37.21 3.26 0 5.75-.21 9.32-.21 3.21 0 9.68.15 9.68 8.44 0 4.92-3.57 10.46-11.49 10.46a6.18 6.18 0 0 1-3.26-.67zM201.21 269c1.34 3.31 1.6 3.47 4.35 3.67l.21.21v1l-.21.21c-1.35-.05-4.14-.21-6-.21s-4.19.1-6.21.21l-.21-.21v-1l.21-.21c1.86-.15 3.62-.21 3.62-1.34a5.82 5.82 0 0 0-.57-1.76l-3.4-8.9c-2.17-.1-4.3-.15-6.47-.15s-4.35.05-6.52.15l-1.24 3a51.94 51.94 0 0 0-2.74 7.66c.52 1 1.09 1.09 3.78 1.29l.21.21v1l-.21.21c-2.74-.16-3.83-.21-5-.21-1.86 0-3.73.15-5.54.21l-.21-.21v-1l.21-.21c2.69-.21 3-.67 3.47-1.5a47.89 47.89 0 0 0 3.26-6.21l9.42-21.91c1-2.38.88-2.33 1.71-4.4h1.81a18 18 0 0 0 .93 2.69zm-20.34-10.4c2 .05 3.88.16 5.85.16s3.78-.1 5.64-.16l-5.59-13.6zM212.59 244.88a4.42 4.42 0 0 0-4.25-4.76l-.21-.21v-1l.21-.21c1.14.1 2.64.21 4.14.21 1.14 0 2.23-.1 3.36-.21 3.83 6.42 15.63 20.5 21.9 27.69v-18.92c0-6.47-.72-7.35-4.3-7.35l-.21-.21v-1l.21-.21c1.76.1 3.52.21 5.28.21s3.57-.1 5.44-.21l.21.21v1l-.21.21c-3.16 0-4.25.1-4.25 7.45V269a49.41 49.41 0 0 0 .31 5h-2.17c-1.5-2.28-15.22-19.05-23.29-28.52v20.24c0 6.52 1.19 6.88 4.19 6.88l.21.21v1l-.16.19c-1.76-.05-3.57-.21-5.33-.21s-3.67.21-5.32.21l-.21-.21v-1l.21-.21c4.25 0 4.25-1 4.25-12.84v-14.86zm22-14.49c-.26 1.4-1 5.28-4.87 5.28-1.19 0-1.55-.16-4.92-1.55a7.61 7.61 0 0 0-2.79-.83c-1 0-2.17.67-2.69 2.48h-1.4c.31-2.17 1.81-5.28 4.87-5.28a34.12 34.12 0 0 1 6.06 1.81 6.64 6.64 0 0 0 2 .57c1 0 1.86-.62 2.38-2.48h1.4zM257.11 267.3a30.36 30.36 0 0 0 .16 3.88 2.06 2.06 0 0 0 1 1.14 15.51 15.51 0 0 0 3.05.31l.21.21v1l-.21.21c-2.12-.05-4.19-.21-6.32-.21s-4.24.15-6.37.21l-.21-.21v-1l.21-.21a15.5 15.5 0 0 0 3.05-.31 2.06 2.06 0 0 0 1-1.14 30.43 30.43 0 0 0 .16-3.88v-21.85a30.42 30.42 0 0 0-.16-3.88 2.06 2.06 0 0 0-1-1.14 15.79 15.79 0 0 0-3.05-.31l-.21-.21v-1l.21-.21c2.12.05 4.24.21 6.37.21s4.19-.16 6.32-.21l.21.21v1l-.21.21a15.8 15.8 0 0 0-3.05.31 2.06 2.06 0 0 0-1 1.14 30.36 30.36 0 0 0-.16 3.88v21.85zm1.6-37.58c.67-.67 1.19-1.4 2.23-1.4a1.77 1.77 0 0 1 1.71 1.76 1.74 1.74 0 0 1-.88 1.6l-8.7 5.33h-1.81zM296.08 269c1.34 3.31 1.6 3.47 4.35 3.67l.21.21v1l-.21.21c-1.35-.05-4.14-.21-6-.21s-4.19.1-6.21.21l-.21-.21v-1l.21-.21c1.86-.15 3.62-.21 3.62-1.34a5.81 5.81 0 0 0-.57-1.76l-3.36-8.85c-2.17-.1-4.3-.15-6.47-.15s-4.35.05-6.52.15l-1.24 3a51.94 51.94 0 0 0-2.74 7.66c.52 1 1.09 1.09 3.78 1.29l.21.21v1l-.21.21c-2.74-.16-3.83-.21-5-.21-1.86 0-3.73.15-5.54.21l-.21-.21v-1l.21-.21c2.69-.21 3-.67 3.47-1.5a47.9 47.9 0 0 0 3.26-6.21L280.3 243c1-2.38.88-2.33 1.71-4.4h1.81a18 18 0 0 0 .93 2.69zm-20.34-10.4c2 .05 3.88.16 5.85.16s3.78-.1 5.64-.16l-5.59-13.6zM319.68 245.45a30.62 30.62 0 0 0-.15-3.88 2.06 2.06 0 0 0-1-1.14 13.07 13.07 0 0 0-2.85-.31l-.21-.21v-1l.21-.21c2 .05 4.71.21 7.66.21 4 0 7.51-.21 10.15-.21 10.25 0 15.94 5.75 15.94 15.89 0 10.66-7.66 19.41-18.58 19.41-3 0-4.71-.21-7.51-.21-2.64 0-4.61.1-5.8.21l-.21-.21v-1l.21-.21c2.17-.36 2.17-.62 2.17-5.33v-21.8zm25.05 10.66c0-9.78-4.5-15.38-14.23-15.38a33.84 33.84 0 0 0-6.32.47c0 3.36-.31 6.63-.31 9.94 0 6.68.21 13.41.31 20.08a29.91 29.91 0 0 0 6.21 1c9.12 0 14.35-6.06 14.35-16.1zM357.62 245.45a30.23 30.23 0 0 0-.16-3.88 2.06 2.06 0 0 0-1-1.14 13.06 13.06 0 0 0-2.85-.31l-.21-.21v-1l.21-.21c3.21.05 6.57.21 10 .21 4 0 8.08-.16 12.11-.21l.88.62-.41 6h-.83l-.21-.21a7.71 7.71 0 0 0-1.19-3.52 29.64 29.64 0 0 0-6.63-.67 30.44 30.44 0 0 0-5.18.31c-.15 1.5-.31 5.18-.31 6.88 0 2.07.1 4.09.16 6.11a41.44 41.44 0 0 0 4.76.21 37.81 37.81 0 0 0 7.92-.72l.21.21v2.79l-.21.21c-.67-.31-2.12-.47-6.78-.47a53.18 53.18 0 0 0-5.33.21l-.57.57c-.05 1.24-.16 2.53-.16 3.78 0 2.43.16 7.82.31 10.56a60.68 60.68 0 0 0 6.32.31 23.8 23.8 0 0 0 6.83-.78 16 16 0 0 0 1.5-3.93h1.2c-.1 1.24-.41 3.83-.41 6.26l-.59.57c-4-.16-8-.21-12-.21s-7.09.05-9.52.21l-.21-.21v-1l.21-.21c2.17-.36 2.17-.62 2.17-5.33v-21.8zM423.47 246.64c-.21-3.21-.21-3.37-1.81-4.45a14.42 14.42 0 0 0-7.66-2.07c-10.2 0-13 8.18-13 15 0 7.82 4 17.55 14.39 17.55 2.38 0 7.77-1.45 9.37-3.36l.62.57-1.19 2.64a26.14 26.14 0 0 1-9.73 2c-16.2 0-18.33-13.41-18.33-17.91 0-11.7 6.73-18.22 18.48-18.22a31.6 31.6 0 0 1 11.08 1.91 60.16 60.16 0 0 0-.83 6.42h-1.4zM460 269c1.34 3.31 1.6 3.47 4.35 3.67l.21.21v1l-.21.21c-1.34-.05-4.14-.21-6-.21s-4.19.1-6.21.21l-.21-.21v-1l.21-.21c1.86-.15 3.62-.21 3.62-1.34a5.81 5.81 0 0 0-.57-1.76l-3.36-8.85c-2.17-.1-4.3-.15-6.47-.15s-4.35.05-6.52.15l-1.24 3a52 52 0 0 0-2.74 7.66c.52 1 1.09 1.09 3.78 1.29l.21.21v1l-.21.21c-2.74-.16-3.83-.21-5-.21-1.86 0-3.73.15-5.54.21l-.21-.21v-1l.21-.21c2.69-.21 3-.67 3.47-1.5a47.92 47.92 0 0 0 3.26-6.21l9.39-21.96c1-2.38.88-2.33 1.71-4.4h1.81a18 18 0 0 0 .93 2.69zm-20.34-10.4c2 .05 3.88.16 5.85.16s3.78-.1 5.64-.16l-5.58-13.6zM471.44 245.45a30.25 30.25 0 0 0-.16-3.88 2.06 2.06 0 0 0-1-1.14 12.84 12.84 0 0 0-2.74-.31l-.21-.21v-1l.21-.21c1.29.05 4.14.21 10.15.21 4 0 8.08-.16 10.87-.21l.88.62-.44 6.49h-.83l-.21-.21a8.77 8.77 0 0 0-1.19-4 21.84 21.84 0 0 0-5.85-.67 20.16 20.16 0 0 0-5 .47c-.16 2-.31 6.21-.31 8.65 0 2.22.05 5.64.15 6.52a12.48 12.48 0 0 0 4.56.47 36.17 36.17 0 0 0 7.35-.72l.21.21v2.79l-.21.21c-.67-.31-2.12-.47-6.21-.47-3 0-4.66.05-5.69.16-.1 2.74-.15 5.49-.15 8.13a30.62 30.62 0 0 0 .15 3.88 2.06 2.06 0 0 0 1 1.14 26.08 26.08 0 0 0 4 .31l.21.21v1l-.21.21c-.67 0-4.14-.21-7.25-.21s-5.38.21-6.06.21l-.21-.21v-1l.21-.21a12.6 12.6 0 0 0 2.74-.31 2.06 2.06 0 0 0 1-1.14 30.25 30.25 0 0 0 .16-3.88v-21.9zM497.12 245.45a30.62 30.62 0 0 0-.16-3.88 2.07 2.07 0 0 0-1-1.14 13.07 13.07 0 0 0-2.85-.31l-.21-.21v-1l.21-.21c3.21.05 6.57.21 10 .21 4 0 8.08-.16 12.11-.21l.88.62-.41 6h-.83l-.21-.21a7.73 7.73 0 0 0-1.19-3.52 29.67 29.67 0 0 0-6.63-.67 30.42 30.42 0 0 0-5.18.31c-.16 1.5-.31 5.18-.31 6.88 0 2.07.1 4.09.15 6.11a41.42 41.42 0 0 0 4.76.21 37.82 37.82 0 0 0 7.92-.72l.21.21v2.79l-.21.21c-.67-.31-2.12-.47-6.78-.47a53.12 53.12 0 0 0-5.33.21l-.57.57c-.05 1.24-.15 2.53-.15 3.78 0 2.43.15 7.82.31 10.56a60.65 60.65 0 0 0 6.32.31 23.79 23.79 0 0 0 6.83-.78 15.93 15.93 0 0 0 1.5-3.93h1.24c-.1 1.24-.41 3.83-.41 6.26l-.62.62c-4-.16-8-.21-12-.21s-7.09.05-9.53.21l-.21-.21v-1l.21-.21c2.17-.36 2.17-.62 2.17-5.33v-21.85zm11.75-15.74c.67-.67 1.19-1.4 2.23-1.4a1.76 1.76 0 0 1 1.71 1.76 1.74 1.74 0 0 1-.88 1.6l-8.7 5.33h-1.81z"/>
  </g>
</svg>
