<svg xmlns="http://www.w3.org/2000/svg" viewBox="0 0 495.21 193.66">
  <defs/>
  <g data-name="Capa 11">
    <path d="M418.56 40.98h35.66v111.49h-35.66zM323.87 40.98h33.77v47.83h-33.77z"/>
    <path d="M0 0v193.66h495.21V0zm96 171.77H73.25L41 91.13v80.64H21.69V21.7h23.57l31.43 74.59V21.7H96zm94.31.19H116V21.89h72.8v19.29h-53.55v41.38h44.91v19.29h-44.91v50.82h55zm94.24-105.23h-19.29V41h-35.73v111.47h35.73V118h-17.65V98.66h36.94v60.47a12.85 12.85 0 01-12.9 12.64h-48.51c-6.87 0-12.9-5.79-12.9-12.64V34.54a13.19 13.19 0 0112.9-12.84h48.51a12.89 12.89 0 0112.9 12.84zm94.73 105H360V108.1h-36.13v63.67h-19.3V21.7H364a12.89 12.89 0 0112.9 12.84v52.31c0 5.36-2.79 9.44-6.65 10.52 5.77 1.29 9 7.28 9 12.64zm94.24-12.64a12.87 12.87 0 01-12.87 12.64h-48.5a13 13 0 01-12.87-12.64V34.54a13.17 13.17 0 0112.87-12.84h48.5a12.88 12.88 0 0112.87 12.84z"/>
  </g>
</svg>
