<svg width="1796" height="1024" viewBox="0 0 1796 1024" fill="none" xmlns="http://www.w3.org/2000/svg">
<path fill-rule="evenodd" clip-rule="evenodd" d="M410.611 660.736C429.296 647.132 438.562 624.858 445.533 621.066C450.662 618.277 450.569 599.029 460.85 592.217C474.647 583.075 518.613 576.277 534.609 575.006C549.962 573.786 576.666 576.349 591.071 581.973C615.093 591.351 624.674 609.241 635.253 632.288C635.253 632.288 397.774 670.083 410.611 660.736Z" fill="#EDB98A"/>
<path fill-rule="evenodd" clip-rule="evenodd" d="M759.079 676.63H379.403L247.985 793.579L189.655 1285.14L272.621 1310.98L785.248 1319.55L945.347 1274.27L955.336 932.107L759.079 676.63Z" fill="#78E185"/>
<path fill-rule="evenodd" clip-rule="evenodd" d="M243.041 1195.84C245.686 1194.52 248.443 1193.01 251.463 1192.9C256.65 1192.72 256.657 1184.65 251.463 1184.83C246.932 1184.99 242.954 1186.88 238.967 1188.87C234.315 1191.19 238.407 1198.15 243.041 1195.84M251.463 968.6C247.923 968.603 244.355 969.05 241.636 971.527C240.02 973 240.148 975.746 241.636 977.235C243.229 978.827 245.733 978.703 247.344 977.235C246.818 977.713 247.339 977.239 247.53 977.134C247.575 977.109 247.6 977.092 247.612 977.081C247.653 977.071 247.693 977.063 247.759 977.046C248.18 976.94 248.597 976.836 249.024 976.759C249.031 976.779 249.925 976.7 250.134 976.692C250.578 976.675 251.02 976.673 251.463 976.673C253.652 976.672 255.498 974.828 255.498 972.637C255.498 970.457 253.644 968.599 251.463 968.6M289.409 1059.16C290.565 1064.23 298.344 1062.07 297.191 1057.01C295.514 1049.66 295.82 1042.12 297.191 1034.74C298.135 1029.66 290.356 1027.5 289.409 1032.6C287.765 1041.45 287.397 1050.33 289.409 1059.16M299.602 769.02C305.613 767.592 311.557 767.423 317.705 767.421C322.906 767.419 322.898 759.346 317.705 759.348C310.848 759.35 304.155 759.644 297.456 761.236C292.398 762.438 294.553 770.219 299.602 769.02M319.742 965.66C323.227 963.916 326.715 962.172 330.2 960.428C334.853 958.102 330.76 951.141 326.127 953.457L315.668 958.69C311.018 961.016 315.109 967.977 319.742 965.66M321.193 1124.64C325.615 1131.02 331.832 1134.98 339.293 1136.96C344.327 1138.29 346.456 1130.5 341.439 1129.17C336.103 1127.76 331.363 1125.18 328.162 1120.56C325.219 1116.32 318.226 1120.36 321.193 1124.64M349.08 840.403C350.276 838.167 352.077 837.222 354.312 837.172C359.506 837.053 359.507 828.98 354.312 829.099C349.218 829.214 344.546 831.773 342.112 836.329C339.662 840.914 346.631 844.988 349.08 840.403M400.268 895.278C401.715 896.854 404.521 896.815 405.975 895.278C406.866 894.337 407.615 893.287 408.204 892.135C408.428 891.698 408.638 891.253 408.885 890.828C408.995 890.64 409.117 890.452 409.242 890.27C409.284 890.233 409.372 890.142 409.463 890.046C411.013 888.407 410.974 885.986 409.463 884.338C408.015 882.761 405.21 882.801 403.755 884.338C402.865 885.278 402.116 886.329 401.527 887.48C401.303 887.917 401.093 888.362 400.845 888.788C400.735 888.977 400.613 889.163 400.488 889.345C400.446 889.382 400.359 889.473 400.268 889.569C398.717 891.209 398.756 893.63 400.268 895.278M404.572 1014.49C409.828 1016.89 415.592 1016.89 420.848 1014.49C422.838 1013.57 423.311 1010.7 422.295 1008.96C421.118 1006.95 418.755 1006.61 416.774 1007.51C414.391 1008.61 411.025 1008.6 408.645 1007.51C406.655 1006.6 404.315 1006.93 403.124 1008.96C402.102 1010.71 402.59 1013.58 404.572 1014.49M418.908 1098.86C419.811 1101 421.761 1102.14 424.041 1102.23C426.3 1102.31 427.981 1100.31 428.076 1098.19C428.137 1096.82 427.397 1095.65 426.335 1094.93C426.334 1094.85 426.332 1094.78 426.332 1094.7C426.331 1092.44 424.484 1090.76 422.297 1090.66C420.119 1090.57 418.26 1092.59 418.261 1094.7C418.262 1096.13 418.35 1097.54 418.908 1098.86M439.73 1233.01C446.17 1233.11 452.463 1234.65 458.904 1234.75C464.109 1234.84 464.092 1226.76 458.904 1226.68C452.464 1226.57 446.171 1225.04 439.73 1224.94C434.525 1224.85 434.542 1232.92 439.73 1233.01M466.511 715.668C470.281 719.261 474.938 721.031 479.53 723.275C484.183 725.549 488.269 718.585 483.604 716.304C479.714 714.403 475.407 712.998 472.217 709.961C468.454 706.375 462.742 712.078 466.511 715.668M476.631 808.72C479.276 807.399 482.033 805.889 485.052 805.784C490.241 805.602 490.248 797.529 485.052 797.711C480.523 797.868 476.544 799.758 472.557 801.749C467.904 804.072 471.996 811.033 476.631 808.72M525.145 1182.18C526.34 1179.95 528.14 1179 530.376 1178.95C535.57 1178.83 535.572 1170.76 530.376 1170.88C525.281 1170.99 520.61 1173.55 518.175 1178.11C515.726 1182.69 522.695 1186.77 525.145 1182.18M541.946 1006.88C543.552 1005.4 543.44 1002.67 541.946 1001.17C540.202 999.427 538.459 997.683 536.715 995.94C535.121 994.344 532.62 994.46 531.009 995.94C529.403 997.414 529.515 1000.15 531.009 1001.65C532.753 1003.39 534.496 1005.13 536.239 1006.88C537.835 1008.48 540.335 1008.36 541.946 1006.88M561.755 1280.09C567.576 1279.96 573.034 1278.28 578.516 1276.46C583.428 1274.82 581.309 1267.03 576.37 1268.67C571.606 1270.26 566.82 1271.9 561.755 1272.02C556.56 1272.14 556.558 1280.21 561.755 1280.09M587.903 1107.46C593.163 1107.31 597.526 1104.63 601.215 1101.04C604.946 1097.41 599.234 1091.71 595.508 1095.34C593.397 1097.39 590.96 1099.3 587.903 1099.38C582.71 1099.53 582.706 1107.6 587.903 1107.46M571.665 885.448C571.601 887.597 570.694 889.9 569.36 891.313C565.794 895.091 571.494 900.807 575.067 897.022C578.014 893.899 579.611 889.72 579.735 885.448C579.885 880.243 571.813 880.265 571.665 885.448M633.223 709.621C634.912 706.313 637.125 702.434 640.492 700.606C645.064 698.125 640.985 691.156 636.418 693.635C631.842 696.119 628.568 701.016 626.254 705.546C623.894 710.169 630.861 714.248 633.223 709.621M643.684 793.577C645.557 793.524 647.415 793.203 649.221 792.714C649.993 792.504 650.755 792.262 651.528 792.053C651.859 791.963 653.264 791.787 652.401 791.834C654.586 791.717 656.436 790.08 656.436 787.797C656.436 785.699 654.58 783.643 652.401 783.761C649.405 783.921 646.682 785.42 643.684 785.504C638.494 785.651 638.49 793.724 643.684 793.577M669.833 922.616H678.549C683.75 922.616 683.741 914.543 678.549 914.543H669.833C664.631 914.543 664.64 922.616 669.833 922.616M679.999 1279.54C682.642 1280.86 685.758 1282.12 687.898 1284.14C691.673 1287.71 697.387 1282.01 693.605 1278.43C690.878 1275.85 687.392 1274.23 684.072 1272.57C682.116 1271.59 679.711 1272.03 678.551 1274.02C677.503 1275.81 678.05 1278.56 679.999 1279.54M699.474 1177.54C699.812 1177.44 700.169 1177.38 700.511 1177.33C701.883 1177.14 703.319 1177.21 704.697 1177.21C709.898 1177.21 709.89 1169.13 704.697 1169.14C700.604 1169.14 696.345 1169.19 693.127 1172.06C691.494 1173.52 691.652 1176.29 693.127 1177.77C694.731 1179.37 697.208 1179.22 698.834 1177.77C698.662 1177.92 699.25 1177.6 699.474 1177.54M704.695 1040.35C703.523 1037.93 703.504 1036.36 703.502 1033.67C703.498 1028.47 695.428 1028.47 695.432 1033.67C695.434 1037.57 696.014 1040.89 697.726 1044.43C698.681 1046.4 701.478 1046.91 703.246 1045.87C705.23 1044.71 705.644 1042.31 704.695 1040.35M728.029 850.978C732.71 852.57 736.889 854.825 741.011 857.546C745.362 860.418 749.4 853.424 745.084 850.575C740.38 847.47 735.515 845.01 730.175 843.192C725.238 841.513 723.139 849.314 728.029 850.978M755.25 715.107C758.727 715.204 762.317 716.538 765.416 718.044C770.073 720.306 774.16 713.342 769.488 711.073C765.062 708.921 760.218 707.173 755.25 707.034C750.046 706.888 750.068 714.962 755.25 715.107M767.452 1077.81C768.82 1077.87 769.99 1077.13 770.714 1076.07C770.79 1076.07 770.864 1076.07 770.939 1076.07C773.201 1076.07 774.875 1074.22 774.974 1072.03C775.072 1069.85 773.049 1067.99 770.939 1068C769.514 1068 768.101 1068.08 766.778 1068.64C764.64 1069.54 763.504 1071.5 763.417 1073.78C763.331 1076.04 765.335 1077.72 767.452 1077.81M787.299 798.664C792.255 800.284 794.359 792.487 789.444 790.88C783.675 788.994 777.78 787.534 772.011 785.648C767.055 784.028 764.951 791.827 769.867 793.433C775.634 795.318 781.53 796.778 787.299 798.664M805.398 951.041C806.935 955.996 814.722 953.869 813.18 948.895C811.691 944.094 811.585 939.262 811.582 934.274C811.578 929.071 803.508 929.08 803.511 934.274C803.514 939.951 803.705 945.577 805.398 951.041M859.355 1133.55C859.649 1135.56 861.243 1137.01 863.329 1137.1C865.453 1137.2 867.441 1135.18 867.364 1133.06C867.216 1129 863.904 1125.69 859.843 1125.54C857.583 1125.46 855.902 1127.46 855.807 1129.58C855.715 1131.64 857.436 1133.25 859.355 1133.55M886.662 901.547C890.926 902.971 895.483 904.327 898.826 907.484C902.604 911.05 908.318 905.35 904.533 901.776C900.124 897.613 894.454 895.648 888.806 893.762C883.861 892.111 881.76 899.911 886.662 901.547M905.168 1058.38C906.34 1060.38 908.714 1060.74 910.688 1059.82C913.335 1058.59 916.258 1058.63 919.112 1058.63C924.312 1058.63 924.304 1050.55 919.112 1050.56C914.709 1050.56 910.648 1050.98 906.615 1052.85C904.63 1053.78 904.147 1056.63 905.168 1058.38M915.625 1248.7C917.885 1248.79 919.566 1246.79 919.661 1244.67C919.753 1242.61 918.033 1241 916.112 1240.69C915.819 1238.68 914.224 1237.24 912.139 1237.14C910.014 1237.05 908.026 1239.07 908.104 1241.18C908.252 1245.24 911.562 1248.55 915.625 1248.7M180.384 1279.23C181.755 1274.29 184.892 1270.31 187.263 1265.87C188.058 1264.37 188.334 1263.44 188.765 1262.34C189.35 1263.52 190.486 1264.4 192.194 1264.4C195.47 1264.4 199.303 1264.19 202.36 1265.59C204.349 1266.5 206.691 1266.18 207.881 1264.14C208.903 1262.39 208.414 1259.53 206.433 1258.62C201.927 1256.55 197.082 1256.33 192.194 1256.32C190.986 1256.32 190.072 1256.77 189.427 1257.44C187.558 1231.84 187.605 1206.23 189.372 1180.63C191.258 1153.26 195.596 1126.43 200.136 1099.42C202.334 1086.32 205.189 1073.09 204.634 1059.75C204.079 1046.5 198.4 1034.15 202.425 1020.86C204.039 1015.53 206.803 1010.65 208.599 1005.38C210.526 999.708 210.354 994.107 209.477 988.234C207.671 976.276 204.676 964.459 209.467 952.783C211.585 947.606 215.016 942.985 216.669 937.636C218.727 930.986 218.445 923.629 218.788 916.737C219.484 902.831 219.665 888.834 220.817 874.959C221.33 868.743 222.45 862.849 225.002 857.148C227.454 851.658 231.095 846.663 232.719 840.84C234.333 835.108 234.475 829.064 235.342 823.2C236.25 817.004 237.673 810.899 239.589 804.945C246.994 781.897 260.562 761.189 276.592 743.237C293.631 724.154 313.999 709.784 335.617 696.393C346.985 689.351 358.353 682.309 369.713 675.268C369.955 676.589 370.797 677.803 372.414 678.344C376.681 679.768 381.235 681.123 384.579 684.28C388.356 687.847 394.071 682.146 390.286 678.573C386.338 674.843 381.376 672.88 376.326 671.156C381.502 667.892 386.733 664.512 392.574 662.627C397.69 660.972 405.235 662.415 409.382 658.661C412.639 655.705 413.669 650.225 414.919 646.209C416.483 641.224 417.835 635.966 419.822 631.122C421.174 627.812 423.141 624.633 425.623 622.07C426.712 617.872 428.711 614.038 432.241 611.706C441.481 605.591 452.83 611.666 456.896 620.385C460.255 620.375 463.796 621.112 467.064 621.313C473.783 621.737 480.512 621.929 487.24 621.909C500.405 621.868 513.58 621.011 526.634 619.265C549.978 616.137 572.625 609.83 595.576 604.915C595.707 604.612 595.858 604.31 596.04 604.007C600.983 595.712 613.3 597.114 621.059 600.253C624.387 601.595 627.777 603.29 629.683 606.439C631.701 607.801 633.446 609.456 634.606 611.202C637.007 614.805 638.863 622.07 643.736 622.676C646.944 623.069 650.202 622.454 653.461 622.918C657.536 623.483 661.188 624.916 664.951 626.551C693.601 638.993 723.219 652.829 754.312 657.652C761.604 658.783 769.029 659.953 775.365 664.04C780.509 667.36 784.485 671.921 788.731 676.251C792.867 680.469 796.277 682.336 802.178 683.093C809.341 684.011 815.545 685.989 820.781 691.196C825.129 695.525 827.963 701.055 831.373 706.081C834.845 711.207 839.938 714.093 845.224 717.07C857.723 724.114 869.365 732.621 879.503 742.823C900.86 764.338 913.792 791.988 926.826 818.932C940.919 848.076 954.094 877.573 963.234 908.694C972.192 939.251 977.518 970.685 979.98 1002.41C982.573 1035.7 982.936 1069.13 985.095 1102.44C986.174 1119.08 986.991 1135.74 987.818 1152.39C988.625 1168.84 989.806 1185.32 989.615 1201.79C989.251 1233.62 982.886 1265.56 971.758 1295.37C968.984 1302.79 965.908 1310.11 962.63 1317.31C959.753 1323.64 949.918 1322.93 946.831 1317.31C946.125 1316.02 945.57 1314.69 945.106 1313.34C937.035 1313.41 928.884 1312.78 920.864 1313.53C906.701 1314.85 892.508 1315.59 878.304 1316.46C850.197 1318.21 822.042 1319.37 793.926 1320.98C791.199 1321.13 788.471 1321.29 785.744 1321.45C805.78 1259.42 803.181 1192.35 806.352 1127.83C806.607 1122.63 798.535 1122.66 798.281 1127.83C795.098 1192.63 797.808 1259.86 777.064 1322C769.016 1322.54 760.979 1323.21 752.969 1324.18C746.494 1324.96 739.986 1325.88 733.449 1325.56C726.034 1325.2 718.791 1323.51 711.558 1322.03C698.413 1319.36 685.753 1320.57 672.557 1322.22C658.444 1323.98 644.281 1324.96 630.077 1325.58C573.2 1328.07 515.941 1330.34 459.085 1326.54C445.325 1325.62 431.595 1324.33 417.926 1322.57C403.843 1320.76 389.911 1317.73 375.839 1316C361.968 1314.3 349.216 1318.96 335.506 1319.81C321.525 1320.69 307.169 1317.78 293.318 1316.1C288.8 1315.55 284.276 1315.02 279.752 1314.49C285.577 1274.56 288.889 1234.32 292.106 1194.1C292.52 1188.91 284.447 1188.95 284.035 1194.1C280.844 1234 277.606 1273.94 271.79 1313.56C247.806 1310.77 223.799 1307.95 200.064 1303.6C193.305 1302.37 186.587 1300.36 182.542 1294.32C179.546 1289.85 178.94 1284.37 180.384 1279.23" fill="black"/>
<path fill-rule="evenodd" clip-rule="evenodd" d="M362.49 432.423C364.657 413.335 361.852 373.438 361.664 371.014C360.476 355.691 367.639 295.18 381.179 300.755C403.891 282.731 434.143 278.751 462.43 276.85C521.187 272.9 583.694 281.967 629.065 321.606C651.503 342.191 673.347 372.131 671.591 403.305C691.977 432.855 720.717 473.389 695.317 507.934C686.683 518.971 672.961 523.081 662.114 531.44C640.298 549.08 626.611 574.395 604.587 591.929C546.24 644.488 447.166 655.467 389.84 595.686C345.511 552.391 352.679 487.618 360.476 432.423C365.718 395.315 358.262 469.661 362.49 432.423Z" fill="#AE5D29"/>
<path fill-rule="evenodd" clip-rule="evenodd" d="M540.922 195.905C525.208 192.726 509.072 190.748 493.024 191.343L491.787 191.392C479.713 191.875 464.422 192.945 453.889 199.984C453.283 199.374 452.308 199.061 451.424 199.484C438.907 205.473 425.14 209.804 411.961 214.106C398.842 218.388 385.231 221.215 371.481 222.354C366.308 222.783 361.881 228.383 365.156 233.405C365.936 234.602 366.695 235.811 367.451 237.023C366.186 236.891 364.922 236.754 363.657 236.626C359.497 236.206 355.34 240.658 355.587 244.719C355.741 247.273 356.016 249.796 356.422 252.29C354.838 252.257 353.262 252.495 351.74 253.14C344.033 256.402 344.57 265.605 345.147 272.606C345.946 282.322 349.571 292.613 356.302 299.885C351.276 305.117 347.719 311.366 345.597 318.787C344.057 324.206 343.201 329.978 343.624 335.619L343.758 337.308C344.281 343.43 345.321 350.207 349.714 354.611C351.969 356.882 354.747 357.709 357.396 357.447C355.794 371.554 354.767 385.743 353.801 399.881L353.348 406.638C351.192 439.314 349.572 472.202 349.996 504.931C350.389 535.518 356.418 565.207 375.132 590.042C392.177 612.656 416.648 629.327 444.331 635.665C459.25 639.085 474.481 639.328 489.581 637.148C496.901 636.088 504.269 634.464 511.216 631.9C518.906 629.055 524.432 624.867 529.607 618.59C532.054 615.613 530.876 609.276 526.003 609.871C518.633 610.767 511.904 611.847 504.839 614.032L503.827 614.352C496.789 616.612 489.501 618.297 482.143 619.014C467.072 620.477 451.772 619.004 437.335 614.422C413.829 606.955 393.585 590.314 380.609 569.405C365.207 544.621 363.465 516.486 363.688 487.988C363.926 456.717 364.941 425.427 366.597 394.188L366.879 388.982C367.755 372.907 368.6 356.821 369.344 340.735C369.576 335.69 369.928 330.604 370.563 325.568C376.371 322.157 381.575 317.455 384.968 311.652C391.783 314.478 398.95 316.516 405.545 318.141C420.82 321.907 436.68 322.821 452.228 320.463C456.421 322.2 460.699 323.727 465.042 325.04C466.215 325.562 467.389 326.075 468.562 326.577C479.032 331.068 489.653 334.872 500.705 337.658L503.42 338.336C509.237 339.774 515.554 341.189 521.745 341.634C522.761 342.027 523.859 342.36 525.058 342.653C530.694 344.025 536.544 344.459 542.321 343.975C547.949 343.5 552.016 337.799 548.916 332.461C546.651 328.565 544.365 324.68 542.059 320.805C550.082 324.155 558.367 326.941 566.723 329.302C575.159 331.684 583.715 333.692 592.283 335.538C596.864 336.517 601.463 337.385 606.033 338.364C609.305 339.06 614.328 339.424 616.997 341.583C619.946 343.955 620.781 349.485 621.9 352.895C623.369 357.326 624.748 361.776 626.007 366.277C628.512 375.258 630.566 384.37 632.157 393.574C633.747 402.787 634.815 412.091 635.409 421.426C636.002 430.75 635.741 440.135 636.697 449.419C637.211 454.344 642.485 456.876 646.381 453.435C646.838 453.032 647.299 452.624 647.755 452.211L648.435 451.589C651.768 448.561 654.999 445.352 657.666 441.74C658.149 441.073 658.612 440.377 659.045 439.671C659.115 439.671 659.176 439.651 659.246 439.6L659.986 439.042C668.127 432.968 681.729 425.048 689.668 435.14C692.198 438.355 693.493 442.449 694.568 446.398L696.454 453.466C697.674 458.081 698.822 462.721 699.494 467.442C701.014 478.018 700.249 490.208 692.99 498.685C690.091 502.076 686.094 504.497 681.636 505.133C679.148 505.476 676.692 505.052 674.226 504.74C671.719 504.427 669.304 504.931 666.796 504.689C662.81 504.296 661.068 509.079 662.558 512.086C663.364 513.701 664.311 515.093 665.387 516.274C664.522 517.021 663.696 517.828 662.9 518.676C660.545 519.433 658.432 521.057 656.85 523.207C655.572 524.942 654.908 526.83 654.797 528.818C654.657 529.312 654.536 529.817 654.424 530.331L652.265 533.845C651.79 534.616 651.316 535.377 650.841 536.124C645.345 544.802 639.244 552.149 631.663 559.071C624.365 565.732 616.443 571.696 609.587 578.84L608.779 579.689C602.387 586.441 595.65 594.614 598.151 604.432C598.795 606.955 602.31 608.771 604.604 607.066C611.983 601.576 615.698 592.877 621.959 586.217C628.403 579.355 635.54 573.189 642.002 566.347C648.113 559.889 652.935 552.573 656.568 544.52C658.019 546.124 660.132 547.265 663.061 547.709C668.095 548.465 672.787 545.509 674.981 541.139C676.391 541.765 677.829 542.33 679.28 542.774C686.911 545.115 691.711 536.608 688.832 530.321C687.293 526.951 685.37 524.024 682.984 521.562C690.444 520.533 698.034 516.668 702.937 511.844C715.237 499.724 716.929 481.509 714.16 465.313C712.691 456.725 710.155 448.036 706.862 439.974C706.289 438.571 705.674 437.158 705.001 435.765C705.373 435.755 705.756 435.594 705.997 435.281C708.222 432.233 710.929 429.741 712.581 426.33C714.101 423.202 715.791 420.033 716.99 416.774C719.455 410.103 720.663 402.575 721.469 395.521C723.13 381.081 722.486 366.731 720.281 352.381C716.527 327.94 707.459 304.55 694.099 284.026C694.827 283.643 695.524 283.181 696.173 282.634L696.494 282.353L697.016 281.881C700.828 278.423 700.499 271.941 697.016 268.438L695.916 267.333C694.523 265.946 693.321 264.846 691.071 263.336C690.739 263.113 690.4 262.903 690.056 262.707C691.234 260.526 691.643 257.974 690.823 255.16C687.964 245.355 673.89 245.702 664.97 249.978C655.102 241.149 644.159 233.485 632.299 227.279C604.05 212.505 572.109 202.202 540.922 195.905ZM686.94 454.142C681.665 452.416 674.658 456.039 669.917 458.219C663.907 460.984 658.793 465.071 653.84 469.39C651.374 471.549 650.932 475.081 651.545 478.099C651.606 478.401 651.666 478.714 651.737 479.027C652.391 482.246 655.975 484.779 659.146 484.688C665.78 484.507 668.94 478.765 672.696 473.901C673.138 474.688 673.692 475.414 674.377 475.959L674.84 476.322C676.399 477.512 678.117 478.463 680.176 478.371C681.635 478.3 683.034 477.927 684.323 477.251C687.545 475.545 688.963 471.368 688.088 467.967C687.545 465.827 686.296 464.152 684.665 462.992L685.273 462.575C686.574 461.668 687.76 460.711 688.685 459.299L688.893 458.965H688.813C689.82 457.23 689.164 454.868 686.94 454.142Z" fill="black"/>
<path fill-rule="evenodd" clip-rule="evenodd" d="M437.778 555.695C445.21 557.848 453.187 558.04 460.762 555.817C467.632 553.8 474.687 549.361 479.744 543.487C484.236 538.269 487.145 531.929 487.031 525.16C487.018 524.387 486.742 523.742 486.317 523.241C485.859 522.702 485.22 522.332 484.535 522.171C483.831 522.006 483.087 522.064 482.453 522.352C481.879 522.613 481.388 523.056 481.08 523.703C480.303 524.724 479.529 525.731 478.752 526.709C472.503 534.427 466.452 540.195 457.056 542.264C451.958 543.386 446.867 542.888 442.195 541.176C437.194 539.342 432.674 536.118 429.131 531.993C427.531 530.128 425.641 529.367 423.792 529.354C421.698 529.34 419.628 530.313 418.069 531.869C416.536 533.399 415.509 535.477 415.416 537.651C415.335 539.559 415.957 541.552 417.612 543.331C423.065 549.188 430.132 553.479 437.778 555.695ZM438.008 459.028C430.39 463.66 418.783 474.461 426.978 485.944C436.624 496.069 450.513 484.46 457.357 479.21C463.703 475.141 470.833 485.606 464.945 490.357C415.49 526.984 395.42 460.239 434.155 453.582C438.42 452.848 440.004 457.595 438.008 459.028ZM509.269 438.647C511.717 437.08 514.597 436.543 517.79 437.995C520.284 439.13 524.659 442.913 527.704 447.885C529.787 451.287 531.264 455.278 530.956 459.436C530.885 460.401 531.241 461.113 531.804 461.639C532.248 462.055 532.89 462.36 533.644 462.456C534.283 462.537 535 462.464 535.582 462.282C536.69 461.936 537.276 461.217 537.497 460.63C539.629 454.967 538.711 448.647 536.321 442.945C533.097 435.25 527.241 428.805 523.405 426.727C516.84 423.17 509.095 423.006 502.521 426.63C496.925 429.714 493.425 434.694 489.945 439.77C489.205 440.849 488.471 441.92 487.712 442.972C486.191 445.081 486.04 447.172 486.629 448.965C487.281 450.952 488.945 452.628 491.025 453.506C492.948 454.317 495.18 454.431 497.155 453.598C498.823 452.894 500.354 451.522 501.323 449.194C502.955 445.273 505.673 440.947 509.269 438.647V438.647ZM384.918 447.37C386.595 448.244 387.907 448.507 389.767 447.95C390.795 447.641 391.812 447.048 392.608 446.252C393.397 445.463 393.966 444.482 394.187 443.393C394.731 440.707 396.201 438.192 398.295 436.552C400.085 435.151 402.344 434.408 404.85 434.827C407.554 435.279 410.13 437.014 411.904 439.059C412.497 439.743 412.962 440.52 413.43 441.293C414.304 442.736 415.154 444.078 416.359 445.139C416.816 445.542 417.505 445.821 418.172 445.821C418.443 445.821 418.718 445.777 418.98 445.695C421.672 442.993 422.189 440.943 422.103 438.91C422.012 436.778 421.171 434.619 419.813 432.605C416.628 427.881 410.58 424.007 406.499 423.129C400.909 421.928 395.359 423.37 390.908 426.493C386.329 429.706 382.936 434.695 381.878 440.317C381.624 441.671 381.732 443.132 382.247 444.399C382.751 445.638 383.629 446.698 384.918 447.37ZM496.942 388.273C500.296 391.542 504.266 392.049 508.283 392.499C510.514 392.752 512.296 392.955 514.049 393.351C518.867 394.439 523.63 396.078 527.975 398.438C532.517 400.905 537.468 403.88 541.029 407.692C541.876 408.599 542.674 409.55 543.473 410.504C544.202 411.374 544.904 412.211 545.644 413.019C546.494 413.946 547.301 414.918 548.104 415.887C548.6 416.705 548.698 416.906 548.798 417.116C548.949 417.431 549.124 417.783 549.324 418.161C549.597 418.678 549.918 419.244 550.254 419.758C550.812 420.697 551.112 420.955 551.371 421.071C551.801 421.262 552.208 421.357 552.604 421.305C552.975 421.258 553.324 421.079 553.669 420.788C555.391 419.332 555.899 416.944 555.847 414.408C555.768 410.561 554.349 406.301 553.041 403.682C550 397.597 545.783 391.272 540.712 386.73C534.925 381.547 528.595 377.622 521.323 374.918C516.805 373.237 511.573 371.694 506.65 371.889C503.106 372.029 499.723 373.083 496.929 375.714C495.214 377.329 494.391 379.627 494.391 381.923C494.391 384.265 495.246 386.62 496.942 388.273ZM378.096 418.209C378.31 418.559 378.605 418.8 378.933 418.945C379.278 419.096 379.662 419.14 380.031 419.078C380.398 419.016 380.748 418.849 381.025 418.595C381.29 418.351 381.492 418.027 381.583 417.631C383.81 407.847 388.134 400.567 397.363 395.873C401.903 393.564 407.124 392.097 412.066 390.927C413.502 390.587 415.02 390.366 416.548 390.143C421.338 389.444 426.162 388.642 429.284 384.77C431.166 382.437 431.955 379.453 431.509 376.725C431.089 374.156 429.588 371.8 426.86 370.389C420.068 366.876 411.628 370.323 404.769 373.259C404.261 373.477 403.761 373.691 403.272 373.897C396.565 376.729 390.448 380.467 385.42 385.813C381.43 390.055 377.733 396.325 376.244 402.775C375.006 408.141 375.297 413.619 378.096 418.209Z" fill="black"/>
<path fill-rule="evenodd" clip-rule="evenodd" d="M416.641 571.994C426.036 563.621 436.567 546.788 450.064 560.107C453.402 563.87 454.754 572.306 459.859 573.961C466.638 576.161 473.356 568.986 475.666 563.476C485.119 532.862 446.044 524.465 423.784 529.411C412.909 533.879 404.899 551.861 404.415 561.246C404.102 567.553 409.439 576.827 416.641 571.994M345.763 524.807C345.855 524.4 345.983 524.033 346.137 523.698C350.292 522.127 353.58 523.73 355.612 526.723C355.545 527.467 355.323 528.22 355.183 528.958C356.751 532.262 358.165 536.35 360.29 539.205C360.709 539.237 361.144 539.193 361.562 539.072C396.782 542.751 379.587 505.888 415.31 496.732C442.924 492.175 492.833 497.395 505.86 526.147C516.134 572.07 568.372 540.071 585.524 516.188C603.825 494.452 615.658 467.891 627.068 442.118C629.479 436.664 637.003 440.564 636.185 445.797C646.731 466.96 646.38 492.38 648.992 515.564C653.435 561.817 657.763 626.682 614.802 654.925C558.826 718.215 419.048 740.549 354.487 682.397C332.138 634.332 334.893 575.694 345.763 524.807" fill="black"/>
<path fill-rule="evenodd" clip-rule="evenodd" d="M382.529 383.982C358.851 383.982 345.338 389.075 340.386 389.472L340.237 389.483C338.178 389.615 336.33 389.787 334.392 390.537C327.264 393.283 326.103 400.761 330.263 405.474C330.554 415.226 329.272 426.62 331.472 436.404C334.186 477.648 353.576 484.608 364.598 487.148C370.131 488.424 376.69 488.932 382.568 487.585C392.595 487.211 402.508 484.071 410.99 478.603C422.802 470.982 431.575 459.269 434.422 445.367C435.772 438.741 436.402 431.844 435.668 425.108L435.559 424.18C439.399 422.343 443.848 421.996 448.434 421.833C450.625 421.755 452.785 421.685 454.883 421.779C456.933 422.008 458.959 422.313 460.992 422.728C463.211 423.398 465.307 424.503 467.242 426.254L467.375 428.81C467.739 435.194 468.577 441.597 469.869 447.86C471.777 457.101 474.846 465.927 481.379 472.482C483.59 475.785 486.326 478.734 489.647 481.288C501.713 490.58 518.106 493.992 533.15 492.707C563.694 490.1 581.348 465.846 585.417 455.479L585.66 454.851C588.599 447.144 590.942 437.144 600.229 435.488L602.204 435.133C606.442 434.337 610.353 433.229 612.838 429.093C613.927 427.287 614.487 425.267 614.625 423.208C616.074 423.32 617.522 423.426 618.965 423.53C630.474 425.964 699.504 428.029 705.014 428.029C705.014 428.029 715.605 432.488 720.077 429.033C723.176 426.63 724.196 423.428 722.49 419.801C719.915 414.343 708.038 411.06 702.764 410.02C702.764 410.02 617.657 410.727 611.531 409.565C607.741 405.656 600.962 406.191 595.297 405.573C590.607 402.228 584.047 399.988 578.865 398.488C577.809 398.088 576.763 397.701 575.746 397.336C566.246 393.952 556.371 392.159 546.346 391.196C536.008 390.214 525.639 390.658 515.361 392.067C511.03 392.655 506.74 393.415 502.479 394.409C494.85 395.415 487.266 397.072 479.634 399.037L478.107 399.435C470.071 401.542 461.813 403.365 453.494 401.936C446.721 400.781 440.208 398.173 433.963 395.354L433.15 394.985C419.42 388.714 397.977 383.982 382.529 383.982ZM503.305 406.912C508.371 405.797 510.535 413.611 505.452 414.728C501.853 415.52 498.803 417.335 496.742 420.411L496.525 420.745C493.76 425.147 486.768 421.084 489.552 416.653C492.685 411.668 497.553 408.176 503.305 406.912ZM354.924 402.067C356.71 400.809 359.413 401.743 360.449 403.521C361.591 405.479 360.843 407.66 359.17 408.941L359 409.066C357.465 410.148 355.971 412.087 355.783 414.073L355.767 414.322C355.566 419.521 347.488 419.547 347.69 414.322C347.887 409.21 350.846 404.939 354.924 402.067Z" fill="black"/>
<path fill-rule="evenodd" clip-rule="evenodd" d="M1514.65 819.198C1505.86 785.089 1497.77 770.627 1482.15 758.772C1467.54 747.683 1446.21 738.37 1415.1 731.567C1382.68 725.899 1381.76 709.051 1373.64 681.972C1371.27 673.831 1359.52 671.665 1354.45 677.533C1353.73 676.761 1352.99 676.054 1352.21 675.415C1352.91 671.533 1347.25 660.405 1347.44 656.691C1349.41 617.928 1336.74 598.462 1305.09 591.226C1298.21 589.652 1251.47 588.725 1244.76 590.58C1215.43 598.691 1186.56 624.443 1190.98 655.464C1181.77 667.499 1172.76 674.844 1158.55 678.721C1136.43 681.53 1147.54 994.967 1185.96 1182.75C1202.45 1263.32 1596.6 1126.19 1578.79 1085.83C1581.31 1078.44 1576.71 1070.31 1578.79 1062.67C1580.29 1057.14 1584.14 1054.86 1586.08 1049.38C1588.8 1041.68 1585.84 1031.35 1582.77 1023.49C1581.51 1019.57 1585.08 1015.35 1586.08 1011.36C1590.79 992.503 1580 994.165 1572.23 981.561C1572.34 981.522 1574.36 972.524 1574.35 972.569C1575.54 966.145 1572.56 957.915 1569.96 952.553C1568.2 948.928 1564.44 946.66 1560.69 947.076C1564.46 934.279 1569.23 923.631 1574.35 911.302C1583.42 889.57 1592.04 866.835 1605.06 847.164C1610.39 839.109 1606.08 831.701 1597.46 831.152C1569.53 829.378 1541.92 825.357 1514.65 819.198Z" fill="#AE5D29"/>
<path fill-rule="evenodd" clip-rule="evenodd" d="M1471.06 821.833L1407.33 929.718C1407.33 929.718 1422.45 931.227 1428.57 934.167C1434.69 937.108 1462.78 972.832 1462.78 972.832L1467.25 992.503L1456.67 1008.36L1460.79 1018.32C1460.79 1018.32 1463.74 1011.57 1471.06 1006.34C1478.39 1001.1 1494.55 992.503 1494.55 992.503C1494.55 992.503 1489.18 989.629 1489.18 986.256C1489.18 982.882 1484.45 968.49 1494.55 963.053C1504.65 957.617 1556.85 944.893 1556.85 944.893L1609.74 833.292L1471.06 821.833Z" fill="#EC7495"/>
<path fill-rule="evenodd" clip-rule="evenodd" d="M1186.74 679.453L1389.12 714.98L1482.15 758.772L1497.34 770.474L1407.33 929.718L1268.34 955.081L1232.94 1047.07L1240.16 1150.77L1466.26 1123.8L1563.79 1112.21L1586.72 1204.79L1582.58 1242.87L1576.55 1262.18L1334.77 1327.47C1334.77 1327.47 1211.65 1315.54 1189.83 1315.54C1168.01 1315.54 1007.99 1331.43 1007.99 1331.43L970.967 1327.47C970.967 1327.47 889.054 1241.12 876.349 1210.39C863.645 1179.66 836.172 992.84 836.172 992.84L839.197 964.136L909.968 781.971C909.968 781.971 919.419 773.387 931.333 758.772C943.248 744.157 1186.74 679.453 1186.74 679.453Z" fill="#9DDADB"/>
<path fill-rule="evenodd" clip-rule="evenodd" d="M1553.03 942.593C1534.74 943.523 1516.43 947.872 1499.89 955.752C1493.12 958.982 1486.98 963.644 1485.19 971.313C1484.28 975.23 1484.5 979.276 1484.98 983.232C1485.35 986.228 1485.44 990.053 1488.04 992.081C1488.49 992.424 1488.96 992.687 1489.45 992.878C1483.35 995.633 1477.54 998.944 1472.37 1002.35C1467.65 1005.47 1462.8 1010.28 1460.62 1015.69C1460.44 1015.08 1460.26 1014.51 1460.08 1013.96C1456.37 1002.98 1450.65 993.989 1441.64 987.944C1440.61 984.215 1429.64 968.165 1419.44 968.771C1408.27 969.427 1399.29 970.243 1389.19 975.38C1385.51 975.299 1381.83 975.35 1378.2 975.511C1377.58 975.531 1377.61 976.38 1378.2 976.45C1381.15 976.824 1384.1 977.237 1387.04 977.721C1394.04 978.842 1401.02 980.264 1407.85 982.03C1416.04 984.15 1424.52 986.279 1432.17 989.982C1447.02 997.178 1456.21 1015.99 1454.33 1032.36C1454.02 1035.04 1452.98 1043.15 1449.25 1042.32C1446.11 1041.61 1444.86 1035.04 1443.76 1032.61C1440.81 1026.15 1435.5 1021.93 1429.14 1019.08C1421.66 1015.72 1413.66 1013.44 1405.91 1010.8C1401.53 1009.3 1397.14 1007.79 1392.74 1006.3C1388.24 1004.76 1383.96 1002.63 1379.17 1003.71C1376.28 1004.36 1375.94 1007.81 1377.57 1009.79C1380.04 1012.81 1383.71 1013.7 1387.27 1014.94C1391.97 1016.57 1396.66 1018.21 1401.36 1019.84C1408.61 1022.37 1416.21 1024.49 1423.28 1027.58L1423.06 1028.09C1422.48 1027.93 1421.8 1028.5 1421.92 1029.21C1422.97 1035.74 1424.45 1043.28 1422.81 1049.82C1421.52 1055.01 1416.97 1060.75 1411.06 1059.23C1411.99 1058.38 1412.33 1056.92 1411.71 1055.57C1409.36 1050.56 1378.7 1030.8 1375.96 1038.14C1375.87 1038.4 1376.15 1038.59 1376.38 1038.55C1378.71 1038.07 1382.61 1042.04 1384.48 1043.3C1387.17 1045.12 1389.9 1046.9 1392.57 1048.76C1395.48 1050.8 1398.33 1052.94 1401.1 1055.15C1403.28 1056.89 1404.93 1058.69 1407.43 1059.57C1406.12 1060.2 1405.08 1061.36 1404.63 1062.84C1403.5 1066.71 1401.33 1069.99 1397.54 1071.69C1393.58 1073.47 1389.11 1072.35 1384.93 1072.78C1379.24 1073.36 1374.28 1076.06 1370.13 1079.93C1361.43 1088.06 1357.06 1102.39 1344.88 1106.23C1337.61 1108.53 1329.54 1107.08 1322.17 1106.04C1313.95 1104.88 1305.94 1103.96 1297.66 1105.17C1289.73 1106.34 1282.24 1109.08 1274.99 1112.43C1268.2 1115.57 1260.7 1119.12 1254.68 1123.8C1253.43 1119.98 1252.18 1116.19 1251.23 1112.29C1249 1103.06 1247.79 1093.65 1247.49 1084.16C1247.22 1075.13 1247.73 1066.06 1248.5 1057.07C1248.89 1052.58 1249.49 1048.11 1249.87 1043.62C1249.97 1042.49 1250.18 1041.28 1250.33 1040.07C1261.08 1033.72 1272.38 1028.85 1283.77 1023.85C1283.8 1023.84 1283.83 1023.82 1283.86 1023.81C1284.21 1023.65 1284.56 1023.5 1284.91 1023.35C1284.9 1023.32 1284.89 1023.3 1284.87 1023.28C1286.17 1022.49 1287.08 1021.43 1287.62 1020.24C1304.04 1009.35 1317.76 994.484 1327.99 977.146C1332.27 969.88 1336.4 962.342 1342.01 955.975C1347.98 949.183 1355.07 945.146 1363.85 943.047C1374.11 940.586 1384.68 939.112 1395.19 938.274C1400.93 937.821 1407.35 937.114 1413.6 937.145C1417.96 937.174 1422.23 937.548 1426.14 938.627C1431.94 940.222 1435.33 944.633 1438.97 949.092C1442.45 953.372 1445.91 957.661 1449.16 962.121C1452.24 966.348 1455.15 970.718 1457.67 975.299C1459.18 978.044 1460.58 980.871 1461.76 983.786C1462.18 984.816 1462.72 985.986 1462.97 987.056C1463.23 988.135 1462.76 989.277 1463.97 989.277C1458.98 989.346 1455.66 1001.8 1460.62 1001.51C1467.6 1001.1 1471.11 992.735 1469.74 985.31C1467.3 972.063 1454.13 956.064 1451.52 952.674C1445.76 945.187 1439.82 935.418 1430.6 931.937C1430.47 931.886 1430.33 931.837 1430.2 931.796C1432.88 929.253 1435 926.206 1437.03 923.107C1439.12 919.918 1441.61 916.265 1442.29 912.481C1442.73 910.07 1439.73 908.696 1438.31 910.806C1436.24 913.883 1435.24 917.779 1433.7 921.16C1432.12 924.59 1430.21 927.83 1428.69 931.291C1425.05 930.171 1421.12 929.657 1417.11 929.486C1422.17 922.644 1430.8 909.443 1431.84 907.748C1436.62 899.897 1441.17 891.805 1445.52 883.7C1450.22 874.921 1454.25 865.778 1458.75 856.898C1461.3 851.863 1463.87 846.786 1466.71 841.902C1467.68 840.227 1468.73 838.552 1469.92 837.028C1470.16 836.726 1470.45 836.474 1470.72 836.19C1471.03 836.019 1471.36 835.827 1471.54 835.727C1473.17 834.789 1473.75 832.609 1474.9 831.225C1476.73 828.996 1478.89 828.734 1481.66 828.703C1487.55 828.642 1493.46 828.874 1499.34 829.036C1507.99 829.278 1516.62 829.621 1525.26 830.075C1527.87 830.216 1530.47 830.358 1533.09 830.519C1545.64 831.267 1558.19 832.245 1570.71 833.446C1581.79 834.505 1592.87 836.232 1603.95 837.059C1588.94 872.732 1572.3 907.759 1553.45 941.565C1553.26 941.907 1553.12 942.25 1553.03 942.593ZM1469.74 1034.49C1467.32 1035.61 1464.97 1036.99 1462.78 1038.56C1463.14 1036.11 1463.24 1033.53 1463.13 1030.93C1464.94 1032.87 1467.25 1033.98 1469.74 1034.49ZM1573.09 973.131C1572.92 973.15 1572.76 973.241 1572.68 973.412C1569.33 980.325 1570.73 988.045 1576.2 993.464C1579.07 996.289 1585.31 999.478 1585.11 1004.12C1584.94 1007.87 1580.85 1011.02 1579.11 1014.12C1577.48 1017.01 1576.88 1020.18 1578.18 1023.3C1579.84 1027.31 1584.49 1028.9 1586.09 1032.84C1588.11 1037.84 1584.83 1043.86 1582.53 1048.21C1580.39 1052.24 1577.62 1056.26 1575.79 1060.52C1563.49 1066.89 1535.59 1078.45 1532.23 1079.1C1528.13 1079.9 1524.03 1080.65 1519.91 1081.36C1512.01 1082.73 1504.09 1084 1496.15 1085.12C1491.63 1085.76 1487.1 1086.38 1482.57 1086.88C1478.62 1087.3 1474.16 1087.88 1470.97 1084.9C1464.55 1078.89 1468.15 1068.81 1472.21 1062.73C1472.29 1062.61 1472.29 1062.5 1472.26 1062.4C1476.1 1061.5 1479.92 1060.45 1483.73 1059.71C1491.07 1058.3 1498.45 1057.11 1505.85 1056.05C1521.04 1053.88 1536.33 1052.45 1551.61 1051.01C1555.39 1050.64 1555.43 1044.69 1551.61 1045.04C1529.66 1047.05 1507.61 1048.96 1485.96 1053.19C1480.54 1054.23 1475.15 1055.42 1469.79 1056.77C1467.26 1057.39 1464.55 1058.37 1461.89 1058.4C1461.73 1058.4 1461.57 1058.4 1461.41 1058.39C1456.21 1058.23 1455.46 1053.78 1458.31 1050.08C1458.67 1049.62 1459.03 1049.17 1459.4 1048.73C1464.45 1042.72 1470.73 1038.7 1477.21 1034.55C1484.46 1033.56 1491.69 1031.36 1498.8 1029.74C1516.33 1025.75 1533.86 1021.75 1551.41 1017.76C1554.84 1016.98 1553.38 1011.69 1549.94 1012.47C1536.63 1015.48 1523.31 1018.5 1509.99 1021.52L1490.5 1025.94C1486.61 1026.82 1481.75 1028.58 1477.17 1029.22C1474.91 1029.53 1472.72 1029.57 1470.74 1029.11C1464.36 1027.59 1464.03 1019.61 1466.79 1014.87C1469.87 1009.54 1475.7 1006.21 1480.88 1003.19C1489.85 997.954 1499.39 994.19 1508.71 989.851C1510.37 989.488 1512.02 989.124 1513.68 988.761C1523.3 986.642 1534.3 985.602 1543.35 981.718C1546.07 980.567 1544.58 976.288 1541.9 976.349C1534.87 976.501 1527.52 979.003 1520.65 980.486C1513.21 982.101 1505.77 983.705 1498.33 985.31C1497.59 985.471 1493.17 986.884 1492.5 986.571C1492.08 986.369 1491.93 984.897 1491.78 983.927C1491.33 980.738 1491 977.389 1491.49 974.189C1492.58 967.014 1498.56 963.644 1504.62 960.889C1518.09 954.763 1532.87 950.93 1547.58 949.395C1550.97 949.042 1554.36 948.821 1557.77 948.709C1561.77 948.587 1565.07 947.881 1567.1 951.827C1570.29 958.043 1572.05 966.036 1573.09 973.131ZM1554.38 1198.51C1551.44 1188.35 1552.24 1177.51 1550.23 1167.14C1549.19 1161.8 1547.77 1156.49 1546.22 1151.27C1544.98 1147.06 1542.89 1142.57 1542.66 1138.17C1542.64 1137.88 1542.99 1137.71 1543.23 1137.85C1547.37 1140.22 1550.55 1145.35 1552.91 1149.38C1555.74 1154.2 1557.9 1159.24 1559.64 1164.55C1563.12 1175.11 1565.97 1187.86 1561.49 1198.51C1560.16 1201.68 1555.48 1202.32 1554.38 1198.51ZM1439.77 1275.43C1435.39 1272.37 1432.2 1268.1 1428.49 1264.33C1424.84 1260.63 1430.55 1254.92 1434.2 1258.62C1437.37 1261.84 1440.11 1265.85 1443.84 1268.46C1445.63 1269.71 1446.47 1271.97 1445.29 1273.98C1444.25 1275.75 1441.56 1276.67 1439.77 1275.43ZM1415.36 1158.02C1423.35 1154.56 1431.21 1150.8 1439.57 1148.31C1444.57 1146.82 1446.68 1154.62 1441.72 1156.09C1434.02 1158.39 1426.79 1161.81 1419.44 1164.99C1414.71 1167.03 1410.61 1160.07 1415.36 1158.02ZM1331 1155.6C1329.04 1150.78 1336.85 1148.7 1338.78 1153.45C1341 1158.92 1343.54 1164.26 1345.75 1169.73C1347.7 1174.55 1339.9 1176.63 1337.97 1171.87C1335.75 1166.4 1333.21 1161.07 1331 1155.6ZM1247.73 1251.89C1246.42 1253.63 1244.25 1254.57 1242.2 1253.34C1240.49 1252.31 1239.44 1249.57 1240.76 1247.82C1244.6 1242.69 1248.5 1237.62 1253.01 1233.05C1256.66 1229.34 1262.37 1235.05 1258.72 1238.76C1254.69 1242.84 1251.16 1247.31 1247.73 1251.89ZM1235.82 711.609C1239.52 714.14 1242.77 717.215 1245.93 720.378C1249.61 724.057 1243.9 729.764 1240.23 726.086C1237.56 723.42 1234.87 720.713 1231.75 718.58C1229.94 717.347 1229.13 715.053 1230.3 713.057C1231.34 711.269 1234.02 710.38 1235.82 711.609ZM1356.97 841.522C1354.87 845.717 1352.99 849.829 1352.87 854.597C1352.74 859.791 1344.67 859.794 1344.8 854.597C1344.95 848.357 1347.25 842.946 1350 837.447C1352.32 832.792 1359.28 836.886 1356.97 841.522ZM1401.42 737.184C1405.76 734.291 1409.79 741.287 1405.49 744.155C1402.01 746.479 1398.52 748.805 1395.03 751.131C1390.69 754.023 1386.66 747.027 1390.96 744.159C1394.44 741.834 1397.93 739.509 1401.42 737.184ZM1208.62 919.608C1207.88 924.739 1200.1 922.544 1200.84 917.463C1201.97 909.61 1203.36 901.861 1205.49 894.211C1206.88 889.206 1214.66 891.345 1213.27 896.358C1211.14 904.007 1209.75 911.756 1208.62 919.608ZM1180.32 1012.09C1175.13 1011.98 1175.13 1003.9 1180.32 1004.01C1185.02 1004.11 1189.65 1005.35 1194.18 1006.48C1199.22 1007.74 1197.07 1015.53 1192.04 1014.27C1188.2 1013.31 1184.3 1012.17 1180.32 1012.09ZM1169.88 1198.37C1168.09 1199.24 1166.26 1200.02 1164.46 1200.85C1160.85 1202.5 1157.24 1204.15 1153.63 1205.81C1146.11 1209.26 1138.59 1212.73 1131.08 1216.21C1116.05 1223.17 1100.9 1229.88 1085.84 1236.76C1070.47 1243.79 1055.15 1250.9 1039.84 1258.05C1032.63 1261.42 1025.37 1264.66 1018.11 1267.94C1011.91 1270.75 1004.25 1275.65 997.444 1276.11C997.094 1276.13 996.977 1275.69 997.177 1275.46C999.748 1272.54 1003.85 1270.84 1007.23 1268.93C1010.68 1266.99 1014.2 1265.16 1017.7 1263.31C1025 1259.44 1032.3 1255.61 1039.67 1251.87C1054.41 1244.41 1069.18 1237.01 1083.95 1229.61C1099.01 1222.06 1114.05 1214.47 1129.25 1207.19C1136.4 1203.76 1143.57 1200.35 1150.73 1196.94C1154.61 1195.1 1158.5 1193.25 1162.38 1191.42C1164.06 1190.62 1165.72 1189.77 1167.43 1189.05C1169.71 1188.11 1171.45 1188.3 1173.8 1187.72C1177.63 1186.78 1179.29 1191.65 1176.35 1193.78C1173.92 1195.52 1172.65 1197.02 1169.88 1198.37ZM1116 1281.15C1115.17 1279.14 1116.91 1276.69 1118.82 1276.19C1121.11 1275.58 1122.95 1276.97 1123.78 1279C1126 1284.39 1129.15 1289.33 1133.2 1293.5C1136.83 1297.23 1131.13 1302.94 1127.5 1299.21C1122.41 1293.98 1118.76 1287.87 1116 1281.15ZM1076.36 1151.57C1072.69 1147.89 1078.39 1142.18 1082.07 1145.86L1092.53 1156.32C1096.21 1160 1090.5 1165.71 1086.82 1162.03L1076.36 1151.57ZM969.058 1134.51C961.539 1136.72 952.768 1138.74 947.642 1145.16C947.391 1145.48 946.971 1145.07 947.121 1144.76C953.684 1131.15 972.507 1126.37 985.538 1121.61C994.756 1118.23 1004.21 1115.44 1013.75 1112.94C1012.8 1102.05 1015.43 1090.39 1016.34 1079.56C1017.32 1068 1018.11 1056.4 1018.52 1044.8C1018.93 1032.97 1019.03 1021.06 1018.65 1009.23C1018.26 997.434 1016.73 985.786 1016.06 974.034C1015.99 972.897 1017.57 972.843 1017.92 973.782C1021.88 984.688 1023.57 996.768 1024.86 1008.27C1026.18 1020.11 1026.63 1031.93 1026.46 1043.84C1026.28 1056.09 1025.57 1068.31 1024.59 1080.52C1024.13 1086.31 1023.59 1092.09 1023.08 1097.88C1022.7 1102.29 1022.52 1106.67 1021.62 1110.94C1027.37 1109.53 1033.13 1108.2 1038.88 1106.9C1057.21 1102.76 1075.61 1098.92 1093.86 1094.45C1102.82 1092.25 1111.65 1089.62 1120.56 1087.29C1128.96 1085.09 1137.83 1082.42 1146.45 1081.44C1149.52 1081.09 1149.91 1085.3 1147.88 1086.73C1140.87 1091.65 1131.56 1095.08 1123.47 1097.83C1115.35 1100.6 1106.9 1102.59 1098.58 1104.63C1081.22 1108.91 1063.69 1112.4 1046.19 1116.04C1028.71 1119.67 1011.2 1123.28 993.922 1127.76C985.601 1129.92 977.307 1132.09 969.058 1134.51ZM927.852 918.532C923.359 921.171 919.302 914.191 923.779 911.561C929.637 908.122 935.881 905.538 942.175 903.017C947.005 901.084 949.083 908.894 944.321 910.803C938.664 913.067 933.116 915.443 927.852 918.532ZM911.582 1218.46C907.077 1221.08 903.017 1214.1 907.509 1211.49C913.818 1207.83 920.728 1205.39 927.266 1202.19C931.917 1199.91 936.003 1206.88 931.338 1209.16C924.801 1212.36 917.891 1214.8 911.582 1218.46ZM904.264 1048.21C908.62 1052.35 914.434 1054.3 919.916 1056.47C924.695 1058.36 922.599 1066.17 917.77 1064.26C910.94 1061.55 903.984 1059.07 898.557 1053.92C894.782 1050.33 900.499 1044.63 904.264 1048.21ZM952.456 816.991C957.244 818.87 955.147 826.674 950.31 824.776C944.945 822.671 939.405 821.068 934.04 818.963C929.252 817.084 931.348 809.281 936.186 811.178C941.55 813.283 947.091 814.886 952.456 816.991ZM1037.47 725.151C1042.56 724.294 1044.73 732.074 1039.62 732.937C1033.28 734.008 1027.03 735.26 1021.02 737.587C1016.17 739.466 1014.08 731.657 1018.88 729.803C1024.89 727.475 1031.13 726.222 1037.47 725.151ZM1065.56 948.758C1060.89 946.463 1064.99 939.504 1069.63 941.788C1074.53 944.195 1079.6 946.056 1084.94 947.193C1090.03 948.277 1087.86 956.058 1082.79 954.978C1076.78 953.697 1071.06 951.466 1065.56 948.758ZM1092.09 822.803C1097.11 821.427 1099.24 829.216 1094.24 830.589C1085.43 833 1076.37 834.255 1067.51 836.401C1062.45 837.624 1060.32 829.838 1065.36 828.617C1074.23 826.469 1083.29 825.217 1092.09 822.803ZM1204.64 783.277C1209.75 784.223 1207.57 792.002 1202.49 791.063C1197.09 790.063 1191.61 790.047 1186.13 790.044C1180.93 790.042 1180.94 781.969 1186.13 781.971C1192.36 781.974 1198.5 782.142 1204.64 783.277ZM1571.7 825.454C1558.52 824.193 1545.31 823.184 1532.09 822.427C1531.47 822.395 1530.87 822.356 1530.25 822.325C1530.18 822.185 1530.09 822.052 1530 821.911C1525.68 815.574 1522.5 809.237 1519.75 802.072C1517.12 795.25 1514.56 788.217 1510.51 782.061C1505.88 775.048 1499.64 769.56 1492.79 764.804C1488.64 767.597 1484.79 770.866 1481.27 774.332C1477.56 777.977 1471.85 772.27 1475.56 768.623C1478.69 765.543 1482.03 762.698 1485.57 760.128C1481.49 757.648 1477.32 755.316 1473.26 752.997C1458.04 744.31 1442.45 736.276 1426.55 728.931C1419.15 725.509 1411.67 722.471 1404.13 719.393C1400.07 717.739 1396.07 715.609 1392.01 713.693C1392.31 710.826 1391.45 707.617 1389.25 705.73C1387.63 704.347 1386.36 703.833 1384.43 702.855C1383.99 702.702 1383.73 702.611 1383.61 702.561C1383.7 702.581 1383.96 702.662 1384.4 702.803C1385.43 703.278 1385.51 703.136 1384.64 702.389C1384.59 700.756 1381.37 697.304 1380.63 695.619C1378.07 689.836 1377.28 683.72 1373.49 678.453C1368.28 671.197 1359.52 668.453 1351.36 670.915C1350.51 662.186 1350.29 653.074 1347 645.283C1346.91 645.072 1346.62 644.98 1346.49 645.212C1343.06 651.056 1342.76 657.564 1342.5 664.305C1342.25 670.632 1342.49 677.101 1343.32 683.387C1342.79 683.791 1342.26 684.176 1341.71 684.548C1339.1 686.264 1336.3 687.585 1333.35 688.565C1327.74 690.421 1321.86 691.228 1315.98 691.511C1300.8 692.238 1285.15 690.704 1270.22 688.1C1255.12 685.466 1231.97 681.51 1218.53 673.952C1209.66 668.968 1201.48 662.882 1193.19 656.989C1196.2 647.301 1196.96 636.887 1193.94 628.703C1193.57 627.724 1192.04 627.542 1191.75 628.703C1189.85 636.513 1189.3 644.364 1186.77 652.084C1186.73 652.195 1186.69 652.317 1186.65 652.427C1185.87 651.893 1185.08 651.368 1184.29 650.843C1182.48 649.642 1180 650.541 1178.91 652.256C1161.49 679.714 1133.9 681.288 1104.93 686.194C1073.22 691.561 1041.35 697.354 1010.87 707.859C981.714 717.911 953.851 732.543 931.778 754.401C926.782 759.35 922.109 764.623 917.698 770.127C921.966 770.665 926.197 771.503 930.375 772.816C935.321 774.37 933.196 782.161 928.229 780.6C922.86 778.913 917.432 778.078 911.948 777.663C896.95 798.186 885.256 821.458 875.144 844.364C855.748 888.283 843.123 935.054 837.313 982.672C840.503 980.76 843.75 978.938 847.078 977.244C851.702 974.892 855.781 981.859 851.152 984.215C846.011 986.831 841.017 989.714 836.179 992.84C834.066 1013.68 833.246 1034.66 833.743 1055.61C834.923 1105.54 841.662 1156.93 856.905 1204.57C864.38 1227.96 874.286 1251.15 889.045 1270.91C895.724 1279.86 903.31 1287.93 912.248 1294.66C916.576 1297.93 921.155 1300.85 925.988 1303.31C932.212 1306.5 940.323 1307.55 945.69 1312.06C947.455 1313.54 948.817 1315.5 949.846 1317.71C949.251 1321.91 949.18 1326.11 950.33 1330.31C950.693 1331.62 951.682 1332.69 952.902 1333.21C952.923 1333.57 952.923 1333.92 952.923 1334.27C952.923 1334.43 953.165 1334.47 953.195 1334.31C953.245 1334 953.296 1333.68 953.346 1333.36C953.74 1333.49 954.153 1333.55 954.577 1333.55C969.901 1333.61 985.244 1333.24 1000.59 1332.72C999.401 1329.08 998.116 1325.48 996.882 1321.84C995.207 1316.9 1003 1314.8 1004.66 1319.69C1006.11 1323.94 1007.62 1328.16 1008.96 1332.42C1025.4 1331.81 1041.84 1331.08 1058.24 1330.54C1093.14 1329.37 1128.02 1328.99 1162.92 1328.25C1217.13 1327.11 1271.73 1324.75 1326.01 1327.05C1327.89 1323.07 1329.99 1319.17 1331.99 1315.24C1334.34 1310.6 1341.3 1314.69 1338.95 1319.32C1337.57 1322.05 1336.13 1324.75 1334.77 1327.47C1345.77 1328.04 1356.75 1328.8 1367.71 1329.83C1386.41 1331.58 1404.94 1334.7 1423.62 1336.64C1442.61 1338.62 1461.2 1338.27 1480.04 1335.13C1483.43 1334.56 1485.43 1332.51 1486.26 1329.97C1486.29 1329.96 1486.31 1329.94 1486.33 1329.91C1487.29 1328.78 1488.2 1327.84 1489.14 1327.02C1490.26 1326.3 1491.47 1325.68 1492.89 1325.14C1495.55 1324.13 1498.31 1323.51 1501.12 1323.1C1504.2 1322.63 1507.33 1322.59 1510.42 1322.21C1513.02 1321.88 1515.56 1321.38 1518.1 1320.78C1522.67 1319.69 1527.01 1318.26 1531.33 1316.38C1535.09 1314.73 1538.49 1312.37 1541.7 1309.8C1548.34 1304.94 1554.09 1298.75 1559.11 1292.31C1562.04 1288.54 1564.79 1284.64 1567.29 1280.57C1571.65 1273.53 1575.36 1266.21 1579.12 1258.84C1580.48 1256.65 1581.72 1254.41 1582.86 1252.13C1575.52 1249.96 1568.12 1248.2 1560.34 1248.08C1555.15 1247.99 1555.15 1239.92 1560.34 1240C1569.26 1240.15 1577.7 1242.23 1586.08 1244.71C1586.48 1243.63 1586.88 1242.53 1587.24 1241.43C1588.24 1239.12 1589.06 1236.75 1589.75 1234.34C1590.15 1233.25 1590.56 1232.16 1590.96 1231.07C1591.87 1227.3 1592.78 1223.52 1593.69 1219.73C1595.52 1213.68 1596.96 1207.53 1598.02 1201.3C1598.91 1197.21 1599.6 1193.08 1600.06 1188.9C1601.47 1178.78 1602.62 1168.68 1602.7 1158.45C1602.58 1152.14 1602.18 1145.84 1601.49 1139.58C1601.2 1135.32 1600.71 1131.08 1600.04 1126.87C1599.17 1120.61 1598.31 1114.42 1596.87 1108.24C1595.79 1104.07 1594.71 1099.89 1593.63 1095.71C1590.94 1087 1587.76 1078.46 1584.1 1070.12C1583.9 1069.59 1582.88 1068.44 1582.26 1068.43C1581.8 1068.42 1581.15 1068.85 1581.37 1069.41C1581.39 1069.46 1581.41 1069.52 1581.43 1069.57C1581.22 1069.1 1581.01 1068.61 1580.8 1068.14C1580.62 1067.7 1579.91 1066.81 1579.37 1066.82C1579.34 1066.82 1579.31 1066.82 1579.27 1066.83C1579.41 1066.73 1579.54 1066.6 1579.67 1066.45C1583.29 1062.16 1585.64 1056.51 1588.24 1051.55C1590.39 1047.45 1592.41 1043.13 1593 1038.5C1593.51 1034.44 1592.82 1030.43 1590.26 1027.14C1587.36 1023.39 1581.89 1021.64 1584.93 1016.23C1588.38 1010.07 1593.45 1004.74 1588.4 997.742C1585.83 994.18 1581.75 992.223 1578.72 989.124C1575.24 985.542 1573.59 980.749 1573.68 975.854C1573.89 975.975 1574.17 975.916 1574.27 975.612C1577.2 966.772 1575.08 957.065 1572.09 948.456C1570.45 943.785 1566.99 942.502 1562.97 942.271C1580.4 908.213 1596.71 873.609 1611.25 838.209C1611.73 837.048 1612.21 835.889 1612.68 834.727C1613.39 832.991 1611.89 830.681 1610.17 830.297C1597.6 827.542 1584.5 826.664 1571.7 825.454Z" fill="black"/>
<path fill-rule="evenodd" clip-rule="evenodd" d="M1425.43 403.627C1423.04 372.602 1426.74 340.083 1414.81 310.595C1394.01 261.667 1335.66 245.353 1290.43 226.726C1272.31 221.358 1211.34 220.608 1190.12 213.505C1142.1 197.427 1130.63 178.271 1092.47 208.883C1086.03 214.112 1082 219.796 1079.07 227.561L1079.19 227.594C1078.35 230.832 1079.25 234.062 1081.14 236.529C1064.59 253.481 1057.67 278.895 1066.16 301.46C1093.86 360.18 1092.56 391.931 1083.63 455.058C1071.98 513.991 1098.61 535.519 1142.72 567.585C1140.92 571.076 1140.55 575.715 1142.89 578.795C1193.9 650.644 1290.07 684.949 1372.47 648.481C1405.91 633.558 1420.85 597.851 1429.37 565.633C1439.29 529.557 1442.34 491.543 1434.26 454.795C1431 437.799 1426.76 420.926 1425.43 403.627Z" fill="#AE5D29"/>
<path fill-rule="evenodd" clip-rule="evenodd" d="M1060.11 315.616L1090.44 335.869L1199 221.144L1162.87 192.641C1162.87 192.641 1097.33 241.199 1084.44 254.014C1071.56 266.83 1060.11 315.616 1060.11 315.616Z" fill="#9FD8E5"/>
<path fill-rule="evenodd" clip-rule="evenodd" d="M1131.22 59.8964C1137.41 58.9645 1142.09 62.815 1144.31 68.2423L1144.43 68.5346C1145.14 70.3813 1145.94 72.1775 1146.79 73.9435C1162.29 66.3246 1184.39 68.2823 1194.2 83.7119C1201.2 94.7317 1196.93 107.81 1194.29 119.496L1192.56 127.195C1195.9 129.331 1198.43 133.154 1198.31 137.113L1198.3 137.418L1197.59 148.155C1199.83 145.885 1201.87 143.412 1203.69 140.778C1204.95 138.467 1206.31 136.197 1207.77 133.997C1216.36 121.05 1235.63 132.302 1228.55 146.167C1227.19 148.841 1225.66 151.374 1224.02 153.816C1222.16 157.419 1220.64 161.122 1219.48 164.927C1222.83 166.39 1225.41 169.64 1225.68 174.544C1226.31 185.998 1220.31 195.554 1210.77 201.558C1207.96 203.324 1205.06 203.668 1202.43 203.012C1201.97 203.637 1201.51 204.263 1201.06 204.899C1204.87 207.997 1208.3 211.529 1211.25 215.444C1220.13 214.112 1229.06 213.486 1237.99 213.466C1248.9 208.108 1261.97 208.219 1273.7 210.227C1281.25 211.519 1288.49 214.031 1295.92 215.838C1303.76 217.735 1311.71 217.805 1319.63 219.097C1329.62 220.722 1338.37 225.344 1343.88 232.72C1349.93 232.902 1356.29 235.385 1361.57 238.755C1373.85 246.606 1386.06 254.568 1398.31 262.47C1403.01 265.503 1404.77 270.346 1403.91 275.747L1403.85 276.093L1403.44 278.333L1404.41 279.712C1408.15 285.02 1412.23 290.579 1414.66 296.437C1419.15 302.926 1423.21 309.727 1426.8 316.741C1431.64 326.166 1435.64 336.157 1438.35 346.409C1439.02 349.003 1439.7 351.616 1440.14 354.26C1440.77 357.994 1439.8 360.89 1439.26 364.473C1438.6 369.014 1438.36 373.616 1437.65 378.167C1437.18 381.184 1434.62 382.667 1431.94 382.748C1432.95 390.428 1433.68 398.158 1434.37 405.827C1435.35 416.786 1436.01 427.776 1436.59 438.765C1439.55 443.074 1445.6 446.485 1449.96 447.666C1456.01 449.29 1462.36 447.524 1468.07 445.456C1471.67 444.154 1474.62 448.685 1472.87 451.712C1467.36 461.218 1455.58 461.178 1446.66 456.97C1442.89 455.194 1439.58 452.621 1437.12 449.27C1437.27 452.459 1437.43 455.648 1437.59 458.847L1437.74 461.744C1439.56 495.583 1443.47 530.585 1437.13 564.089C1426.15 622.124 1378.24 666.314 1319.71 669.745C1289 671.546 1263.42 662.453 1250.71 657.38C1237.99 652.308 1242.93 641.965 1251.76 644.921C1266.97 650.015 1294.91 657.602 1319.91 654.326C1378.84 646.603 1428.81 617.077 1423.68 489.908C1422.95 471.874 1420.71 453.831 1420.23 435.798C1419.76 418.169 1419.94 400.529 1419.16 382.91L1418.9 376.898C1418.6 369.874 1418.28 362.817 1417.75 355.784C1417.12 353.059 1416.59 350.294 1415.82 347.62C1413.71 340.344 1410.97 333.27 1407.55 326.519C1406.8 327.094 1405.95 327.508 1405.04 327.67C1398.08 328.921 1391.56 328.568 1385.04 325.662C1382 324.319 1379.33 322.533 1376.83 320.323C1375.64 319.284 1374.85 318.275 1374.22 317.225C1371.07 317.276 1367.92 316.327 1365.95 314.057C1363.7 311.469 1363.32 308.796 1364.2 306.321L1364.3 306.074L1364.07 305.994C1361.42 312.886 1356.12 318.951 1350.31 323.048C1341.13 329.547 1329.65 331.424 1318.63 331.595C1306.47 331.777 1293.65 329.9 1281.65 327.983C1278.48 327.478 1275.33 326.903 1272.24 326.126C1272.12 326.247 1271.99 326.388 1271.86 326.509C1261.57 336.389 1247.08 338.932 1234.01 333.291C1226.46 330.031 1220.13 324.784 1214.53 318.769C1214.45 321.918 1214.29 325.066 1214.02 328.184L1213.91 329.423C1213.35 335.23 1212.28 341.391 1207.9 345.582C1200.82 352.373 1190.55 349.649 1182.39 345.229C1182.4 345.441 1182.4 345.663 1182.4 345.885C1184.61 353.392 1186.82 360.911 1189.03 368.429L1189.51 370.03C1191.12 375.368 1192.89 380.713 1193.37 386.3C1194.3 396.977 1187.21 407.522 1175.37 403.94C1169.16 402.068 1164.19 396.834 1159.42 392.641L1156.41 390.034C1164.19 415.535 1169.59 441.944 1170.09 468.555C1170.12 469.998 1168.88 471.088 1167.51 471.138C1164.31 471.269 1160.87 470.634 1157.65 469.352C1157.47 469.342 1157.28 469.332 1157.09 469.301C1151.6 468.504 1146.49 466.516 1141.99 463.58C1143.03 466.88 1143.49 470.422 1143.22 474.125C1143.15 475.023 1141.75 475.336 1141.55 474.347C1138.95 461.541 1124 451.864 1111.12 454.316C1097.29 456.95 1087.1 468.878 1084.6 482.45C1081.92 497.032 1087.05 513.895 1096.54 525.147C1100.91 530.334 1106.66 534.663 1113.48 535.753C1116.6 536.247 1119.85 536.076 1122.88 535.188C1124.16 534.804 1125.37 534.269 1126.6 533.765C1128.39 533.038 1130.49 532.927 1132.18 532.16C1136.01 530.435 1139.87 533.977 1137.93 537.922C1136.23 541.364 1134.71 543.685 1131.91 545.461C1134.18 548.246 1136.24 552.121 1137.01 553.16C1140.92 558.448 1144.88 563.443 1149.33 568.277C1153.86 573.182 1158.8 577.662 1164.03 581.81L1166.22 583.549C1171.26 587.55 1175.64 591.258 1179.19 596.997C1181.99 601.528 1178.36 607.674 1173.12 607.603C1156.71 607.371 1144.78 592.92 1136.28 580.296C1135.08 578.49 1133.94 576.582 1132.88 574.625C1132.5 575.24 1132.08 575.815 1131.6 576.34L1132.54 578.863C1135.32 586.29 1123.35 591.144 1119.88 584.211C1117.35 579.186 1114.42 574.403 1111.16 569.882C1109.24 569.609 1107.35 568.439 1106.31 566.925C1103.66 563.08 1100.69 559.195 1098.18 555.098C1096.79 553.776 1095.36 552.504 1093.9 551.263C1093.48 551.637 1093.05 552.01 1092.64 552.404C1090.8 556.591 1088.54 560.416 1085.73 564.019L1085.13 564.787C1079.75 571.585 1072.74 578.542 1064.07 580.205C1061.42 580.71 1058.87 577.41 1061.22 575.301C1067.29 569.831 1074.46 566.108 1080.06 560.002C1082.82 556.994 1085.35 553.682 1087.53 550.21L1088.02 549.406C1088.39 548.811 1088.76 548.216 1089.14 547.61C1086.62 545.885 1084.09 544.149 1081.56 542.413C1074.61 548.37 1065.55 551.095 1057.85 556.03L1057.09 556.531C1050.13 561.193 1042.8 550.88 1048.38 545.218C1054.53 539.001 1059.66 531.587 1065.11 524.677C1062.55 519.948 1061.33 514.356 1060.88 508.705C1060.7 507.106 1060.56 505.505 1060.42 503.905C1056.52 503.965 1052.59 502.623 1049.27 500.312L1048.01 499.414C1043.97 500.706 1039.73 501.331 1035.68 501.22C1026.13 500.938 1022.23 490.009 1028.2 483.096C1034.29 476.032 1044.95 474.488 1053.4 477.919C1053.67 477.778 1053.95 477.627 1054.22 477.475C1053.82 475.619 1053.91 473.934 1054.37 472.455L1054.23 471.553C1052.38 468.696 1051.15 465.434 1050.69 461.988C1050.32 459.259 1050.4 456.553 1051.03 453.858C1051.24 452.961 1051.67 452.031 1052.01 451.096C1051.32 449.358 1050.92 447.562 1050.79 445.755C1050.6 445.526 1050.41 445.291 1050.23 445.037C1046.04 439.138 1046.88 432.031 1050.87 427.258C1050.89 426.954 1050.92 426.65 1050.96 426.349C1050.73 425.822 1050.51 425.29 1050.32 424.752C1046.42 420.812 1043.56 416.07 1044.09 410.194C1044.41 406.736 1045.82 403.624 1047.97 401.298C1047.59 400.17 1047.55 398.863 1048.01 397.772C1044.59 388.644 1045.02 377.649 1047.49 367.44C1046.94 365.886 1046.66 364.2 1046.72 362.414C1047 354.836 1053.55 347.873 1061.3 347.963C1062.23 347.971 1063.1 348.094 1063.94 348.272L1063.96 348.092C1064.25 345.817 1064.88 343.715 1065.79 341.829C1065.34 341.666 1064.92 341.433 1064.56 341.123C1059.59 343.78 1054.34 345.81 1048.83 347.193C1044.78 348.211 1040.63 343.594 1043.14 339.781C1044.31 338.012 1045.6 336.424 1046.99 334.973C1045.02 334.984 1043.01 335.118 1040.98 335.379C1037.34 335.854 1033.27 333.361 1030.91 329.991C1027.97 332.857 1025.02 335.712 1022.07 338.568C1014.6 345.824 1003.31 340.486 1002.14 330.919C999.91 330.324 997.837 329.315 996.015 327.872C984.237 332.998 971.563 335.813 958.607 336.348C949.305 336.732 943.869 325.873 948.218 318.204C951.137 313.057 954.761 308.436 958.939 304.419C952.456 306.407 945.761 307.84 938.926 308.759C935.232 309.253 930.007 306.185 928.527 302.785C922.87 289.706 923.353 276.073 929.866 263.348C930.118 262.843 930.4 262.359 930.671 261.874C931.346 260.189 932.081 258.524 932.876 256.889C924.863 248.513 924.168 236.061 928.487 225.636C926.755 222.821 926.091 219.43 927.269 216.362C930.621 207.532 935.453 199.379 941.554 192.375C940.97 191.245 940.456 190.044 940.023 188.753C936.591 178.308 940.567 165.704 948.59 158.428C953.634 153.847 959.432 151.102 965.623 149.346C968.23 144.724 971.583 140.556 975.489 137.045C975.64 136.712 975.791 136.379 975.962 136.046C982.042 124.562 993.115 118.406 1004.98 116.983C1005.45 112.492 1008.47 108.204 1012.86 106.811C1014.06 102.926 1015.87 99.2122 1018.34 95.8417C1022.24 90.5337 1028.71 88.031 1034.81 91.5125C1038.15 93.4198 1041.36 95.6096 1044.36 98.0315C1045.7 97.3981 1047.23 96.9882 1048.95 96.8575L1049.39 96.8307L1059.31 96.3261C1063.47 94.4794 1067.62 92.5418 1071.78 90.6548C1074.27 88.586 1077.06 86.8604 1080.1 85.5788C1083.54 84.1358 1087.07 83.3184 1090.6 83.0459C1093.47 82.1074 1096.36 81.2799 1099.3 80.6341C1106.21 79.1204 1113.43 78.2727 1120.6 78.3433C1120.75 76.4837 1120.82 74.6017 1120.81 72.6976L1120.79 71.7436C1120.63 65.6384 1125.49 60.7643 1131.22 59.8964ZM1124.26 548.367C1123.28 548.579 1122.28 548.75 1121.29 548.872C1121.59 549.618 1121.89 550.365 1122.18 551.112C1122.99 551.566 1123.8 552 1124.62 552.403C1124.38 551.031 1124.23 549.649 1124.26 548.367ZM1072.55 532.961L1071.88 534.196C1071.77 534.398 1071.66 534.598 1071.56 534.794C1072.97 534.683 1074.4 534.713 1075.81 534.875L1075.81 534.725C1075.63 534.663 1075.45 534.606 1075.27 534.522C1074.3 534.053 1073.4 533.529 1072.55 532.961ZM1100.5 476.598C1109.4 477.118 1116.95 478.486 1125.05 482.392L1125.74 482.733C1132.9 486.295 1144.74 492.875 1143.74 502.31C1143.46 504.995 1141.52 507.82 1138.46 507.608C1130.07 507.033 1125.28 498.556 1119.6 493.268C1113.88 487.94 1106.84 482.461 1099.9 478.797C1098.92 478.282 1099.31 476.649 1100.38 476.597L1100.5 476.598ZM1060.11 352.282C1057.98 352.353 1058.69 354.432 1059.79 352.696C1059.88 352.555 1059.99 352.414 1060.11 352.282ZM1175.31 213.505C1155.1 214.037 1134.76 226.001 1119.61 238.093C1106.44 248.613 1095.07 261.127 1085 274.614C1082.4 281.33 1080.18 288.187 1078.3 295.095C1077.06 299.656 1076.29 304.268 1075.25 308.87L1074.93 310.28C1074.11 311.806 1073.51 313.448 1073.07 315.144C1074.9 316.989 1077.28 318.31 1079.9 318.937C1080.75 319.139 1081.45 319.575 1082.01 320.155C1084.12 316.625 1085.96 312.899 1087.03 308.949L1087.07 308.767C1091.13 302.107 1095.53 295.655 1100.26 289.424C1113.28 272.218 1127.63 256.536 1144.87 243.488C1157.95 233.598 1172.57 225.848 1188.11 220.813C1184.3 217.736 1179.98 215.302 1175.31 213.505Z" fill="black"/>
<path fill-rule="evenodd" clip-rule="evenodd" d="M1358.22 587.695C1350.79 589.848 1342.81 590.04 1335.24 587.817C1328.37 585.8 1321.31 581.361 1316.26 575.487C1311.76 570.269 1308.85 563.929 1308.97 557.16C1308.98 556.387 1309.26 555.742 1309.68 555.241C1310.14 554.702 1310.78 554.332 1311.46 554.171C1312.17 554.006 1312.91 554.064 1313.55 554.352C1314.12 554.613 1314.61 555.056 1314.92 555.703C1315.7 556.724 1316.47 557.731 1317.25 558.709C1323.5 566.427 1329.55 572.195 1338.94 574.264C1344.04 575.386 1349.13 574.888 1353.8 573.176C1358.81 571.342 1363.33 568.118 1366.87 563.993C1368.47 562.128 1370.36 561.367 1372.21 561.354C1374.3 561.34 1376.37 562.313 1377.93 563.869C1379.46 565.399 1380.49 567.477 1380.58 569.651C1380.67 571.559 1380.04 573.552 1378.39 575.331C1372.93 581.188 1365.87 585.479 1358.22 587.695ZM1357.99 491.028C1365.61 495.66 1377.22 506.461 1369.02 517.944C1359.38 528.069 1345.49 516.46 1338.64 511.21C1332.3 507.141 1325.17 517.606 1331.05 522.357C1380.51 558.984 1400.58 492.239 1361.85 485.582C1357.58 484.848 1356 489.595 1357.99 491.028ZM1286.73 470.647C1284.28 469.08 1281.4 468.543 1278.21 469.995C1275.72 471.13 1271.34 474.913 1268.3 479.885C1266.21 483.287 1264.74 487.278 1265.04 491.436C1265.12 492.401 1264.76 493.113 1264.2 493.639C1263.75 494.055 1263.11 494.36 1262.36 494.456C1261.72 494.537 1261 494.464 1260.42 494.282C1259.31 493.936 1258.72 493.217 1258.5 492.63C1256.37 486.967 1257.29 480.647 1259.68 474.945C1262.9 467.25 1268.76 460.805 1272.59 458.727C1279.16 455.17 1286.9 455.006 1293.48 458.63C1299.08 461.714 1302.57 466.694 1306.05 471.77C1306.79 472.849 1307.53 473.92 1308.29 474.972C1309.81 477.081 1309.96 479.172 1309.37 480.965C1308.72 482.952 1307.05 484.628 1304.97 485.506C1303.05 486.317 1300.82 486.431 1298.84 485.598C1297.18 484.894 1295.65 483.522 1294.68 481.194C1293.05 477.273 1290.33 472.947 1286.73 470.647V470.647ZM1411.08 479.37C1409.41 480.244 1408.09 480.507 1406.23 479.95C1405.2 479.641 1404.19 479.048 1403.39 478.252C1402.6 477.463 1402.03 476.482 1401.81 475.393C1401.27 472.707 1399.8 470.192 1397.71 468.552C1395.92 467.151 1393.66 466.408 1391.15 466.827C1388.45 467.279 1385.87 469.014 1384.1 471.059C1383.5 471.743 1383.04 472.521 1382.57 473.293C1381.7 474.736 1380.85 476.078 1379.64 477.139C1379.18 477.542 1378.49 477.821 1377.83 477.821C1377.56 477.821 1377.28 477.777 1377.02 477.696C1374.33 474.993 1373.81 472.944 1373.9 470.91C1373.99 468.778 1374.83 466.619 1376.19 464.605C1379.37 459.881 1385.42 456.007 1389.5 455.129C1395.09 453.928 1400.64 455.37 1405.09 458.493C1409.67 461.706 1413.06 466.695 1414.12 472.317C1414.38 473.671 1414.27 475.132 1413.75 476.399C1413.25 477.638 1412.37 478.698 1411.08 479.37ZM1299.06 420.273C1295.7 423.542 1291.73 424.049 1287.72 424.499C1285.49 424.752 1283.7 424.955 1281.95 425.351C1277.13 426.439 1272.37 428.078 1268.02 430.438C1263.48 432.905 1258.53 435.88 1254.97 439.692C1254.12 440.599 1253.33 441.55 1252.53 442.504C1251.8 443.374 1251.1 444.211 1250.36 445.019C1249.51 445.946 1248.7 446.918 1247.9 447.887C1247.4 448.705 1247.3 448.906 1247.2 449.116C1247.05 449.431 1246.88 449.783 1246.68 450.161C1246.4 450.678 1246.08 451.244 1245.75 451.758C1245.19 452.697 1244.89 452.955 1244.63 453.071C1244.2 453.262 1243.79 453.357 1243.4 453.306C1243.03 453.258 1242.68 453.079 1242.33 452.788C1240.61 451.332 1240.1 448.944 1240.15 446.408C1240.23 442.561 1241.65 438.301 1242.96 435.682C1246 429.597 1250.22 423.272 1255.29 418.73C1261.07 413.547 1267.41 409.622 1274.68 406.918C1279.2 405.237 1284.43 403.694 1289.35 403.889C1292.89 404.029 1296.28 405.083 1299.07 407.714C1300.79 409.329 1301.61 411.627 1301.61 413.923C1301.61 416.265 1300.75 418.62 1299.06 420.273ZM1417.9 450.209C1417.69 450.559 1417.4 450.8 1417.07 450.945C1416.72 451.096 1416.34 451.14 1415.97 451.078C1415.6 451.016 1415.25 450.849 1414.98 450.595C1414.71 450.351 1414.51 450.027 1414.42 449.631C1412.19 439.847 1407.87 432.567 1398.64 427.873C1394.1 425.564 1388.88 424.097 1383.93 422.927C1382.5 422.587 1380.98 422.366 1379.45 422.143C1374.66 421.444 1369.84 420.643 1366.72 416.77C1364.83 414.437 1364.04 411.453 1364.49 408.725C1364.91 406.156 1366.41 403.8 1369.14 402.389C1375.93 398.876 1384.37 402.323 1391.23 405.259C1391.74 405.477 1392.24 405.691 1392.73 405.897C1399.43 408.729 1405.55 412.467 1410.58 417.813C1414.57 422.055 1418.27 428.325 1419.76 434.775C1420.99 440.141 1420.7 445.619 1417.9 450.209Z" fill="black"/>
</svg>
