<svg xmlns="http://www.w3.org/2000/svg" fill="none" viewBox="0 0 212 328">
  <defs/>
  <path fill="#6FCF97" d="M165.5 187l19 8.5c3.167 4.167 10.4 15.2 14 26 3.6 10.8 3.5 16.5 3 18l3 12.5v13.5l-15 3.5-34 1-21.5-11.5-7-9 11.5-69 27 6.5z"/>
  <path stroke="#828282" stroke-width=".8" d="M194 208l-9.5-12.5m0 0l-19-8.5-27-6.5-11.5 69 7 9 21.5 11.5 34-1 15-3.5V252l-3-12.5c.5-1.5.6-7.2-3-18s-10.833-21.833-14-26z"/>
  <path fill="#6FCF97" d="M141.443 185.066l-6 34.5-2.25 6.375-18.375-3.375-1.125-.375-3.75-2.625-5.625-8.25-3-3.375 4.875-6 4.5-8.25 8.625-6.75 8.25-4.875 13.875 3"/>
  <path stroke="#9C9C9C" stroke-linecap="round" stroke-linejoin="round" stroke-miterlimit="2" stroke-width=".8" d="M141.443 185.066l-6 34.5-2.25 6.375-18.375-3.375-1.125-.375-3.75-2.625-5.625-8.25-3-3.375 4.875-6 4.5-8.25 8.625-6.75 8.25-4.875 13.875 3"/>
  <path fill="#56CCF2" stroke="#9C9C9C" stroke-linecap="round" stroke-linejoin="round" stroke-miterlimit="2" stroke-width=".8" d="M101.318 207.941l3 3.375 5.625 8.25 3.75 2.625 1.125.375 18.375 3.375-4.125 22.875-1.5 8.625-3.375 6-6.375-9.375-4.875-.75-9-1.125-20.6248-21.375 7.5-9 10.4998-13.875z"/>
  <path fill="#56CCF2" d="M74.6932 239.441l8.625-8.625 20.6248 21.375 9 1.125-17.9998 22.5-7.875 6.375-16.5 5.25-9.375.375-7.875-1.875 9-14.25 6-19.125 6.375-13.125"/>
  <path stroke="#9C9C9C" stroke-linecap="round" stroke-linejoin="round" stroke-miterlimit="2" stroke-width=".8" d="M74.6932 239.441l8.625-8.625 20.6248 21.375 9 1.125-17.9998 22.5-7.875 6.375-16.5 5.25-9.375.375-7.875-1.875 9-14.25 6-19.125 6.375-13.125"/>
  <path fill="#56CCF2" d="M124.193 263.441l-4.125 8.25-13.5 17.625-10.8747-3.375-4.5001.375-4.125-4.125 7.875-6.375 17.9998-22.5 4.875.75 6.375 9.375"/>
  <path stroke="#9C9C9C" stroke-linecap="round" stroke-linejoin="round" stroke-miterlimit="2" stroke-width=".8" d="M124.193 263.441l-4.125 8.25-13.5 17.625-10.8747-3.375-4.5001.375-4.125-4.125 7.875-6.375 17.9998-22.5 4.875.75 6.375 9.375"/>
  <path fill="#F2C94C" d="M191.318 209.441l-.75-1.875h-2.625l1.5-1.5-.375-1.875-3-1.125-3-3.75-5.25-2.25-7.875.375-.375-1.875-18.375-8.25-9.75-2.25 24.75-151.8756 3.375 1.125 1.875 1.5h4.5l.375.375v.375l.375.375h.75l.375.375 1.125-.375.375-.375h.375l.75-.375.75.375h.75l.375.375 1.125.375 1.5.375.75.375h.75l.75-.375h3.75l6-.375h.75l1.5 2.25v.375l.375.375.375.75-.75 1.125h.375v1.875l-1.125 4.1251v1.5l.375.375.375.75h.375l.375.375.375.375v.375l.375.375 1.125.75.375.375.375.375h.375v2.25l-.375 1.875-.375.375-1.5 1.5v.375h-.375v.375h-.375l-.375.375-.75.375-.375.375v.375l-.375.375-.375.75h-.375v.75l-.75-.375h-1.875l-1.875.375-.75-.375h-2.25l-.375.375v.375l-.375.75v.375l-.375.375h-.375v1.125l-.375.375v.75l-.375.375-.375.75v.375h-.375l-.375 2.25v2.625l-.75 2.25.75 2.625v7.125l.375 1.125-.375.375v.75l-.375.375-.375.75v1.5l-.375.375-.375 1.875-1.125 2.625 2.625 5.2505-.375 2.25v.375l.375.375.375.375h.375l.375.375.75.375h1.125l.375.75.75.75 1.875 2.25.75.375.75.375-.375 3.75v1.5l-.375 1.125.375.375v.375l-.375 1.125 1.5.75v2.625l.375.75.375.375v.375l.375.75v.75l-.375.375-.375.75.75 1.875v.375l-.375.375v.75l-.375 1.875v.375h-.375v1.5l.75 3.75 1.125 4.125-1.125 2.25-.75 2.25v3.75l-.75 1.5 1.5 1.125.75.75v.375l-1.875.75h-.375l-.375.375h-.375v.75h-.375l.375 1.125h-.375v.375l-.375 2.25v.75l-1.125 1.5-.375.75v.75l-.375 4.125-.375 1.125-.375.75-.375.75.375 1.125-.375.75v.375l-.375.375-.375.75-.375 1.5h-.375v.375l.375 1.5.75.375.375.375 1.5.75h.375v1.5l-.375.375v.375h-.375v.75l.375.75.75 4.125-.375.375-.375.75v.375l.375.375.375.375v1.125l.375.75.375.375h.375l.375.375.75.375.375.375h.75l.75.375.75.75 1.125.375.375.375.375.375h.75l.75 1.125v.75l.375.75.375.75h.375v.75l.75.75-.75 1.5-.375.375v1.125l-.375.375v.75l-.375.375-.375.75-.375.375-.375.375-.375.375-.375.375-.75.75-.375.75h-.375v1.5l-1.5 1.875-1.875 1.125h-.375l-1.5-1.125"/>
  <path stroke="#9C9C9C" stroke-linecap="round" stroke-linejoin="round" stroke-miterlimit="2" stroke-width=".8" d="M191.318 209.441l-.75-1.875h-2.625l1.5-1.5-.375-1.875-3-1.125-3-3.75-5.25-2.25-7.875.375-.375-1.875-18.375-8.25-9.75-2.25 24.75-151.8756 3.375 1.125 1.875 1.5h4.5l.375.375v.375l.375.375h.75l.375.375 1.125-.375.375-.375h.375l.75-.375.75.375h.75l.375.375 1.125.375 1.5.375.75.375h.75l.75-.375h3.75l6-.375h.75l1.5 2.25v.375l.375.375.375.75-.75 1.125h.375v1.875l-1.125 4.1251v1.5l.375.375.375.75h.375l.375.375.375.375v.375l.375.375 1.125.75.375.375.375.375h.375v2.25l-.375 1.875-.375.375-1.5 1.5v.375h-.375v.375h-.375l-.375.375-.75.375-.375.375v.375l-.375.375-.375.75h-.375v.75l-.75-.375h-1.875l-1.875.375-.75-.375h-2.25l-.375.375v.375l-.375.75v.375l-.375.375h-.375v1.125l-.375.375v.75l-.375.375-.375.75v.375h-.375l-.375 2.25v2.625l-.75 2.25.75 2.625v7.125l.375 1.125-.375.375v.75l-.375.375-.375.75v1.5l-.375.375-.375 1.875-1.125 2.625 2.625 5.2505-.375 2.25v.375l.375.375.375.375h.375l.375.375.75.375h1.125l.375.75.75.75 1.875 2.25.75.375.75.375-.375 3.75v1.5l-.375 1.125.375.375v.375l-.375 1.125 1.5.75v2.625l.375.75.375.375v.375l.375.75v.75l-.375.375-.375.75.75 1.875v.375l-.375.375v.75l-.375 1.875v.375h-.375v1.5l.75 3.75 1.125 4.125-1.125 2.25-.75 2.25v3.75l-.75 1.5 1.5 1.125.75.75v.375l-1.875.75h-.375l-.375.375h-.375v.75h-.375l.375 1.125h-.375v.375l-.375 2.25v.75l-1.125 1.5-.375.75v.75l-.375 4.125-.375 1.125-.375.75-.375.75.375 1.125-.375.75v.375l-.375.375-.375.75-.375 1.5h-.375v.375l.375 1.5.75.375.375.375 1.5.75h.375v1.5l-.375.375v.375h-.375v.75l.375.75.75 4.125-.375.375-.375.75v.375l.375.375.375.375v1.125l.375.75.375.375h.375l.375.375.75.375.375.375h.75l.75.375.75.75 1.125.375.375.375.375.375h.75l.75 1.125v.75l.375.75.375.75h.375v.75l.75.75-.75 1.5-.375.375v1.125l-.375.375v.75l-.375.375-.375.75-.375.375-.375.375-.375.375-.375.375-.75.75-.375.75h-.375v1.5l-1.5 1.875-1.875 1.125h-.375l-1.5-1.125"/>
  <path fill="#56CCF2" d="M210.068 264.566l-.375.375v5.25l-.75 1.125-1.125 1.875-.375.375 1.875 2.625 1.125 1.5.375 2.25-1.5 3.375-3.375 3.375-1.5 2.25-1.875.375-1.875-.75 1.125 3v.375l-1.5 1.875-1.5 3v4.5l-1.125 1.5 1.125 7.125-1.5 7.125-1.125 1.125.375 4.5v2.25l-3.75-.375-8.625-.75-3.375 1.125-1.125 2.25-7.5-1.125v-.375l-.375-2.25-2.25-5.25-1.125-1.875.75-4.125-2.25-1.875-3 1.5-.375-1.125-4.5.75-8.625-1.875-5.625-2.625-2.625-2.625-4.875-1.125-4.875-4.5h-.375l-1.5 1.125-.75 1.5h-.75l-1.125 1.5v.375l.375.75-.375.75-.375.375h-.75l-.375.375-.375.375-.375.375-.375-.75-.375-.75-.75 1.125-.375-.75-1.5 1.125-1.125-1.125.375-1.125-2.25-1.125-3.75-6.75-4.5-4.125-4.5-2.625 13.5-17.625 4.125-8.25 3.375-6 1.5-8.625 3.375 4.125 3.375-.375 4.875 1.5h.375l1.125.75 7.875 1.875 1.875 6 4.5 4.125 4.125-.75 4.125-4.875 1.125 1.125 3-1.125v1.5l4.875-1.875 5.625 4.5 5.25-.75 1.875-1.875h.375v-.75l.375-.75 3.375-1.125 4.875 3.375 5.25-1.125 5.625 1.875 3.375.375h.375"/>
  <path stroke="#9C9C9C" stroke-linecap="round" stroke-linejoin="round" stroke-miterlimit="2" stroke-width=".8" d="M210.068 264.566l-.375.375v5.25l-.75 1.125-1.125 1.875-.375.375 1.875 2.625 1.125 1.5.375 2.25-1.5 3.375-3.375 3.375-1.5 2.25-1.875.375-1.875-.75 1.125 3v.375l-1.5 1.875-1.5 3v4.5l-1.125 1.5 1.125 7.125-1.5 7.125-1.125 1.125.375 4.5v2.25l-3.75-.375-8.625-.75-3.375 1.125-1.125 2.25-7.5-1.125v-.375l-.375-2.25-2.25-5.25-1.125-1.875.75-4.125-2.25-1.875-3 1.5-.375-1.125-4.5.75-8.625-1.875-5.625-2.625-2.625-2.625-4.875-1.125-4.875-4.5h-.375l-1.5 1.125-.75 1.5h-.75l-1.125 1.5v.375l.375.75-.375.75-.375.375h-.75l-.375.375-.375.375-.375.375-.375-.75-.375-.75-.75 1.125-.375-.75-1.5 1.125-1.125-1.125.375-1.125-2.25-1.125-3.75-6.75-4.5-4.125-4.5-2.625 13.5-17.625 4.125-8.25 3.375-6 1.5-8.625 3.375 4.125 3.375-.375 4.875 1.5h.375l1.125.75 7.875 1.875 1.875 6 4.5 4.125 4.125-.75 4.125-4.875 1.125 1.125 3-1.125v1.5l4.875-1.875 5.625 4.5 5.25-.75 1.875-1.875h.375v-.75l.375-.75 3.375-1.125 4.875 3.375 5.25-1.125 5.625 1.875 3.375.375h.375"/>
  <path fill="#56CCF2" d="M1.19318 228.941h.375l.375-.375.75-.375.75-.75 1.5-1.125.375-.75.75-1.125.375-.75.375-.375.375-.75h.375l.75-.75h.75l.75-.75 1.12502-.75h.75l.375.375.75-.375.375-.75.375-.375.375-.375.75-.375.75-.375v-.375h1.875l.375.375.75.375.375.375h1.5l.375-.375h.375l.375-1.125.375-.375v-1.875l.375-.375h.375l.375.375.375.375.375.375.375.375h.75l.75-.375v-.375l.375-.375v-3.75h.375l.375-.375h.375l.75.375h.375l.375.375h2.25l.75.375.375.375v.375h.75l.375-.375v-.375l.375-.375.75-.375h.375v-.375l.375-.375.75-.375h1.875l.375-.375h.375l.375.375h.75l.375.375h.375l.375.375.75.375.375.375.75.375h.375l.375.375h1.125v.375h.375v-.375h.375v.375h.375l.375.375v-.375h1.125v-.375h.375l.375-.375.375-.375h.375l.375-.375h1.125v.375l.375.375.375.375.375.375v.375l.75.75.375.375.375.375.75.75.375.375h.375v1.125h.375v.375h.375l.375.375v.375l.375.375v.375l.375.375v.375h.375v.75l.375.375v.375l.375.375v.75h.375v.375l.375.375.375 1.5.375.75.375.375.375.375 1.125.75h1.125l.75.375.75.75.75.375v.375l1.875 1.5.75.375v.375l.375.375.375 1.125v.75l.375.75.375.375v.375l.375.375.375.75 6 3.75-6.375 13.125-6 19.125-9 14.25-15.75-.75v-.375l.375-.375.375-.375h.75l.375.375.375.375.375.375v-.75l-.375-.375-.375-.75-.375-.375-.375-.375-.375-.375-.375-.375-.375-.75v-1.5l-1.125-.375-.375-.375-1.125-.75v-.375l-.375-.375h-.375l-.375-.375h-1.125v-.75l-.375-.375-1.875-1.125h-.375l-.375-.375-2.625-.75h-1.875l-.75.375h-.75v.375h-.75l-1.125.75h-.375l-.375.375h-.75l-.375.375h-.375l-.375.375v.375l-1.125 3-4.125.75-.75-1.5 1.875-1.875h-1.875l-.375-.375h-.75l-.375 1.5-.375 1.125H9.44318l1.87502-2.625v-1.5l-.375-.375H8.69318l1.50002-1.5v-.75l-.37502-.375-.375-.375v-.375l.375-.375.37502-.375v-.75l-.75002-1.5-1.125-.75-1.125-.75-.375-.375h-.75v-.375l-.375-.75-.375-.375v-.375l2.25-1.125v-1.125l-.375-.75-2.25 2.625-.375-.375h-.375l-.375-.375h.375l.375-1.875-1.875 1.125h-.375l-.375.375-.375-3.375h6l.375-.375-.375-.75v-.375l3.37502-4.125-.75-4.5-9.00002-20.625"/>
  <path stroke="#9C9C9C" stroke-linecap="round" stroke-linejoin="round" stroke-miterlimit="2" stroke-width=".8" d="M1.19318 228.941h.375l.375-.375.75-.375.75-.75 1.5-1.125.375-.75.75-1.125.375-.75.375-.375.375-.75h.375l.75-.75h.75l.75-.75 1.12502-.75h.75l.375.375.75-.375.375-.75.375-.375.375-.375.75-.375.75-.375v-.375h1.875l.375.375.75.375.375.375h1.5l.375-.375h.375l.375-1.125.375-.375v-1.875l.375-.375h.375l.375.375.375.375.375.375.375.375h.75l.75-.375v-.375l.375-.375v-3.75h.375l.375-.375h.375l.75.375h.375l.375.375h2.25l.75.375.375.375v.375h.75l.375-.375v-.375l.375-.375.75-.375h.375v-.375l.375-.375.75-.375h1.875l.375-.375h.375l.375.375h.75l.375.375h.375l.375.375.75.375.375.375.75.375h.375l.375.375h1.125v.375h.375v-.375h.375v.375h.375l.375.375v-.375h1.125v-.375h.375l.375-.375.375-.375h.375l.375-.375h1.125v.375l.375.375.375.375.375.375v.375l.75.75.375.375.375.375.75.75.375.375h.375v1.125h.375v.375h.375l.375.375v.375l.375.375v.375l.375.375v.375h.375v.75l.375.375v.375l.375.375v.75h.375v.375l.375.375.375 1.5.375.75.375.375.375.375 1.125.75h1.125l.75.375.75.75.75.375v.375l1.875 1.5.75.375v.375l.375.375.375 1.125v.75l.375.75.375.375v.375l.375.375.375.75 6 3.75-6.375 13.125-6 19.125-9 14.25-15.75-.75v-.375l.375-.375.375-.375h.75l.375.375.375.375.375.375v-.75l-.375-.375-.375-.75-.375-.375-.375-.375-.375-.375-.375-.375-.375-.75v-1.5l-1.125-.375-.375-.375-1.125-.75v-.375l-.375-.375h-.375l-.375-.375h-1.125v-.75l-.375-.375-1.875-1.125h-.375l-.375-.375-2.625-.75h-1.875l-.75.375h-.75v.375h-.75l-1.125.75h-.375l-.375.375h-.75l-.375.375h-.375l-.375.375v.375l-1.125 3-4.125.75-.75-1.5 1.875-1.875h-1.875l-.375-.375h-.75l-.375 1.5-.375 1.125H9.44318l1.87502-2.625v-1.5l-.375-.375H8.69318l1.50002-1.5v-.75l-.37502-.375-.375-.375v-.375l.375-.375.37502-.375v-.75l-.75002-1.5-1.125-.75-1.125-.75-.375-.375h-.75v-.375l-.375-.75-.375-.375v-.375l2.25-1.125v-1.125l-.375-.75-2.25 2.625-.375-.375h-.375l-.375-.375h.375l.375-1.875-1.875 1.125h-.375l-.375.375-.375-3.375h6l.375-.375-.375-.75v-.375l3.37502-4.125-.75-4.5-9.00002-20.625"/>
  <path fill="#56CCF2" d="M30.8182 211.691v-1.125l-.75-.375-.75-.375h-.75l-.75-.375v-.375l.375-.75v-.375l.375-.375v-.375l-.375-.375h-2.25l-1.5-.375h-.375l-.75-.375-.75-.375-1.125-.375h-1.875l-1.125-.375-.375-.375-.375-.75-.375-.75v-.375h.375v-.375l.75-.75.375-.375.75-.375v.375l.75-.375h.375l.375-.375.75-.375h.75l.375.375.375.375v.75l.375.75h.75l.75-.75v-1.125l.375-.75v-.375l.375-.375v-.375l.375-.375v-.375l.375-.375.75-.375.75-.375h1.125l.75-.375h.375l.75-.375.375-.375.375-.375.375-.375v-1.875l-.375-.375v-.375l-.375-.75-.375-.375-.375-.375-.375-.375-.375-.375v-.375h-1.125l-.75.375-.75.75-.375.375-.375.375v.75l.375.375.375.375.375.375.75.375.375.375-2.25 1.875-.75.375-1.125.75-.75.375-.75-.75-.375-.75v-1.125h-1.125l-.75.375-.375.75-.375.375-.375.375-.375.375-.75.75h-.375l-.375-.375v-.375l-.375-.375v-.75l-.375-.375-.375.375v2.625l-.375.375-.375-.375-.375-.375-1.125-.375-.375-.375-.375-.375-.375-.375h-.375l-.375-.375v-1.125l.375-.375v-.75l.375-1.125v-1.875l.375-1.125.375-.375h.375l.75-.375 1.5-1.125.375-.375.375-.75.375-.375.375-.375.375-.375.375-.375.75-.375.375-.375.375-.375v-.75l-.375-.375h-.375l-.75-.375-.375-.375-.75-.75-.375-.75-.375-.75v-.75l-.375-.75v-.375l-.375-.375h-.375l-.375-.375-.375-.75v-1.875l.75-.75.75-.75.75-.75.75-.375.375-.75.375-.75v-.75l-.375-.375h-1.875l-1.125.375h-2.625l-1.125-.375-.75-.375-.75-.75v-1.125h.75l1.125-.375 1.125-.375h.75l1.125-.75h.75l.75-.375 3.75.375 2.625-1.125 3.75-.375-.375-1.5 1.5-1.125 4.5.375 1.875-1.5-.375-9.75 38.25 28.5 2.25 3.75-7.125 4.125 3.375 3 19.875 31.5-7.5 9-8.625 8.625-6-3.75-.375-.75-.375-.375v-.375l-.375-.375-.375-.75v-.75l-.375-1.125-.375-.375v-.375l-.75-.375-1.875-1.5v-.375l-.75-.375-.75-.75-.75-.375h-1.125l-1.125-.75-.375-.375-.375-.375-.375-.75-.375-1.5-.375-.375v-.375h-.375v-.75l-.375-.375v-.375l-.375-.375v-.75h-.375v-.375l-.375-.375v-.375l-.375-.375v-.375l-.375-.375h-.375v-.375h-.375v-1.125h-.375l-.375-.375-.75-.75-.375-.375-.375-.375-.75-.75v-.375l-.375-.375-.375-.375-.375-.375v-.375h-1.125l-.375.375h-.375l-.375.375-.375.375h-.375v.375h-1.125v.375l-.375-.375h-.375v-.375h-.375v.375h-.375v-.375h-1.125l-.375-.375h-.375l-.75-.375-.375-.375-.75-.375-.375-.375h-.375l-.375-.375h-.75l-.375-.375h-.375l-.375.375h-1.875l-.75.375-.375.375v.375h-.375l-.75.375-.375.375v.375l-.375.375h-.75v-.375l-.375-.375-.75-.375"/>
  <path stroke="#9C9C9C" stroke-linecap="round" stroke-linejoin="round" stroke-miterlimit="2" stroke-width=".8" d="M30.8182 211.691v-1.125l-.75-.375-.75-.375h-.75l-.75-.375v-.375l.375-.75v-.375l.375-.375v-.375l-.375-.375h-2.25l-1.5-.375h-.375l-.75-.375-.75-.375-1.125-.375h-1.875l-1.125-.375-.375-.375-.375-.75-.375-.75v-.375h.375v-.375l.75-.75.375-.375.75-.375v.375l.75-.375h.375l.375-.375.75-.375h.75l.375.375.375.375v.75l.375.75h.75l.75-.75v-1.125l.375-.75v-.375l.375-.375v-.375l.375-.375v-.375l.375-.375.75-.375.75-.375h1.125l.75-.375h.375l.75-.375.375-.375.375-.375.375-.375v-1.875l-.375-.375v-.375l-.375-.75-.375-.375-.375-.375-.375-.375-.375-.375v-.375h-1.125l-.75.375-.75.75-.375.375-.375.375v.75l.375.375.375.375.375.375.75.375.375.375-2.25 1.875-.75.375-1.125.75-.75.375-.75-.75-.375-.75v-1.125h-1.125l-.75.375-.375.75-.375.375-.375.375-.375.375-.75.75h-.375l-.375-.375v-.375l-.375-.375v-.75l-.375-.375-.375.375v2.625l-.375.375-.375-.375-.375-.375-1.125-.375-.375-.375-.375-.375-.375-.375h-.375l-.375-.375v-1.125l.375-.375v-.75l.375-1.125v-1.875l.375-1.125.375-.375h.375l.75-.375 1.5-1.125.375-.375.375-.75.375-.375.375-.375.375-.375.375-.375.75-.375.375-.375.375-.375v-.75l-.375-.375h-.375l-.75-.375-.375-.375-.75-.75-.375-.75-.375-.75v-.75l-.375-.75v-.375l-.375-.375h-.375l-.375-.375-.375-.75v-1.875l.75-.75.75-.75.75-.75.75-.375.375-.75.375-.75v-.75l-.375-.375h-1.875l-1.125.375h-2.625l-1.125-.375-.75-.375-.75-.75v-1.125h.75l1.125-.375 1.125-.375h.75l1.125-.75h.75l.75-.375 3.75.375 2.625-1.125 3.75-.375-.375-1.5 1.5-1.125 4.5.375 1.875-1.5-.375-9.75 38.25 28.5 2.25 3.75-7.125 4.125 3.375 3 19.875 31.5-7.5 9-8.625 8.625-6-3.75-.375-.75-.375-.375v-.375l-.375-.375-.375-.75v-.75l-.375-1.125-.375-.375v-.375l-.75-.375-1.875-1.5v-.375l-.75-.375-.75-.75-.75-.375h-1.125l-1.125-.75-.375-.375-.375-.375-.375-.75-.375-1.5-.375-.375v-.375h-.375v-.75l-.375-.375v-.375l-.375-.375v-.75h-.375v-.375l-.375-.375v-.375l-.375-.375v-.375l-.375-.375h-.375v-.375h-.375v-1.125h-.375l-.375-.375-.75-.75-.375-.375-.375-.375-.75-.75v-.375l-.375-.375-.375-.375-.375-.375v-.375h-1.125l-.375.375h-.375l-.375.375-.375.375h-.375v.375h-1.125v.375l-.375-.375h-.375v-.375h-.375v.375h-.375v-.375h-1.125l-.375-.375h-.375l-.75-.375-.375-.375-.75-.375-.375-.375h-.375l-.375-.375h-.75l-.375-.375h-.375l-.375.375h-1.875l-.75.375-.375.375v.375h-.375l-.75.375-.375.375v.375l-.375.375h-.75v-.375l-.375-.375-.75-.375"/>
  <path fill="#6FCF97" d="M34.1932 150.941l-1.125 1.125-1.875-1.875-2.625-1.5v-2.25l.375-.75v-.375l.375-.75.375-.375.375-.75.75-.375.375-.375h1.125v.75l-.375.375v.375l.375.75h.375l1.125.375h2.625l.75.375h1.875l.375-.75.375-.375.375-.75.375-.375.375-.75.75-.375.75-.375 1.125-.75.75-.375.75-.375.75-.375.75-.375.375-.375.75-.375h1.5l.75-.375h.75l.375-.375 1.125-.375.375-.375h.375l.375-.375h.75l.375.375v.75l.375.375.375 1.125h1.875l.75-.375.375-.375 1.5-.75.375-.375.375-.75h1.5l.375.375v2.25l.375.75v.75l.375.375h.375l.375-.75.75-.75.375-.375.75-.75v-.375l.375-.375v-.375l-.375-.75-.75-1.125-.375-.375-.375-1.125-.375-.75v-2.25l.375-.375.75-.375h.375l.375-.375-.75-.375h-.375v-1.875h.375v-.375l.375-.375.375-.375h2.25l1.5.375h2.25l.375.375.75 2.625 3 .75.375.375.375.375.375.375.375.375h1.5v1.125l.375.375v1.5l1.875 1.5.375.375.75.75h.375l.75.375 1.125 1.125.375.375v.375l.375.375 1.5 1.125.75.375h2.625l.375.375h-.375v1.875h.375v.375l.375.375h.375l.375.375.375.375.375.375.375.375h.75l.375.375.375.75v2.625h.375v.375h.375v.375h1.8751l1.5.375.375.375.375.375.375.375.375.375v.375l1.8747 2.625v2.25l3 .75.375 1.5v.375l1.125 1.125v.375l.375.75 1.125 1.125-.375 7.875 3 1.5.75 3 4.5 1.5 3.75 8.625-8.625 6.75-4.5 8.25-4.875 6-10.4998 13.875-19.875-31.5-3.375-3 7.125-4.125-2.25-3.75-38.25-28.5"/>
  <path stroke="#9C9C9C" stroke-linecap="round" stroke-linejoin="round" stroke-miterlimit="2" stroke-width=".8" d="M34.1932 150.941l-1.125 1.125-1.875-1.875-2.625-1.5v-2.25l.375-.75v-.375l.375-.75.375-.375.375-.75.75-.375.375-.375h1.125v.75l-.375.375v.375l.375.75h.375l1.125.375h2.625l.75.375h1.875l.375-.75.375-.375.375-.75.375-.375.375-.75.75-.375.75-.375 1.125-.75.75-.375.75-.375.75-.375.75-.375.375-.375.75-.375h1.5l.75-.375h.75l.375-.375 1.125-.375.375-.375h.375l.375-.375h.75l.375.375v.75l.375.375.375 1.125h1.875l.75-.375.375-.375 1.5-.75.375-.375.375-.75h1.5l.375.375v2.25l.375.75v.75l.375.375h.375l.375-.75.75-.75.375-.375.75-.75v-.375l.375-.375v-.375l-.375-.75-.75-1.125-.375-.375-.375-1.125-.375-.75v-2.25l.375-.375.75-.375h.375l.375-.375-.75-.375h-.375v-1.875h.375v-.375l.375-.375.375-.375h2.25l1.5.375h2.25l.375.375.75 2.625 3 .75.375.375.375.375.375.375.375.375h1.5v1.125l.375.375v1.5l1.875 1.5.375.375.75.75h.375l.75.375 1.125 1.125.375.375v.375l.375.375 1.5 1.125.75.375h2.625l.375.375h-.375v1.875h.375v.375l.375.375h.375l.375.375.375.375.375.375.375.375h.75l.375.375.375.75v2.625h.375v.375h.375v.375h1.8751l1.5.375.375.375.375.375.375.375.375.375v.375l1.8747 2.625v2.25l3 .75.375 1.5v.375l1.125 1.125v.375l.375.75 1.125 1.125-.375 7.875 3 1.5.75 3 4.5 1.5 3.75 8.625-8.625 6.75-4.5 8.25-4.875 6-10.4998 13.875-19.875-31.5-3.375-3 7.125-4.125-2.25-3.75-38.25-28.5"/>
  <path fill="#6FCF97" d="M166.193 33.1905l-24.75 151.8755-13.875-3-8.25 4.875-3.75-8.625-4.5-1.5-.75-3-3-1.5.375-7.875-1.125-1.125-.375-.75v-.375l-1.125-1.125v-.375l-.375-1.5-3-.75v-2.25l-1.8747-2.625v-.375l-.375-.375-.375-.375-.375-.375-.375-.375-1.5-.375h-1.8751v-.375h-.375v-.375h-.375v-2.625l-.375-.75-.375-.375h-.75l-.375-.375-.375-.375-.375-.375-.375-.375h-.375l-.375-.375v-.375h-.375v-1.875h.375l-.375-.375h-2.625l-.75-.375-1.5-1.125-.375-.375v-.375l-.375-.375-1.125-1.125-.75-.375h-.375l-.75-.75-.375-.375-1.875-1.5v-1.5l-.375-.375v-1.125h-1.5l-.375-.375-.375-.375-.375-.375-.375-.375-3-.75-.75-2.625-.375-.375h-2.25l-1.5-.375h-2.25l-.375.375-.375.375v.375h-.375v1.875h-1.5l-.375-.375-.375-.375v-1.125l-1.125-.375h-.375l-.75-.375-.375-.75v-.75l.75-.75.375-.75.375-.75v-1.875l.375-.75.375-.375.75-.75 1.125.375h1.5l.375-.75 1.125-.375v-1.125l-.375-.75v-.375l-.375-.375-1.125.375h-.375v-.75l.375-.75h2.25l.75.75.375.375.75 1.5v.75l.375.375h.375l.375-.75-.75-1.125-.375-1.125-.375-1.5-.375-1.125-.75-.375-.75-.75.375-.75h4.125l1.125-.375v-.75l-.375-1.125v-1.875l-.375-.75-.375-.75v-.75l.375-.75.75-.75 1.875-.375h1.125l.75-.375.75-1.875v-.75l.375-1.1255.375-1.125v-1.125l-.375-.75-.75.75-.75.75-.375.375-.75-.375v-.75l.375-.75 1.125-.75 1.125-.75 1.125-1.125.375-1.125v-.75h-1.5l-.375.375-.375-.375v-.375l.375-.375.75-.375.375-.75.375-.375v-1.125l.375-1.125v-.75l.375-.75.375-.375v-.75h-1.125l-1.125 1.125-1.125.375-.375-.375.375-.75h.375l1.5-.75.375-.375.375-.75v-.75l-.375-.375-.375.375h-.75l-.75.375h-.75v-.375l.375-.375.75-.375.375-.375h.75l.375-.375.375-.375v-.75l-.375-.75v-1.875h.375l.75.375h.375l.375.75h.75l.375-1.125h-.375l-.375-.375h-.375l-.75-.375-.375-.375-.375-.375.375-.75.375-.75v-.375l.375-.75.375-1.125.75-.375h2.25l.375.375v.375l-.75.375h-1.875l.375 1.125v.375l.375 1.125.75-.375 1.875-.75.75-.375.75-.375v-2.25l.375-1.125.375-.75.375-1.125.375-.75.375-.75v-.375l.75-.75.375-.75.75-.75h1.5l.375.375v.375l-.375.75-.375.375-.375.375v.375l.375.375.75-.375.375-.75.375-.75.375-.75v-.75l.375-.75.75-.75 1.125.375h1.1251l.75.375 2.25-.75v3.75l.375.75.375 1.125.7497 1.875.375.75.375.75v.375l.375-.375.75-.375.75-.75.75-.75 1.125-.375.75-.375.375-.75 1.5-1.5.375-.375.375-.375v-.75l-1.875.375-.75.375h-.75l-.75-.375-.375-.375v-.375l.75-.75h.75l.75.375.75-.75.375-.75v-1.125l-.375-1.125-.375-.375h.75l1.5-.375v-.375l-.75-.75h-.75l-.375-.375.375-.375.75-.375.375-.375h.375l.375-.375.375-.375.75-.375.75-.375.75-.375 1.125-.75.75-.375.75-.75h.75l.75-.375.75-.75v-1.125l-.375-.75h-.75l-1.125-.375-.75-.375-.75-.375-.75-.75-.75-.375-.375-.75 1.5-.75h.75l-.375-.75-1.875-.75h-1.125l-1.125-.75v-1.5l.375-.75v-3.75h1.875l1.125-.75.375-.375.375.75.375.75.375.75.375.75v.375l-.375.75-.375.375v.375l.375.75.375.75.75-.375v-.75l.75-1.5 1.875-2.625v-1.125l-.375-1.125-.375-.75-.375-1.125-.75-.75-1.875-1.875-.75-1.125-.75-.75-.375-.75-1.125-.75-.75-1.125-.75-.375v-.375l1.125-.7501 3-1.5 2.625-1.5 1.125-.375.75-.375.75-.375h1.125l.375-.375h2.25l.375.375 1.125.375.375.375.375.375.375.75.375.375.375.375v.75h.375v1.125l.375.3751v3.75h3l.75.375.375.375v-1.875l-.375-.375v-3.3751l.375-.375.375-.75v-.375l.375-.75.375-.375h.75l.375.375v.75l.375.375v.75l-.375.375v1.8751l.375.375v.375h.75v-3.0001l-.375-.375.375-.375v-.375l.375-.375.375-.75h.375l.375.375v.375l-.375 1.5v.75l.375.7501.375.75.375.75.375.75v1.125h.375v.375l.375.375v.75l.75-.375-.375-.375.375-.375.75-.375h3.75l.375-.375.75-.75.375-.375.375-.375.375-.375.375-.375v-1.5001l.375-.375h.75l1.875 1.8751.375.375.375.375 1.125.375.375-.375-1.5-4.8751 1.125.375 1.5 4.1251.375.375 1.125.75.375-.375.75-.375.375-.75.375-.75v-.3751l.375-.375.375-.375v.375l1.875 2.2501 1.5 1.875v2.625l6.375 1.125h.75"/>
  <path stroke="#9C9C9C" stroke-linecap="round" stroke-linejoin="round" stroke-miterlimit="2" stroke-width=".8" d="M166.193 33.1905l-24.75 151.8755-13.875-3-8.25 4.875-3.75-8.625-4.5-1.5-.75-3-3-1.5.375-7.875-1.125-1.125-.375-.75v-.375l-1.125-1.125v-.375l-.375-1.5-3-.75v-2.25l-1.8747-2.625v-.375l-.375-.375-.375-.375-.375-.375-.375-.375-1.5-.375h-1.8751v-.375h-.375v-.375h-.375v-2.625l-.375-.75-.375-.375h-.75l-.375-.375-.375-.375-.375-.375-.375-.375h-.375l-.375-.375v-.375h-.375v-1.875h.375l-.375-.375h-2.625l-.75-.375-1.5-1.125-.375-.375v-.375l-.375-.375-1.125-1.125-.75-.375h-.375l-.75-.75-.375-.375-1.875-1.5v-1.5l-.375-.375v-1.125h-1.5l-.375-.375-.375-.375-.375-.375-.375-.375-3-.75-.75-2.625-.375-.375h-2.25l-1.5-.375h-2.25l-.375.375-.375.375v.375h-.375v1.875h-1.5l-.375-.375-.375-.375v-1.125l-1.125-.375h-.375l-.75-.375-.375-.75v-.75l.75-.75.375-.75.375-.75v-1.875l.375-.75.375-.375.75-.75 1.125.375h1.5l.375-.75 1.125-.375v-1.125l-.375-.75v-.375l-.375-.375-1.125.375h-.375v-.75l.375-.75h2.25l.75.75.375.375.75 1.5v.75l.375.375h.375l.375-.75-.75-1.125-.375-1.125-.375-1.5-.375-1.125-.75-.375-.75-.75.375-.75h4.125l1.125-.375v-.75l-.375-1.125v-1.875l-.375-.75-.375-.75v-.75l.375-.75.75-.75 1.875-.375h1.125l.75-.375.75-1.875v-.75l.375-1.1255.375-1.125v-1.125l-.375-.75-.75.75-.75.75-.375.375-.75-.375v-.75l.375-.75 1.125-.75 1.125-.75 1.125-1.125.375-1.125v-.75h-1.5l-.375.375-.375-.375v-.375l.375-.375.75-.375.375-.75.375-.375v-1.125l.375-1.125v-.75l.375-.75.375-.375v-.75h-1.125l-1.125 1.125-1.125.375-.375-.375.375-.75h.375l1.5-.75.375-.375.375-.75v-.75l-.375-.375-.375.375h-.75l-.75.375h-.75v-.375l.375-.375.75-.375.375-.375h.75l.375-.375.375-.375v-.75l-.375-.75v-1.875h.375l.75.375h.375l.375.75h.75l.375-1.125h-.375l-.375-.375h-.375l-.75-.375-.375-.375-.375-.375.375-.75.375-.75v-.375l.375-.75.375-1.125.75-.375h2.25l.375.375v.375l-.75.375h-1.875l.375 1.125v.375l.375 1.125.75-.375 1.875-.75.75-.375.75-.375v-2.25l.375-1.125.375-.75.375-1.125.375-.75.375-.75v-.375l.75-.75.375-.75.75-.75h1.5l.375.375v.375l-.375.75-.375.375-.375.375v.375l.375.375.75-.375.375-.75.375-.75.375-.75v-.75l.375-.75.75-.75 1.125.375h1.1251l.75.375 2.25-.75v3.75l.375.75.375 1.125.7497 1.875.375.75.375.75v.375l.375-.375.75-.375.75-.75.75-.75 1.125-.375.75-.375.375-.75 1.5-1.5.375-.375.375-.375v-.75l-1.875.375-.75.375h-.75l-.75-.375-.375-.375v-.375l.75-.75h.75l.75.375.75-.75.375-.75v-1.125l-.375-1.125-.375-.375h.75l1.5-.375v-.375l-.75-.75h-.75l-.375-.375.375-.375.75-.375.375-.375h.375l.375-.375.375-.375.75-.375.75-.375.75-.375 1.125-.75.75-.375.75-.75h.75l.75-.375.75-.75v-1.125l-.375-.75h-.75l-1.125-.375-.75-.375-.75-.375-.75-.75-.75-.375-.375-.75 1.5-.75h.75l-.375-.75-1.875-.75h-1.125l-1.125-.75v-1.5l.375-.75v-3.75h1.875l1.125-.75.375-.375.375.75.375.75.375.75.375.75v.375l-.375.75-.375.375v.375l.375.75.375.75.75-.375v-.75l.75-1.5 1.875-2.625v-1.125l-.375-1.125-.375-.75-.375-1.125-.75-.75-1.875-1.875-.75-1.125-.75-.75-.375-.75-1.125-.75-.75-1.125-.75-.375v-.375l1.125-.7501 3-1.5 2.625-1.5 1.125-.375.75-.375.75-.375h1.125l.375-.375h2.25l.375.375 1.125.375.375.375.375.375.375.75.375.375.375.375v.75h.375v1.125l.375.3751v3.75h3l.75.375.375.375v-1.875l-.375-.375v-3.3751l.375-.375.375-.75v-.375l.375-.75.375-.375h.75l.375.375v.75l.375.375v.75l-.375.375v1.8751l.375.375v.375h.75v-3.0001l-.375-.375.375-.375v-.375l.375-.375.375-.75h.375l.375.375v.375l-.375 1.5v.75l.375.7501.375.75.375.75.375.75v1.125h.375v.375l.375.375v.75l.75-.375-.375-.375.375-.375.75-.375h3.75l.375-.375.75-.75.375-.375.375-.375.375-.375.375-.375v-1.5001l.375-.375h.75l1.875 1.8751.375.375.375.375 1.125.375.375-.375-1.5-4.8751 1.125.375 1.5 4.1251.375.375 1.125.75.375-.375.75-.375.375-.75.375-.75v-.3751l.375-.375.375-.375v.375l1.875 2.2501 1.5 1.875v2.625l6.375 1.125h.75"/>
  <path fill="#fff" d="M160.211 141.023v3.278c0 .545-.171.976-.513 1.292-.339.317-.804.475-1.394.475-.581 0-1.043-.153-1.385-.461-.341-.308-.516-.73-.523-1.268v-3.316h1.026v3.285c0 .326.077.564.232.714.158.149.374.223.65.223.576 0 .869-.303.878-.91v-3.312h1.029zm3.421 3.671c0-.193-.068-.341-.205-.444-.136-.105-.383-.214-.738-.328-.355-.116-.637-.23-.844-.342-.565-.305-.848-.717-.848-1.234 0-.269.075-.508.226-.718.152-.212.37-.377.653-.495.284-.119.603-.178.957-.178.355 0 .672.065.95.195.278.127.493.309.646.543.155.235.232.502.232.8h-1.025c0-.228-.072-.404-.216-.53-.143-.127-.345-.191-.605-.191-.25 0-.445.054-.584.161-.139.104-.209.243-.209.417 0 .161.081.297.243.406.164.11.405.212.721.308.584.175 1.009.393 1.275.653.267.26.4.583.4.97 0 .431-.163.77-.489 1.016-.325.243-.764.365-1.316.365-.382 0-.731-.069-1.045-.208-.315-.141-.555-.334-.722-.578-.164-.244-.246-.526-.246-.847h1.029c0 .549.328.823.984.823.244 0 .435-.049.571-.147.137-.1.205-.239.205-.417zm4.536.281h-1.798l-.342 1.025h-1.09l1.853-4.977h.95l1.863 4.977h-1.091l-.345-1.025zm-1.521-.831h1.244l-.625-1.863-.619 1.863zm7.427-.519c0 .464-.075.869-.225 1.213-.151.342-.359.616-.626.824l.827.649-.652.578-1.06-.851c-.121.02-.246.03-.376.03-.412 0-.78-.099-1.104-.297-.324-.198-.574-.481-.752-.848-.178-.369-.268-.793-.27-1.271v-.246c0-.49.088-.921.263-1.292.178-.374.427-.66.749-.858.323-.201.692-.301 1.107-.301.415 0 .783.1 1.104.301.324.198.573.484.749.858.177.371.266.801.266 1.288v.223zm-1.039-.226c0-.522-.093-.918-.28-1.19-.187-.271-.454-.406-.8-.406-.344 0-.609.134-.796.403-.187.267-.282.659-.284 1.176v.243c0 .508.093.902.28 1.182.187.28.456.421.807.421.344 0 .608-.135.793-.404.185-.271.278-.665.28-1.182v-.243zm5.558-2.376v3.278c0 .545-.171.976-.513 1.292-.339.317-.804.475-1.394.475-.581 0-1.043-.153-1.385-.461-.341-.308-.516-.73-.523-1.268v-3.316h1.026v3.285c0 .326.077.564.232.714.157.149.374.223.65.223.576 0 .869-.303.878-.91v-3.312h1.029zm3.835 2.82h-1.969v1.333h2.311V146h-3.336v-4.977h3.329v.831h-2.304v1.186h1.969v.803zm-1.07-4.163h1.077l-.947 1.06h-.803l.673-1.06zm6.06 6.32h-1.025l-1.996-3.274V146h-1.026v-4.977h1.026l1.999 3.282v-3.282h1.022V146zM113.025 108.694c0-.193-.068-.341-.205-.444-.137-.105-.383-.214-.738-.328-.356-.116-.637-.23-.845-.342-.565-.305-.847-.717-.847-1.234 0-.269.075-.508.225-.718.153-.212.371-.377.653-.495.285-.119.604-.178.957-.178.356 0 .672.065.95.195.278.127.494.309.646.543.155.235.233.502.233.8h-1.026c0-.228-.071-.404-.215-.53-.144-.127-.345-.191-.605-.191-.251 0-.445.054-.584.161-.139.104-.209.243-.209.417 0 .161.081.297.243.406.164.11.404.212.721.308.583.175 1.008.393 1.275.653.266.26.4.583.4.97 0 .431-.163.77-.489 1.016-.326.243-.765.365-1.316.365-.383 0-.731-.069-1.046-.208-.314-.141-.555-.334-.721-.578-.164-.244-.246-.526-.246-.847h1.029c0 .549.328.823.984.823.244 0 .434-.049.571-.147.137-.1.205-.239.205-.417zm5.493-3.671v3.278c0 .545-.171.976-.513 1.292-.34.317-.804.475-1.395.475-.581 0-1.042-.153-1.384-.461-.342-.308-.516-.73-.523-1.268v-3.316h1.026v3.285c0 .326.077.564.232.714.157.149.374.223.649.223.577 0 .87-.303.879-.91v-3.312h1.029zm.84 4.977v-4.977h1.744c.603 0 1.061.117 1.374.349.312.23.468.569.468 1.015 0 .244-.063.459-.188.646-.125.185-.3.32-.523.407.255.064.456.192.602.386.148.194.222.431.222.711 0 .479-.153.841-.458 1.087-.306.246-.741.371-1.306.376h-1.935zm1.026-2.167v1.343h.878c.242 0 .43-.057.564-.171.137-.116.205-.275.205-.478 0-.456-.236-.687-.707-.694h-.94zm0-.725h.759c.517-.009.775-.215.775-.618 0-.226-.066-.388-.198-.486-.13-.1-.336-.15-.618-.15h-.718v1.254zm6.255 1.867h-1.798l-.342 1.025h-1.09l1.852-4.977h.95l1.863 4.977h-1.09l-.345-1.025zm-1.521-.831h1.244l-.626-1.863-.618 1.863zM56.4385 157.843h-1.9688v1.333h2.3106V160h-3.336v-4.977h3.3291v.831h-2.3037v1.186h1.9688v.803zM61.4287 160h-1.0254l-1.9961-3.274V160h-1.0254v-4.977h1.0254l1.9996 3.282v-3.282h1.0219V160zm4.8331-.629c-.1846.221-.4455.393-.7828.516-.3372.121-.7109.181-1.1211.181-.4306 0-.8089-.093-1.1347-.28-.3236-.189-.5742-.462-.752-.82-.1754-.358-.2654-.778-.27-1.261v-.339c0-.497.0832-.926.2495-1.288.1686-.365.4102-.643.7246-.834.3168-.194.687-.291 1.1109-.291.5901 0 1.0516.141 1.3842.424.3327.28.5298.689.5914 1.227h-.9981c-.0456-.285-.147-.493-.3042-.626-.1549-.132-.3691-.198-.6426-.198-.3486 0-.6141.131-.7964.393-.1823.262-.2745.652-.2768 1.169v.318c0 .522.0991.916.2973 1.183.1983.266.4888.4.8716.4.3851 0 .6597-.082.8238-.246v-.858h-.9331v-.756h1.9585v1.986zm3.6435-.396h-1.7978L67.7657 160h-1.0904l1.8526-4.977h.9502L71.3409 160h-1.0904l-.3452-1.025zm-1.521-.831h1.2442l-.6255-1.863-.6187 1.863zm6.7574-2.29h-1.5244V160h-1.0254v-4.146h-1.504v-.831h4.0538v.831zM76.8199 160h-1.0254v-4.977h1.0254V160zm2.7925-1.234l1.1279-3.743h1.1416L80.149 160h-1.0698l-1.7261-4.977h1.1382l1.1211 3.743zm5.291.209h-1.7978L82.7638 160h-1.0904l1.8526-4.977h.9502L86.339 160h-1.0904l-.3452-1.025zm-1.521-.831h1.2442l-.6255-1.863-.6187 1.863zM37.4385 201.966h-1.9688V204h-1.0254v-4.977h3.2403v.831h-2.2149v1.285h1.9688v.827zm4.9287-.341c0 .489-.0866.919-.2598 1.288-.1731.369-.4215.654-.7451.855-.3213.2-.6904.3-1.1074.3-.4124 0-.7804-.099-1.104-.297-.3236-.198-.5742-.481-.752-.848-.1777-.369-.2677-.793-.27-1.271v-.246c0-.49.0877-.921.2632-1.292.1777-.374.4273-.66.7485-.858.3236-.201.6928-.301 1.1075-.301.4147 0 .7827.1 1.104.301.3235.198.5731.484.7485.858.1777.371.2666.801.2666 1.288v.223zm-1.0391-.226c0-.522-.0934-.918-.2802-1.19-.1869-.271-.4535-.406-.7998-.406-.3441 0-.6096.134-.7964.403-.1869.267-.2814.659-.2837 1.176v.243c0 .508.0934.902.2803 1.182.1868.28.4557.421.8066.421.3441 0 .6084-.135.793-.404.1845-.271.278-.665.2802-1.182v-.243zM47.1592 204h-1.0254l-1.9961-3.274V204h-1.0254v-4.977h1.0254l1.9995 3.282v-3.282h1.022V204zm4.5391-4.146h-1.5244V204h-1.0254v-4.146h-1.5039v-.831h4.0537v.831zM53.3765 204h-1.0254v-4.977h1.0254V204zm.9536 0v-4.977h1.7432c.6039 0 1.0619.117 1.374.349.3122.23.4683.569.4683 1.015 0 .244-.0627.459-.188.646-.1253.185-.2996.32-.5229.407.2552.064.4557.192.6015.386.1481.194.2222.431.2222.711 0 .479-.1527.841-.458 1.087-.3054.246-.7406.371-1.3057.376h-1.9346zm1.0254-2.167v1.343h.8785c.2415 0 .4295-.057.5639-.171.1367-.116.2051-.275.2051-.478 0-.456-.2358-.687-.7075-.694h-.94zm0-.725h.7588c.5173-.009.7759-.215.7759-.618 0-.226-.0661-.388-.1982-.486-.1299-.1-.3361-.15-.6187-.15h-.7178v1.254zm7.5333.517c0 .489-.0866.919-.2598 1.288-.1732.369-.4216.654-.7451.855-.3213.2-.6905.3-1.1074.3-.4125 0-.7805-.099-1.1041-.297-.3235-.198-.5742-.481-.7519-.848-.1777-.369-.2678-.793-.27-1.271v-.246c0-.49.0877-.921.2632-1.292.1777-.374.4272-.66.7485-.858.3236-.201.6927-.301 1.1074-.301.4147 0 .7827.1 1.104.301.3236.198.5731.484.7486.858.1777.371.2666.801.2666 1.288v.223zm-1.0391-.226c0-.522-.0934-.918-.2803-1.19-.1868-.271-.4534-.406-.7998-.406-.3441 0-.6095.134-.7964.403-.1868.267-.2814.659-.2837 1.176v.243c0 .508.0935.902.2803 1.182.1869.28.4557.421.8067.421.344 0 .6084-.135.7929-.404.1846-.271.278-.665.2803-1.182v-.243zm-.8818-3.709h1.0766l-.9468 1.06h-.8032l.6734-1.06zm6.7129 6.31h-1.0254l-1.9961-3.274V204h-1.0254v-4.977h1.0254l1.9995 3.282v-3.282h1.022V204zM21.0029 249.004l-.5332.574V251h-1.0254v-4.977h1.0254v2.256l.4512-.618 1.2681-1.638h1.2612l-1.7671 2.212L23.5015 251h-1.2202l-1.2784-1.996zm5.879-.161h-1.9688v1.333h2.3106V251h-3.336v-4.977h3.3291v.831h-2.3037v1.186h1.9688v.803zM31.8721 251h-1.0254l-1.9961-3.274V251h-1.0254v-4.977h1.0254l1.9995 3.282v-3.282h1.022V251zm4.9424 0h-1.0254l-1.9961-3.274V251h-1.0254v-4.977h1.0254l1.9995 3.282v-3.282h1.022V251zm3.8897-2.157h-1.9688v1.333h2.3106V251H37.71v-4.977h3.3291v.831h-2.3037v1.186h1.9688v.803zm.9433 2.157v-4.977h1.5313c.4375 0 .8283.1 1.1724.298.3463.196.6163.476.81.841.1937.362.2905.774.2905 1.237v.229c0 .462-.0957.874-.2871 1.234-.1891.36-.4568.639-.8032.837-.3463.198-.7371.299-1.1724.301h-1.5415zm1.0254-4.146v3.322h.4956c.4011 0 .7076-.131.9195-.393.2119-.262.3201-.637.3247-1.124v-.264c0-.505-.1048-.888-.3145-1.148-.2096-.262-.5161-.393-.9194-.393h-.5059zm5.0928 1.412l1.0357-2.243h1.1211l-1.6338 3.172V251h-1.0425v-1.805l-1.6338-3.172h1.1245l1.0288 2.243zM56.4697 266.247V268h-1.0254v-4.977h1.9414c.3737 0 .7019.069.9844.206.2849.136.5036.331.6563.584.1526.251.229.537.229.858 0 .488-.1675.873-.5025 1.155-.3326.28-.7941.421-1.3842.421h-.899zm0-.831h.916c.2712 0 .4774-.064.6187-.191.1436-.128.2153-.31.2153-.547 0-.244-.0717-.441-.2153-.592-.1436-.15-.3418-.227-.5947-.232h-.94v1.562zm7.2598-2.393v3.278c0 .545-.1709.976-.5127 1.292-.3395.317-.8043.475-1.3945.475-.5811 0-1.0425-.153-1.3843-.461-.3418-.308-.5161-.73-.5229-1.268v-3.316h1.0253v3.285c0 .326.0775.564.2325.714.1572.149.3737.223.6494.223.5765 0 .8693-.303.8784-.91v-3.312h1.0288zm3.835 2.82h-1.9688v1.333h2.3106V268h-3.336v-4.977h3.3292v.831h-2.3038v1.186h1.9688v.803zM72.5547 268h-1.0254l-1.9961-3.274V268h-1.0253v-4.977h1.0253l1.9996 3.282v-3.282h1.0219V268zm4.5391-4.146h-1.5244V268H74.544v-4.146h-1.5039v-.831h4.0537v.831zm3.5821 1.989h-1.9688v1.333h2.3106V268h-3.336v-4.977h3.3291v.831h-2.3037v1.186h1.9688v.803zm5.4961 1.132h-1.7979L84.0323 268H82.942l1.8525-4.977h.9502L87.6075 268h-1.0903l-.3452-1.025zm-1.521-.831h1.2441l-.6255-1.863-.6186 1.863zm5.2637.034h-.8169V268h-1.0254v-4.977h1.8491c.5879 0 1.0413.131 1.3604.393.319.263.4785.633.4785 1.111 0 .34-.0741.624-.2222.851-.1458.226-.368.406-.6665.54l1.0767 2.034V268h-1.1006l-.9331-1.822zm-.8169-.83h.8271c.2575 0 .4569-.065.5982-.195.1412-.132.2119-.313.2119-.544 0-.234-.0672-.419-.2017-.553-.1321-.135-.3361-.202-.6118-.202h-.8237v1.494zm6.2549 1.627h-1.7979L93.213 268h-1.0903l1.8525-4.977h.9502L96.7882 268h-1.0903l-.3452-1.025zm-1.521-.831h1.2441l-.6255-1.863-.6186 1.863zM101.3 268h-1.025l-1.9965-3.274V268h-1.0254v-4.977h1.0254l1.9995 3.282v-3.282h1.022V268zm.895 0v-4.977h1.532c.437 0 .828.1 1.172.298.346.196.616.476.81.841.194.362.291.774.291 1.237v.229c0 .462-.096.874-.287 1.234-.19.36-.457.639-.804.837-.346.198-.737.299-1.172.301h-1.542zm1.026-4.146v3.322h.495c.402 0 .708-.131.92-.393.212-.262.32-.637.325-1.124v-.264c0-.505-.105-.888-.315-1.148-.209-.262-.516-.393-.919-.393h-.506zm6.262 3.121h-1.798l-.342 1.025h-1.09l1.852-4.977h.95l1.863 4.977h-1.09l-.345-1.025zm-1.521-.831h1.244l-.626-1.863-.618 1.863zM142.025 290.694c0-.193-.068-.341-.205-.444-.137-.105-.383-.214-.738-.328-.356-.116-.637-.23-.845-.342-.565-.305-.847-.717-.847-1.234 0-.269.075-.508.225-.718.153-.212.371-.377.653-.495.285-.119.604-.178.957-.178.356 0 .672.065.95.195.278.127.494.309.646.543.155.235.233.502.233.8h-1.026c0-.228-.071-.404-.215-.53-.144-.127-.345-.191-.605-.191-.251 0-.445.054-.584.161-.139.104-.209.243-.209.417 0 .161.081.297.243.406.164.11.404.212.721.308.583.175 1.008.393 1.275.653.266.26.4.583.4.97 0 .431-.163.77-.489 1.016-.326.243-.765.365-1.316.365-.383 0-.731-.069-1.046-.208-.314-.141-.555-.334-.721-.578-.164-.244-.246-.526-.246-.847h1.029c0 .549.328.823.984.823.244 0 .434-.049.571-.147.137-.1.205-.239.205-.417zm4.536.281h-1.798l-.342 1.025h-1.09l1.852-4.977h.95l1.863 4.977h-1.09l-.345-1.025zm-1.521-.831h1.244l-.626-1.863-.618 1.863zm7.468 1.856h-1.026l-1.996-3.274V292h-1.025v-4.977h1.025l2 3.282v-3.282h1.022V292zm4.539-4.146h-1.524V292h-1.026v-4.146h-1.504v-.831h4.054v.831zm2.987 3.121h-1.798l-.341 1.025h-1.091l1.853-4.977h.95L161.47 292h-1.091l-.345-1.025zm-1.521-.831h1.244l-.625-1.863-.619 1.863zm8.159-.178h-1.969V292h-1.025v-4.977h3.24v.831h-2.215v1.285h1.969v.827zm3.835-.123h-1.969v1.333h2.311V292h-3.336v-4.977h3.329v.831h-2.304v1.186h1.969v.803zm-1.07-4.163h1.077l-.947 1.06h-.803l.673-1.06zM156.351 237.342c-.039.536-.237.957-.595 1.265-.355.308-.825.461-1.408.461-.638 0-1.14-.214-1.507-.642-.365-.431-.547-1.021-.547-1.771v-.304c0-.478.084-.9.253-1.265.168-.364.409-.643.721-.837.315-.196.679-.294 1.094-.294.574 0 1.037.154 1.388.461.35.308.553.74.608 1.296h-1.025c-.026-.321-.116-.554-.27-.697-.153-.146-.387-.219-.701-.219-.342 0-.598.123-.769.369-.169.244-.255.623-.26 1.138v.376c0 .538.081.931.243 1.179.164.249.421.373.772.373.317 0 .553-.072.708-.215.157-.146.247-.371.27-.674h1.025zm4.724 1.658h-1.026v-2.133h-1.999V239h-1.026v-4.977h1.026v2.017h1.999v-2.017h1.026V239zm3.77-1.025h-1.798l-.342 1.025h-1.09l1.852-4.977h.951L166.28 239h-1.09l-.345-1.025zm-1.521-.831h1.244l-.626-1.863-.618 1.863zm4.447.103V239h-1.026v-4.977h1.942c.373 0 .701.069.984.206.285.136.504.331.656.584.153.251.229.537.229.858 0 .488-.167.873-.502 1.155-.333.28-.794.421-1.385.421h-.898zm0-.831h.916c.271 0 .477-.064.618-.191.144-.128.216-.31.216-.547 0-.244-.072-.441-.216-.592-.143-.15-.342-.227-.594-.232h-.94v1.562zm4.583 2.584h-1.025v-4.977h1.025V239zm5.001 0h-1.026l-1.996-3.274V239h-1.025v-4.977h1.025l2 3.282v-3.282h1.022V239zm3.889-2.157h-1.969v1.333h2.311V239h-3.336v-4.977h3.329v.831h-2.304v1.186h1.969v.803zm2.786.335h-.817V239h-1.025v-4.977h1.849c.588 0 1.041.131 1.36.393.319.263.479.633.479 1.111 0 .34-.074.624-.223.851-.145.226-.368.406-.666.54l1.077 2.034V239h-1.101l-.933-1.822zm-.817-.83h.827c.258 0 .457-.065.598-.195.142-.132.212-.313.212-.544 0-.234-.067-.419-.201-.553-.133-.135-.337-.202-.612-.202h-.824v1.494zm7.533.277c0 .489-.086.919-.26 1.288-.173.369-.421.654-.745.855-.321.2-.69.3-1.107.3-.413 0-.781-.099-1.104-.297-.324-.198-.574-.481-.752-.848-.178-.369-.268-.793-.27-1.271v-.246c0-.49.088-.921.263-1.292.178-.374.427-.66.749-.858.323-.201.692-.301 1.107-.301.415 0 .783.1 1.104.301.324.198.573.484.749.858.177.371.266.801.266 1.288v.223zm-1.039-.226c0-.522-.093-.918-.28-1.19-.187-.271-.454-.406-.8-.406-.344 0-.609.134-.796.403-.187.267-.282.659-.284 1.176v.243c0 .508.093.902.28 1.182.187.28.456.421.807.421.344 0 .608-.135.793-.404.184-.271.278-.665.28-1.182v-.243zM91.1904 231.854H89.666V236h-1.0254v-4.146h-1.5039v-.831h4.0537v.831zm3.5821 1.989h-1.9688v1.333h2.3106V236h-3.336v-4.977h3.3291v.831h-2.3037v1.186h1.9688v.803zm4.71-2.82v3.278c0 .545-.1709.976-.5127 1.292-.3396.317-.8044.475-1.3946.475-.581 0-1.0425-.153-1.3843-.461-.3418-.308-.5161-.73-.5229-1.268v-3.316h1.0254v3.285c0 .326.0775.564.2324.714.1572.149.3737.223.6494.223.5765 0 .8693-.303.8784-.91v-3.312h1.0289zm3.4215 3.671c0-.193-.069-.341-.205-.444-.137-.105-.383-.214-.739-.328-.355-.116-.636-.23-.844-.342-.565-.305-.847-.717-.847-1.234 0-.269.075-.508.225-.718.153-.212.37-.377.653-.495.285-.119.604-.178.957-.178.356 0 .672.065.95.195.278.127.494.309.646.543.155.235.233.502.233.8h-1.026c0-.228-.072-.404-.215-.53-.144-.127-.345-.191-.605-.191-.251 0-.446.054-.585.161-.139.104-.208.243-.208.417 0 .161.081.297.243.406.164.11.404.212.721.308.583.175 1.008.393 1.275.653.266.26.4.583.4.97 0 .431-.163.77-.489 1.016-.326.243-.765.365-1.316.365-.383 0-.731-.069-1.046-.208-.314-.141-.555-.334-.721-.578-.164-.244-.246-.526-.246-.847h1.029c0 .549.328.823.984.823.244 0 .434-.049.571-.147.136-.1.205-.239.205-.417zm4.536.281h-1.798L105.3 236h-1.09l1.852-4.977h.95l1.863 4.977h-1.09l-.345-1.025zm-1.521-.831h1.244l-.626-1.863-.618 1.863zm7.427-.519c0 .464-.075.869-.226 1.213-.15.342-.359.616-.625.824l.827.649-.653.578-1.06-.851c-.12.02-.246.03-.376.03-.412 0-.78-.099-1.104-.297-.323-.198-.574-.481-.751-.848-.178-.369-.268-.793-.271-1.271v-.246c0-.49.088-.921.264-1.292.177-.374.427-.66.748-.858.324-.201.693-.301 1.108-.301.414 0 .782.1 1.104.301.323.198.573.484.748.858.178.371.267.801.267 1.288v.223zm-1.039-.226c0-.522-.094-.918-.281-1.19-.186-.271-.453-.406-.799-.406-.344 0-.61.134-.797.403-.187.267-.281.659-.283 1.176v.243c0 .508.093.902.28 1.182.187.28.456.421.806.421.345 0 .609-.135.793-.404.185-.271.278-.665.281-1.182v-.243zm5.557-2.376v3.278c0 .545-.171.976-.512 1.292-.34.317-.805.475-1.395.475-.581 0-1.042-.153-1.384-.461-.342-.308-.516-.73-.523-1.268v-3.316h1.025v3.285c0 .326.078.564.233.714.157.149.373.223.649.223.577 0 .869-.303.879-.91v-3.312h1.028zm1.932 4.977h-1.026v-4.977h1.026V236zm1.979-.824h2.177V236h-3.203v-4.977h1.026v4.153zm3.793 0h2.178V236h-3.203v-4.977h1.025v4.153zm6.638-1.551c0 .489-.086.919-.26 1.288-.173.369-.421.654-.745.855-.321.2-.69.3-1.107.3-.413 0-.781-.099-1.104-.297-.324-.198-.574-.481-.752-.848-.178-.369-.268-.793-.27-1.271v-.246c0-.49.088-.921.263-1.292.178-.374.427-.66.749-.858.323-.201.692-.301 1.107-.301.415 0 .783.1 1.104.301.324.198.573.484.749.858.177.371.266.801.266 1.288v.223zm-1.039-.226c0-.522-.093-.918-.28-1.19-.187-.271-.454-.406-.8-.406-.344 0-.609.134-.796.403-.187.267-.282.659-.284 1.176v.243c0 .508.093.902.28 1.182.187.28.456.421.807.421.344 0 .608-.135.793-.404.184-.271.278-.665.28-1.182v-.243zM99.4443 198v-4.977h1.7437c.603 0 1.061.117 1.374.349.312.23.468.569.468 1.015 0 .244-.063.459-.188.646-.126.185-.3.32-.523.407.255.064.456.192.601.386.149.194.223.431.223.711 0 .479-.153.841-.458 1.087-.306.246-.741.371-1.306.376h-1.9347zm1.0257-2.167v1.343h.878c.242 0 .43-.057.564-.171.137-.116.205-.275.205-.478 0-.456-.236-.687-.707-.694h-.94zm0-.725h.759c.517-.009.775-.215.775-.618 0-.226-.066-.388-.198-.486-.13-.1-.336-.15-.618-.15h-.718v1.254zm6.255 1.867h-1.798l-.342 1.025h-1.09l1.852-4.977h.95L108.16 198h-1.09l-.345-1.025zm-1.521-.831h1.244l-.626-1.863-.618 1.863zm5.263.034h-.817V198h-1.025v-4.977h1.849c.588 0 1.042.131 1.361.393.319.263.478.633.478 1.111 0 .34-.074.624-.222.851-.146.226-.368.406-.667.54l1.077 2.034V198H111.4l-.933-1.822zm-.817-.83h.828c.257 0 .456-.065.598-.195.141-.132.212-.313.212-.544 0-.234-.068-.419-.202-.553-.132-.135-.336-.202-.612-.202h-.824v1.494zm5.288.83h-.817V198h-1.025v-4.977h1.849c.588 0 1.041.131 1.36.393.319.263.479.633.479 1.111 0 .34-.074.624-.222.851-.146.226-.368.406-.667.54l1.077 2.034V198h-1.101l-.933-1.822zm-.817-.83h.827c.258 0 .457-.065.598-.195.142-.132.212-.313.212-.544 0-.234-.067-.419-.201-.553-.132-.135-.336-.202-.612-.202h-.824v1.494zm4.536 2.652h-1.026v-4.977h1.026V198zm5.041-2.375c0 .489-.086.919-.259 1.288-.174.369-.422.654-.746.855-.321.2-.69.3-1.107.3-.412 0-.78-.099-1.104-.297-.324-.198-.574-.481-.752-.848-.178-.369-.268-.793-.27-1.271v-.246c0-.49.088-.921.263-1.292.178-.374.427-.66.749-.858.323-.201.692-.301 1.107-.301.415 0 .783.1 1.104.301.324.198.573.484.749.858.177.371.266.801.266 1.288v.223zm-1.039-.226c0-.522-.093-.918-.28-1.19-.187-.271-.453-.406-.8-.406-.344 0-.609.134-.796.403-.187.267-.282.659-.284 1.176v.243c0 .508.094.902.28 1.182.187.28.456.421.807.421.344 0 .608-.135.793-.404.185-.271.278-.665.28-1.182v-.243zm4.365 1.295c0-.193-.068-.341-.205-.444-.137-.105-.383-.214-.738-.328-.356-.116-.637-.23-.845-.342-.565-.305-.847-.717-.847-1.234 0-.269.075-.508.225-.718.153-.212.371-.377.653-.495.285-.119.604-.178.957-.178.356 0 .672.065.95.195.278.127.494.309.646.543.155.235.233.502.233.8h-1.026c0-.228-.071-.404-.215-.53-.143-.127-.345-.191-.605-.191-.251 0-.445.054-.584.161-.139.104-.209.243-.209.417 0 .161.081.297.243.406.164.11.404.212.721.308.583.175 1.008.393 1.275.653.267.26.4.583.4.97 0 .431-.163.77-.489 1.016-.326.243-.764.365-1.316.365-.383 0-.731-.069-1.046-.208-.314-.141-.555-.334-.721-.578-.164-.244-.246-.526-.246-.847h1.029c0 .549.328.823.984.823.244 0 .434-.049.571-.147.137-.1.205-.239.205-.417zm7.236-3.671v3.278c0 .545-.171.976-.513 1.292-.339.317-.804.475-1.394.475-.581 0-1.043-.153-1.385-.461-.341-.308-.516-.73-.523-1.268v-3.316h1.026v3.285c0 .326.077.564.232.714.157.149.374.223.65.223.576 0 .869-.303.878-.91v-3.312h1.029zm4.888 4.977h-1.026l-1.996-3.274V198h-1.025v-4.977h1.025l2 3.282v-3.282h1.022V198zm1.985 0h-1.025v-4.977h1.025V198zm.954 0v-4.977h1.531c.438 0 .829.1 1.173.298.346.196.616.476.81.841.193.362.29.774.29 1.237v.229c0 .462-.095.874-.287 1.234-.189.36-.457.639-.803.837-.346.198-.737.299-1.172.301h-1.542zm1.025-4.146v3.322h.496c.401 0 .708-.131.919-.393.212-.262.321-.637.325-1.124v-.264c0-.505-.105-.888-.314-1.148-.21-.262-.516-.393-.92-.393h-.506zm7.616 1.771c0 .489-.087.919-.26 1.288-.173.369-.422.654-.745.855-.321.2-.691.3-1.108.3-.412 0-.78-.099-1.104-.297-.323-.198-.574-.481-.752-.848-.177-.369-.267-.793-.27-1.271v-.246c0-.49.088-.921.264-1.292.177-.374.427-.66.748-.858.324-.201.693-.301 1.108-.301.414 0 .782.1 1.104.301.323.198.573.484.748.858.178.371.267.801.267 1.288v.223zm-1.039-.226c0-.522-.094-.918-.281-1.19-.186-.271-.453-.406-.799-.406-.345 0-.61.134-.797.403-.187.267-.281.659-.284 1.176v.243c0 .508.094.902.281 1.182.187.28.455.421.806.421.344 0 .609-.135.793-.404.185-.271.278-.665.281-1.182v-.243zm4.364 1.295c0-.193-.068-.341-.205-.444-.136-.105-.382-.214-.738-.328-.355-.116-.637-.23-.844-.342-.565-.305-.848-.717-.848-1.234 0-.269.075-.508.226-.718.152-.212.37-.377.653-.495.284-.119.603-.178.957-.178.355 0 .672.065.95.195.278.127.493.309.646.543.155.235.232.502.232.8h-1.025c0-.228-.072-.404-.216-.53-.143-.127-.345-.191-.605-.191-.25 0-.445.054-.584.161-.139.104-.208.243-.208.417 0 .161.08.297.242.406.164.11.405.212.721.308.584.175 1.009.393 1.275.653.267.26.4.583.4.97 0 .431-.163.77-.489 1.016-.325.243-.764.365-1.315.365-.383 0-.732-.069-1.046-.208-.315-.141-.555-.334-.722-.578-.164-.244-.246-.526-.246-.847h1.029c0 .549.328.823.985.823.243 0 .434-.049.57-.147.137-.1.205-.239.205-.417z"/>
  <path fill="#000" d="M59.7002 31.6909c0-.1868-.0524-.3349-.1572-.4443-.1026-.1117-.278-.2142-.5264-.3076-.2484-.0935-.4626-.1858-.6426-.2769-.18-.0934-.3349-.1994-.4648-.3179-.1276-.1207-.2279-.262-.3008-.4238-.0706-.1618-.106-.3543-.106-.5776 0-.3851.1231-.7007.3692-.9468.2461-.2461.5731-.3897.9809-.4307v-.7314h.5469v.7417c.4033.0569.7189.2256.9468.5058.2279.278.3418.6392.3418 1.0835h-.9878c0-.2734-.057-.4773-.1709-.6118-.1116-.1367-.262-.2051-.4512-.2051-.1868 0-.3315.0536-.4341.1607-.1025.1048-.1538.2506-.1538.4375 0 .1732.0502.3122.1504.417.1003.1048.286.2119.5572.3213.2734.1093.4978.213.6733.311.1755.0957.3236.2051.4443.3281.1208.1208.2131.2598.2769.417.0638.155.0957.3361.0957.5435 0 .3873-.1208.7018-.3623.9433-.2415.2416-.5742.384-.9981.4273v.6802h-.5434v-.6768c-.4671-.0501-.8294-.2153-1.0869-.4956-.2552-.2826-.3828-.6574-.3828-1.1245h.9878c0 .2711.0638.4796.1914.6255.1298.1435.3156.2153.5571.2153.2005 0 .3589-.0524.4751-.1572.1162-.1071.1743-.2507.1743-.4307zm2.6626-1.6167h.5264c.2506 0 .4363-.0627.5571-.188.1208-.1253.1812-.2916.1812-.499 0-.2005-.0604-.3566-.1812-.4683-.1185-.1116-.2825-.1674-.4922-.1674-.1891 0-.3475.0524-.4751.1572-.1276.1025-.1914.237-.1914.4033h-.9878c0-.2598.0695-.4922.2085-.6973.1413-.2073.3373-.3691.5879-.4853.2529-.1162.5309-.1743.834-.1743.5264 0 .9388.1264 1.2373.3794.2985.2506.4478.597.4478 1.039 0 .2279-.0695.4375-.2085.6289-.139.1914-.3213.3384-.5469.441.2803.1002.4888.2506.6255.4511.139.2005.2085.4375.2085.711 0 .442-.1618.7964-.4854 1.063-.3213.2666-.7474.3999-1.2783.3999-.4968 0-.9035-.1311-1.2202-.3931-.3145-.2621-.4717-.6084-.4717-1.0391h.9878c0 .1869.0695.3395.2085.458.1413.1185.3144.1778.5195.1778.2347 0 .4182-.0616.5503-.1846.1345-.1253.2017-.2905.2017-.4956 0-.4968-.2735-.7451-.8203-.7451h-.523v-.7725zm3.312 4.1734l-.5161-.2701.1231-.2221c.1526-.278.2312-.5549.2358-.8306v-.7656h.834l-.0034.6836c-.0023.2529-.0661.5081-.1914.7656-.1254.2575-.286.4705-.482.6392zm4.7613-3.3052c0 .6881-.1424 1.2145-.4273 1.5791-.2848.3646-.7018.5469-1.251.5469-.5423 0-.957-.1789-1.2441-.5367-.2871-.3577-.4341-.8704-.4409-1.5381v-.916c0-.695.1435-1.2225.4307-1.5825.2893-.36.7052-.54 1.2475-.54s.957.1788 1.2442.5366c.2871.3555.434.867.4409 1.5347v.916zm-.9878-1.0049c0-.4124-.057-.7121-.1709-.8989-.1117-.1892-.2871-.2837-.5264-.2837-.2324 0-.4044.09-.5161.27-.1094.1777-.1675.4569-.1743.8374v1.21c0 .4056.0547.7075.164.9057.1117.196.2894.294.5332.294.2416 0 .4159-.0946.523-.2837.1071-.1892.1629-.4785.1675-.8682v-1.1826zm5.0073 1.0049c0 .6881-.1424 1.2145-.4272 1.5791-.2849.3646-.7019.5469-1.251.5469-.5423 0-.957-.1789-1.2442-.5367-.2871-.3577-.434-.8704-.4409-1.5381v-.916c0-.695.1436-1.2225.4307-1.5825.2894-.36.7052-.54 1.2476-.54.5423 0 .957.1788 1.2441.5366.2871.3555.4341.867.4409 1.5347v.916zm-.9878-1.0049c0-.4124-.0569-.7121-.1709-.8989-.1116-.1892-.2871-.2837-.5263-.2837-.2325 0-.4045.09-.5162.27-.1093.1777-.1674.4569-.1743.8374v1.21c0 .4056.0547.7075.1641.9057.1116.196.2894.294.5332.294.2415 0 .4158-.0946.5229-.2837.1071-.1892.163-.4785.1675-.8682v-1.1826zm5.0074 1.0049c0 .6881-.1425 1.2145-.4273 1.5791-.2848.3646-.7018.5469-1.251.5469-.5423 0-.957-.1789-1.2441-.5367-.2871-.3577-.4341-.8704-.4409-1.5381v-.916c0-.695.1435-1.2225.4306-1.5825.2894-.36.7053-.54 1.2476-.54s.957.1788 1.2441.5366c.2872.3555.4341.867.441 1.5347v.916zm-.9878-1.0049c0-.4124-.057-.7121-.1709-.8989-.1117-.1892-.2871-.2837-.5264-.2837-.2324 0-.4045.09-.5161.27-.1094.1777-.1675.4569-.1743.8374v1.21c0 .4056.0547.7075.164.9057.1117.196.2894.294.5332.294.2416 0 .4159-.0946.523-.2837.1071-.1892.1629-.4785.1675-.8682v-1.1826zM59.7002 47.6909c0-.1868-.0524-.3349-.1572-.4443-.1026-.1117-.278-.2142-.5264-.3076-.2484-.0935-.4626-.1858-.6426-.2769-.18-.0934-.3349-.1994-.4648-.3179-.1276-.1207-.2279-.262-.3008-.4238-.0706-.1618-.106-.3543-.106-.5776 0-.3851.1231-.7007.3692-.9468.2461-.2461.5731-.3897.9809-.4307v-.7314h.5469v.7417c.4033.0569.7189.2256.9468.5058.2279.278.3418.6392.3418 1.0835h-.9878c0-.2734-.057-.4773-.1709-.6118-.1116-.1367-.262-.2051-.4512-.2051-.1868 0-.3315.0536-.4341.1607-.1025.1048-.1538.2506-.1538.4375 0 .1732.0502.3122.1504.417.1003.1048.286.2119.5572.3213.2734.1093.4978.213.6733.311.1755.0957.3236.2051.4443.3281.1208.1208.2131.2598.2769.417.0638.155.0957.3361.0957.5435 0 .3873-.1208.7018-.3623.9433-.2415.2416-.5742.384-.9981.4273v.6802h-.5434v-.6768c-.4671-.0501-.8294-.2153-1.0869-.4956-.2552-.2826-.3828-.6574-.3828-1.1245h.9878c0 .2711.0638.4796.1914.6255.1298.1435.3156.2153.5571.2153.2005 0 .3589-.0524.4751-.1572.1162-.1071.1743-.2507.1743-.4307zm1.8047-1.1382l.2871-2.5293h2.7891v.8238h-1.979l-.1231 1.0698c.2347-.1253.4842-.188.7486-.188.4739 0 .8453.147 1.1142.4409.2689.294.4033.7053.4033 1.2339 0 .3213-.0683.6095-.205.8648-.1345.2529-.3282.45-.5811.5913-.2529.139-.5514.2085-.8955.2085-.3008 0-.5799-.0604-.8374-.1812-.2575-.123-.4614-.2951-.6118-.5161-.1481-.221-.2268-.4728-.2359-.7554h.9776c.0205.2074.0923.3692.2153.4854.1253.1139.2883.1709.4888.1709.2233 0 .3953-.0798.5161-.2393.1208-.1618.1811-.3896.1811-.6836 0-.2825-.0695-.499-.2085-.6494-.1389-.1504-.3361-.2256-.5913-.2256-.2347 0-.4249.0615-.5708.1846l-.0957.0889-.7861-.1949zm4.1699 3.6949l-.5161-.2701.1231-.2221c.1526-.278.2312-.5549.2358-.8306v-.7656h.834l-.0034.6836c-.0023.2529-.0661.5081-.1914.7656-.1254.2575-.286.4705-.482.6392zm4.7613-3.3052c0 .6881-.1424 1.2145-.4273 1.5791-.2848.3646-.7018.5469-1.251.5469-.5423 0-.957-.1789-1.2441-.5367-.2871-.3577-.4341-.8704-.4409-1.5381v-.916c0-.695.1435-1.2225.4307-1.5825.2893-.36.7052-.54 1.2475-.54s.957.1788 1.2442.5366c.2871.3555.434.867.4409 1.5347v.916zm-.9878-1.0049c0-.4124-.057-.7121-.1709-.8989-.1117-.1892-.2871-.2837-.5264-.2837-.2324 0-.4044.09-.5161.27-.1094.1777-.1675.4569-.1743.8374v1.21c0 .4056.0547.7075.164.9057.1117.196.2894.294.5332.294.2416 0 .4159-.0946.523-.2837.1071-.1892.1629-.4785.1675-.8682v-1.1826zm5.0073 1.0049c0 .6881-.1424 1.2145-.4272 1.5791-.2849.3646-.7019.5469-1.251.5469-.5423 0-.957-.1789-1.2442-.5367-.2871-.3577-.434-.8704-.4409-1.5381v-.916c0-.695.1436-1.2225.4307-1.5825.2894-.36.7052-.54 1.2476-.54.5423 0 .957.1788 1.2441.5366.2871.3555.4341.867.4409 1.5347v.916zm-.9878-1.0049c0-.4124-.0569-.7121-.1709-.8989-.1116-.1892-.2871-.2837-.5263-.2837-.2325 0-.4045.09-.5162.27-.1093.1777-.1674.4569-.1743.8374v1.21c0 .4056.0547.7075.1641.9057.1116.196.2894.294.5332.294.2415 0 .4158-.0946.5229-.2837.1071-.1892.163-.4785.1675-.8682v-1.1826zm5.0074 1.0049c0 .6881-.1425 1.2145-.4273 1.5791-.2848.3646-.7018.5469-1.251.5469-.5423 0-.957-.1789-1.2441-.5367-.2871-.3577-.4341-.8704-.4409-1.5381v-.916c0-.695.1435-1.2225.4306-1.5825.2894-.36.7053-.54 1.2476-.54s.957.1788 1.2441.5366c.2872.3555.4341.867.441 1.5347v.916zm-.9878-1.0049c0-.4124-.057-.7121-.1709-.8989-.1117-.1892-.2871-.2837-.5264-.2837-.2324 0-.4045.09-.5161.27-.1094.1777-.1675.4569-.1743.8374v1.21c0 .4056.0547.7075.164.9057.1117.196.2894.294.5332.294.2416 0 .4159-.0946.523-.2837.1071-.1892.1629-.4785.1675-.8682v-1.1826zM59.7002 63.6909c0-.1868-.0524-.3349-.1572-.4443-.1026-.1117-.278-.2142-.5264-.3076-.2484-.0935-.4626-.1858-.6426-.2769-.18-.0934-.3349-.1994-.4648-.3179-.1276-.1207-.2279-.262-.3008-.4238-.0706-.1618-.106-.3543-.106-.5776 0-.3851.1231-.7007.3692-.9468.2461-.2461.5731-.3897.9809-.4307v-.7314h.5469v.7417c.4033.0569.7189.2256.9468.5058.2279.278.3418.6392.3418 1.0835h-.9878c0-.2734-.057-.4773-.1709-.6118-.1116-.1367-.262-.2051-.4512-.2051-.1868 0-.3315.0536-.4341.1607-.1025.1048-.1538.2506-.1538.4375 0 .1732.0502.3122.1504.417.1003.1048.286.2119.5572.3213.2734.1093.4978.213.6733.311.1755.0957.3236.2051.4443.3281.1208.1208.2131.2598.2769.417.0638.155.0957.3361.0957.5435 0 .3873-.1208.7018-.3623.9433-.2415.2416-.5742.384-.9981.4273v.6802h-.5434v-.6768c-.4671-.0501-.8294-.2153-1.0869-.4956-.2552-.2826-.3828-.6574-.3828-1.1245h.9878c0 .2711.0638.4796.1914.6255.1298.1435.3156.2153.5571.2153.2005 0 .3589-.0524.4751-.1572.1162-.1071.1743-.2507.1743-.4307zM63.7573 65h-.9878v-3.8076l-1.1792.3657v-.8032l2.0611-.7383h.1059V65zm4.9698-2.0576c0 .6881-.1424 1.2145-.4273 1.5791-.2848.3646-.7018.5469-1.2509.5469-.5424 0-.9571-.1789-1.2442-.5367-.2871-.3577-.4341-.8704-.4409-1.5381v-.916c0-.695.1436-1.2225.4307-1.5825.2893-.36.7052-.54 1.2475-.54s.9571.1788 1.2442.5366c.2871.3555.4341.867.4409 1.5347v.916zm-.9878-1.0049c0-.4124-.057-.7121-.1709-.8989-.1117-.1892-.2871-.2837-.5264-.2837-.2324 0-.4044.09-.5161.27-.1094.1777-.1675.4569-.1743.8374v1.21c0 .4056.0547.7075.1641.9057.1116.196.2893.294.5332.294.2415 0 .4158-.0946.5229-.2837.1071-.1892.1629-.4785.1675-.8682v-1.1826zm1.9551 4.3101l-.5161-.2701.123-.2221c.1527-.278.2313-.5549.2358-.8306v-.7656h.834l-.0034.6836c-.0023.2529-.0661.5081-.1914.7656-.1253.2575-.286.4705-.4819.6392zm4.7612-3.3052c0 .6881-.1424 1.2145-.4272 1.5791-.2849.3646-.7019.5469-1.251.5469-.5423 0-.957-.1789-1.2442-.5367-.2871-.3577-.434-.8704-.4409-1.5381v-.916c0-.695.1436-1.2225.4307-1.5825.2894-.36.7052-.54 1.2476-.54.5423 0 .957.1788 1.2441.5366.2871.3555.4341.867.4409 1.5347v.916zm-.9878-1.0049c0-.4124-.0569-.7121-.1709-.8989-.1116-.1892-.2871-.2837-.5263-.2837-.2325 0-.4045.09-.5162.27-.1093.1777-.1674.4569-.1743.8374v1.21c0 .4056.0547.7075.1641.9057.1116.196.2894.294.5332.294.2415 0 .4158-.0946.5229-.2837.1071-.1892.163-.4785.1675-.8682v-1.1826zm5.0074 1.0049c0 .6881-.1425 1.2145-.4273 1.5791-.2848.3646-.7018.5469-1.251.5469-.5423 0-.957-.1789-1.2441-.5367-.2871-.3577-.4341-.8704-.4409-1.5381v-.916c0-.695.1435-1.2225.4306-1.5825.2894-.36.7053-.54 1.2476-.54s.957.1788 1.2441.5366c.2872.3555.4341.867.441 1.5347v.916zm-.9878-1.0049c0-.4124-.057-.7121-.1709-.8989-.1117-.1892-.2871-.2837-.5264-.2837-.2324 0-.4045.09-.5161.27-.1094.1777-.1675.4569-.1743.8374v1.21c0 .4056.0547.7075.164.9057.1117.196.2894.294.5332.294.2416 0 .4159-.0946.523-.2837.1071-.1892.1629-.4785.1675-.8682v-1.1826zm5.0073 1.0049c0 .6881-.1424 1.2145-.4272 1.5791-.2849.3646-.7019.5469-1.251.5469-.5423 0-.9571-.1789-1.2442-.5367-.2871-.3577-.434-.8704-.4409-1.5381v-.916c0-.695.1436-1.2225.4307-1.5825.2894-.36.7052-.54 1.2475-.54.5424 0 .9571.1788 1.2442.5366.2871.3555.4341.867.4409 1.5347v.916zm-.9878-1.0049c0-.4124-.057-.7121-.1709-.8989-.1116-.1892-.2871-.2837-.5264-.2837-.2324 0-.4044.09-.5161.27-.1093.1777-.1675.4569-.1743.8374v1.21c0 .4056.0547.7075.1641.9057.1116.196.2894.294.5332.294.2415 0 .4158-.0946.5229-.2837.1071-.1892.163-.4785.1675-.8682v-1.1826z"/>
  <path fill="#6FCF97" d="M44 42h9v9h-9z"/>
  <path fill="#56CCF2" d="M44 58h9v9h-9z"/>
  <path fill="#F2C94C" d="M44 28h9v9h-9z"/>
  <path fill="#000" d="M42.625 9.58789h4.3008V11h-6.4981V9.96875l4.2188-6.07617h-4.2129V2.46875h6.3984v1.00781l-4.207 6.11133zm12.2695-2.66016c0 .83985-.1484 1.57618-.4453 2.20899-.2969.63281-.7226 1.12108-1.2773 1.46488-.5508.3437-1.1836.5156-1.8985.5156-.707 0-1.3379-.1699-1.8925-.5098-.5547-.3398-.9844-.8242-1.2891-1.4531-.3047-.63282-.459-1.35938-.4629-2.17969v-.42188c0-.83984.1504-1.57812.4512-2.21484.3047-.64062.7324-1.13086 1.2832-1.4707.5547-.34375 1.1875-.51563 1.8984-.51563.711 0 1.3418.17188 1.8926.51563.5547.33984.9824.83008 1.2832 1.4707.3047.63672.457 1.37305.457 2.20899v.38085zm-1.7812-.38671c0-.89454-.1602-1.57422-.4805-2.03907-.3203-.46484-.7773-.69726-1.3711-.69726-.5898 0-1.0449.23047-1.3652.6914-.3203.45703-.4824 1.12891-.4863 2.01563v.41601c0 .8711.1601 1.54688.4804 2.02735.3203.48047.7813.7207 1.3828.7207.5899 0 1.043-.23047 1.3594-.6914.3164-.46485.4766-1.14063.4805-2.02735v-.41601zM63.1094 11h-1.7578l-3.4219-5.61328V11h-1.7578V2.46875h1.7578l3.4277 5.625v-5.625h1.752V11zm6.457-1.75781h-3.082L65.8984 11h-1.8691l3.1758-8.53125h1.6289L72.0273 11h-1.8691l-.5918-1.75781zM66.959 7.81836h2.1328L68.0195 4.625 66.959 7.81836zM75.8125 11V2.46875h2.625c.75 0 1.4199.16992 2.0098.50977.5937.33593 1.0566.8164 1.3886 1.4414.3321.6211.4981 1.32813.4981 2.1211v.39257c0 .79297-.1641 1.49805-.4922 2.11524-.3242.61719-.7832 1.09567-1.377 1.43557-.5937.3398-1.2636.5117-2.0097.5156h-2.6426zm1.7578-7.10742v5.69531h.8496c.6875 0 1.2129-.22461 1.5762-.67383.3633-.44922.5488-1.09179.5566-1.92773v-.45117c0-.86719-.1797-1.52344-.539-1.96875-.3594-.44922-.8848-.67383-1.5762-.67383h-.8672zM88.75 7.30273h-3.375v2.28516h3.9609V11h-5.7187V2.46875h5.707v1.42383H85.375v2.0332h3.375v1.37695zm11.303.85547c-.0667.91797-.4065 1.64063-1.0198 2.168-.6094.5273-1.4141.791-2.4141.791-1.0937 0-1.955-.3672-2.5839-1.1016-.625-.73826-.9375-1.74998-.9375-3.03513v-.52149c0-.82031.1445-1.54296.4335-2.16796.2891-.625.7012-1.10352 1.2364-1.43555.539-.33594 1.164-.50391 1.875-.50391.9844 0 1.7773.26367 2.3789.79102.6015.52734.9492 1.26758 1.0425 2.2207h-1.7574c-.0429-.55078-.1972-.94922-.4628-1.19531-.2618-.25-.6622-.375-1.2012-.375-.586 0-1.0254.21094-1.3184.63281-.289.41797-.4375 1.06836-.4453 1.95117v.64453c0 .92188.1387 1.59571.416 2.02149.2813.42578.7227.63867 1.3242.63867.543 0 .9473-.12305 1.2129-.36914.2696-.25.4239-.63477.4629-1.1543h1.7581zm8.162-1.23047c0 .83985-.149 1.57618-.445 2.20899-.297.63281-.723 1.12108-1.278 1.46488-.551.3437-1.183.5156-1.898.5156-.707 0-1.338-.1699-1.893-.5098-.555-.3398-.984-.8242-1.289-1.4531-.305-.63282-.459-1.35938-.463-2.17969v-.42188c0-.83984.151-1.57812.451-2.21484.305-.64062.733-1.13086 1.284-1.4707.554-.34375 1.187-.51563 1.898-.51563.711 0 1.342.17188 1.893.51563.554.33984.982.83008 1.283 1.4707.304.63672.457 1.37305.457 2.20899v.38085zm-1.781-.38671c0-.89454-.161-1.57422-.481-2.03907-.32-.46484-.777-.69726-1.371-.69726-.59 0-1.045.23047-1.365.6914-.321.45703-.483 1.12891-.487 2.01563v.41601c0 .8711.161 1.54688.481 2.02735.32.48047.781.7207 1.383.7207.59 0 1.043-.23047 1.359-.6914.317-.46485.477-1.14063.481-2.02735v-.41601zM109.492 11V2.46875h2.988c1.036 0 1.821.19922 2.356.59766.535.39453.803.97461.803 1.74023 0 .41797-.108.78711-.323 1.10742-.214.31641-.513.54883-.896.69727.437.10937.781.33008 1.031.66211.254.33203.381.73828.381 1.21875 0 .82031-.262 1.4414-.785 1.86331-.524.4218-1.27.6367-2.238.6445h-3.317zm1.758-3.71484v2.30273h1.506c.414 0 .736-.09766.967-.29297.234-.19922.351-.47265.351-.82031 0-.78125-.404-1.17773-1.213-1.18945h-1.611zm0-1.24219h1.301c.887-.01563 1.33-.36914 1.33-1.06055 0-.38672-.113-.66406-.34-.83203-.223-.17187-.576-.25781-1.061-.25781h-1.23v2.15039zm11.039 1.25976h-3.375v2.28516h3.961V11h-5.719V2.46875h5.707v1.42383h-3.949v2.0332h3.375v1.37695zm4.775.57422h-1.4V11h-1.758V2.46875h3.17c1.008 0 1.785.22461 2.332.67383.547.44922.821 1.08398.821 1.9043 0 .58203-.127 1.06835-.381 1.45898-.25.38672-.631.69531-1.143.92578l1.846 3.48636V11h-1.887l-1.6-3.12305zm-1.4-1.42383h1.418c.441 0 .783-.11132 1.025-.33398.243-.22656.364-.53711.364-.93164 0-.40234-.116-.71875-.346-.94922-.227-.23047-.576-.3457-1.049-.3457h-1.412v2.56054zm12.035-2.56054h-2.613V11h-1.758V3.89258h-2.578V2.46875h6.949v1.42383zm7.465-1.42383v5.61914c0 .93359-.293 1.67188-.879 2.21481-.582.543-1.379.8145-2.39.8145-.997 0-1.788-.2637-2.374-.791-.585-.52737-.884-1.25198-.896-2.17386V2.46875h1.758v5.63086c0 .55859.133.9668.398 1.22461.27.2539.641.38086 1.114.38086.988 0 1.49-.51953 1.505-1.5586V2.46875h1.764zm4.6 5.4082h-1.401V11h-1.758V2.46875h3.17c1.008 0 1.786.22461 2.332.67383.547.44922.821 1.08398.821 1.9043 0 .58203-.127 1.06835-.381 1.45898-.25.38672-.631.69531-1.143.92578l1.846 3.48636V11h-1.887l-1.599-3.12305zm-1.401-1.42383h1.418c.442 0 .783-.11132 1.026-.33398.242-.22656.363-.53711.363-.93164 0-.40234-.115-.71875-.346-.94922-.226-.23047-.576-.3457-1.049-.3457h-1.412v2.56054zm10.723 2.78907h-3.082L155.418 11h-1.869l3.176-8.53125h1.629L161.547 11h-1.869l-.592-1.75781zm-2.607-1.42383h2.132L157.539 4.625l-1.06 3.19336z"/>
</svg>
